<?xml version="1.0" encoding="UTF-8"?><svg id="Layer_1" xmlns="http://www.w3.org/2000/svg" viewBox="0 0 100 100"><defs><style>.cls-1{fill:none;stroke:#fff;stroke-linecap:round;stroke-linejoin:round;}</style></defs><g id="Group_12759"><path id="Path_23224" class="cls-1" d="m96.18,57.43c3.83-4.21,3.83-10.65,0-14.86"/><g id="Group_12727"><g id="Group_12744"><path id="Path_23261" class="cls-1" d="m23.61,38.06v-11.21c0-1.79,1.45-3.25,3.24-3.25h8.25"/><path id="Path_23262" class="cls-1" d="m40.76,23.61h5.99c1.79,0,3.25,1.46,3.25,3.25v7.92h-.36c-1.29-.03-2.53-.48-3.53-1.28-.94-.73-2.16-1.01-3.33-.77-2.25.45-3.71,2.65-3.26,4.9.39,1.95,2.11,3.35,4.09,3.34.9,0,1.77-.29,2.48-.83,1.01-.81,2.26-1.26,3.55-1.29h.36v7.92c0,1.79-1.46,3.25-3.25,3.25h-7.92v.35c.03,1.3.49,2.55,1.3,3.56,1.38,1.84,1.01,4.45-.83,5.83-1.84,1.38-4.45,1.01-5.83-.83-1.12-1.49-1.11-3.54,0-5.02.81-1,1.26-2.25,1.28-3.53v-.36h-6.29"/><path id="Path_23263" class="cls-1" d="m71.52,50h-6.29v-.37c.03-1.29.48-2.53,1.29-3.53,1.38-1.83,1.02-4.44-.81-5.82s-4.44-1.02-5.82.81c-.55.73-.84,1.61-.84,2.52s.29,1.76.82,2.47c.81,1.01,1.27,2.26,1.3,3.56v.36h-7.91c-1.79,0-3.25-1.46-3.25-3.25v-7.91h-.36c-1.29.03-2.54.48-3.55,1.29-.71.54-1.58.83-2.48.83-2.3,0-4.17-1.85-4.18-4.15,0-1.99,1.39-3.7,3.34-4.09,1.17-.24,2.38.05,3.33.77,1,.81,2.25,1.26,3.53,1.28h.36v-7.92c0-1.79,1.45-3.25,3.24-3.25h6"/><path id="Path_23264" class="cls-1" d="m64.9,23.61h8.24c1.79,0,3.25,1.45,3.25,3.24h0v11.22"/><path id="Path_23265" class="cls-1" d="m76.4,62.09v11.06c0,1.79-1.45,3.24-3.25,3.24h-8.25"/><path id="Path_23266" class="cls-1" d="m59.24,76.39h-5.99c-1.79,0-3.24-1.45-3.25-3.24v-7.92h.36c1.29.03,2.53.48,3.53,1.28,1.82,1.39,4.42,1.04,5.8-.77.37-.48.63-1.04.76-1.63.5-2.24-.92-4.47-3.16-4.97-.3-.07-.6-.1-.9-.1-.9,0-1.77.29-2.48.83-1.01.81-2.26,1.27-3.56,1.3h-.35v-7.92c0-1.79,1.46-3.24,3.25-3.24h7.92v-.36c-.03-1.3-.49-2.55-1.3-3.56-.54-.71-.82-1.58-.82-2.47-.02-2.3,1.83-4.18,4.13-4.2,2.3-.02,4.18,1.83,4.2,4.13,0,.92-.29,1.82-.85,2.56-.81,1-1.26,2.25-1.28,3.53v.37h6.29"/><path id="Path_23267" class="cls-1" d="m28.48,50h6.29v.36c-.03,1.29-.48,2.53-1.28,3.53-1.38,1.83-1.02,4.44.82,5.82,1.83,1.38,4.44,1.02,5.82-.82,1.11-1.47,1.12-3.5,0-4.98-.81-1.01-1.27-2.26-1.3-3.56v-.35h7.92c1.79,0,3.24,1.45,3.25,3.24v7.92h.35c1.3-.03,2.55-.49,3.56-1.3.71-.54,1.58-.83,2.48-.83,2.3,0,4.17,1.85,4.18,4.15,0,1.99-1.39,3.7-3.34,4.09-1.17.24-2.38-.05-3.33-.77-1-.81-2.25-1.26-3.53-1.28h-.36v7.92c0,1.79-1.46,3.25-3.25,3.25h-5.99"/><path id="Path_23268" class="cls-1" d="m23.61,61.93v11.22c0,1.79,1.46,3.25,3.25,3.25h8.23"/></g><g id="Group_12747"><g id="Group_12745"><path id="Path_23270" class="cls-1" d="m90.45,43.79c-.21-.03-.43-.04-.65-.04-1.58,0-3.11.6-4.26,1.69-.75-2.13-2.1-4.14-3.76-4.16-.86,0-1.69.34-2.28.97-1.02,1.05-1.59,2.46-1.61,3.92,0,1.44-1.17,2.6-2.6,2.6s-2.59-1.16-2.6-2.6h0c.01-2.87,1.15-5.61,3.17-7.64,1.58-1.6,3.75-2.49,5.99-2.45,4.47.07,7.27,3.94,8.59,7.7h.01Z"/></g><g id="Group_12746"><path id="Path_23271" class="cls-1" d="m90.45,56.21c-1.32,3.78-4.12,7.64-8.59,7.71-2.25.03-4.42-.86-5.99-2.46-2.02-2.02-3.16-4.76-3.17-7.62h0c0-1.44,1.16-2.61,2.59-2.61s2.6,1.16,2.6,2.59c.02,1.47.59,2.87,1.61,3.93.59.62,1.42.98,2.28.97,1.66-.04,3.01-2.03,3.76-4.17,1.15,1.09,2.67,1.7,4.26,1.69.22,0,.43,0,.65-.04h0Z"/></g></g><path id="Path_23272" class="cls-1" d="m96.04,50c0,3.19-2.42,5.87-5.6,6.19-.21.03-.43.04-.65.04-3.45,0-6.24-2.8-6.24-6.24s2.79-6.23,6.24-6.24c.22,0,.43,0,.65.04,3.18.33,5.6,3.01,5.6,6.21Z"/><path id="Path_23273" class="cls-1" d="m3.82,42.57c-3.82,4.21-3.82,10.65,0,14.86"/><g id="Group_12750"><g id="Group_12748"><path id="Path_23274" class="cls-1" d="m27.31,53.82h0c-.02,2.87-1.16,5.6-3.17,7.63-1.58,1.61-3.75,2.49-6,2.46-4.46-.07-7.26-3.94-8.58-7.71.21.03.43.04.65.04,1.58,0,3.11-.6,4.26-1.69.75,2.13,2.1,4.14,3.76,4.17.86,0,1.68-.35,2.28-.97,1.02-1.06,1.59-2.46,1.61-3.93,0-1.44,1.17-2.6,2.6-2.59,1.44,0,2.6,1.17,2.59,2.6h0Z"/></g><g id="Group_12749"><path id="Path_23275" class="cls-1" d="m16.43,50c0,3.44-2.79,6.22-6.23,6.23-.22,0-.43,0-.65-.04-3.43-.35-5.92-3.42-5.56-6.84.3-2.94,2.63-5.26,5.56-5.56.21-.03.43-.04.65-.04,3.44,0,6.23,2.8,6.23,6.24h0Z"/><path id="Path_23276" class="cls-1" d="m27.31,46.18h0c0,1.44-1.17,2.61-2.6,2.6-1.43,0-2.59-1.16-2.6-2.6-.02-1.46-.59-2.87-1.61-3.92-.59-.63-1.41-.98-2.28-.97-1.66.03-3.01,2.03-3.76,4.16-1.15-1.09-2.67-1.7-4.26-1.69-.22,0-.43,0-.65.04,1.32-3.76,4.12-7.63,8.58-7.7,2.25-.03,4.42.85,6,2.45,2.01,2.03,3.15,4.77,3.17,7.63h.01Z"/></g></g><g id="Group_12754"><path id="Path_23277" class="cls-1" d="m57.43,8.07c-4.21-3.83-10.65-3.83-14.86,0"/><g id="Group_12753"><g id="Group_12751"><path id="Path_23278" class="cls-1" d="m47.57,28.15c0,1.43-1.17,2.59-2.6,2.59h0c-2.86-.02-5.59-1.16-7.62-3.17-1.09-1.09-1.87-2.47-2.23-3.97-.17-.66-.24-1.35-.23-2.03.08-5.06,5.03-7.98,9.2-9.04-.2.62-.3,1.26-.3,1.91,0,1.17.33,2.31.96,3.29-2.3.7-4.61,2.13-4.65,3.92,0,.71.24,1.4.69,1.95.09.11.18.21.28.32,1.05,1.02,2.46,1.6,3.92,1.62,1.44,0,2.6,1.17,2.6,2.6h-.02Z"/></g><g id="Group_12752"><path id="Path_23279" class="cls-1" d="m65.12,21.57c.02.68-.06,1.37-.22,2.03-.36,1.5-1.13,2.88-2.23,3.97-2.03,2.01-4.77,3.15-7.63,3.17-1.44,0-2.6-1.16-2.6-2.59s1.16-2.6,2.59-2.6c1.47-.02,2.87-.6,3.93-1.62.11-.11.19-.21.28-.32.45-.55.7-1.24.69-1.95-.04-1.79-2.35-3.22-4.65-3.92.62-.98.95-2.13.95-3.29,0-.65-.1-1.29-.3-1.91,4.16,1.06,9.12,3.97,9.19,9.04h0Z"/></g></g><path id="Path_23280" class="cls-1" d="m56.23,14.44c0,1.16-.33,2.31-.95,3.29-1.8,2.92-5.63,3.82-8.55,2.02-.82-.51-1.51-1.2-2.02-2.02-.63-.98-.96-2.12-.96-3.29,0-3.45,2.79-6.24,6.24-6.24s6.24,2.79,6.24,6.24Z"/></g><g id="Group_12758"><path id="Path_23281" class="cls-1" d="m42.57,91.93c4.21,3.83,10.65,3.83,14.86,0"/><g id="Group_12757"><g id="Group_12755"><path id="Path_23282" class="cls-1" d="m65.12,78.43c-.07,5.07-5.04,7.99-9.2,9.04.21-.62.31-1.26.31-1.91,0-1.16-.33-2.3-.95-3.29,2.3-.71,4.61-2.14,4.65-3.92,0-.71-.24-1.41-.7-1.96-.08-.11-.18-.21-.27-.32-1.06-1.02-2.46-1.6-3.93-1.62-1.44,0-2.6-1.17-2.59-2.6,0-1.44,1.17-2.6,2.6-2.59,2.86.02,5.6,1.16,7.63,3.18,1.1,1.09,1.87,2.46,2.23,3.96.16.67.24,1.35.22,2.04h0Z"/></g><g id="Group_12756"><path id="Path_23283" class="cls-1" d="m47.57,71.85c0,1.43-1.16,2.6-2.59,2.6-1.47.02-2.87.6-3.93,1.62-.1.1-.2.21-.28.33-.45.55-.7,1.24-.69,1.95.04,1.78,2.35,3.21,4.65,3.92-.63.98-.96,2.12-.96,3.29,0,.65.1,1.3.31,1.91-4.16-1.06-9.12-3.98-9.2-9.04,0-.68.06-1.37.22-2.03.37-1.5,1.14-2.88,2.24-3.97,2.03-2.02,4.76-3.16,7.62-3.18h0c1.44,0,2.6,1.17,2.6,2.6h0Z"/></g></g><path id="Path_23284" class="cls-1" d="m56.23,85.55c0,.65-.1,1.3-.31,1.91-1.05,3.27-4.55,5.08-7.82,4.04-1.92-.61-3.42-2.12-4.04-4.04-.21-.62-.31-1.26-.31-1.91,0-1.16.33-2.3.96-3.29,1.83-2.92,5.67-3.81,8.59-1.98,1.82,1.14,2.92,3.12,2.93,5.26h0Z"/></g></g></g></svg>