<?xml version="1.0" encoding="UTF-8"?><svg id="Layer_1" xmlns="http://www.w3.org/2000/svg" viewBox="0 0 150 150"><defs><style>.cls-1{fill:none;stroke:#ff8200;stroke-linecap:round;stroke-linejoin:round;}</style></defs><path class="cls-1" d="m75,1.59L27.11,23.61s.55,61.1,47.89,75.96c47.34-14.86,47.89-75.96,47.89-75.96L75,1.59Z"/><path class="cls-1" d="m65.62,89.68c-12.23-7.04-21.34-18.82-27.18-35.16-.78-2.17-1.45-4.32-2.04-6.41m79.73-11.44c-.69,4.02-1.71,8.71-3.23,13.66"/><rect class="cls-1" x="56.5" y="36.9" width="36.99" height="34.48" rx="4.71" ry="4.71"/><path class="cls-1" d="m67.43,36.9v-8.67c0-4.18,3.39-7.57,7.57-7.57h0c4.18,0,7.57,3.39,7.57,7.57v8.52"/><path class="cls-1" d="m80.95,51.75c0-3.29-2.66-5.95-5.95-5.95s-5.95,2.67-5.95,5.95c0,1.94.95,3.65,2.39,4.74v6h7.13v-6c1.44-1.09,2.39-2.8,2.39-4.74Z"/><polyline class="cls-1" points="58.33 91.32 58.33 111.65 51.6 118.38 51.6 122.2"/><path class="cls-1" d="m56.36,126.97c0,2.63-2.13,4.76-4.76,4.76s-4.76-2.13-4.76-4.76,2.13-4.76,4.76-4.76,4.76,2.13,4.76,4.76Z"/><path class="cls-1" d="m73.81,143.64c0,2.63-2.13,4.76-4.76,4.76s-4.76-2.13-4.76-4.76,2.13-4.76,4.76-4.76,4.76,2.13,4.76,4.76Z"/><line class="cls-1" x1="69.05" y1="97.35" x2="69.05" y2="138.88"/><polyline class="cls-1" points="91.67 91.32 91.67 111.65 98.41 118.38 98.41 122.2"/><path class="cls-1" d="m93.65,126.97c0,2.63,2.13,4.76,4.76,4.76s4.76-2.13,4.76-4.76-2.13-4.76-4.76-4.76-4.76,2.13-4.76,4.76Z"/><path class="cls-1" d="m76.2,131.73c0,2.63,2.13,4.76,4.76,4.76s4.76-2.13,4.76-4.76-2.13-4.76-4.76-4.76-4.76,2.13-4.76,4.76Z"/><line class="cls-1" x1="80.96" y1="97.35" x2="80.96" y2="126.97"/></svg>