<?xml version="1.0" encoding="UTF-8"?><svg id="Layer_1" xmlns="http://www.w3.org/2000/svg" viewBox="0 0 100 100"><defs><style>.cls-1,.cls-2{fill:#fff;font-family:Helvetica-Bold, Helvetica;font-size:12px;font-weight:700;}.cls-1,.cls-2,.cls-3{isolation:isolate;}.cls-2{letter-spacing:-.09em;}.cls-4{stroke:#7700ec;stroke-linecap:round;stroke-linejoin:round;}.cls-4,.cls-3{fill:none;}</style></defs><g id="Group_4202"><g id="Group_2071"><path id="Path_1470" class="cls-4" d="m34.03,57.43H7.96V12.03h85.76v45.4h-26.07"/><path id="Path_1471" class="cls-4" d="m63.45,38.77c-.16,10.32,3.06,29.59-12.61,29.58-15.91.03-12.36-19.92-12.61-30.27.28-2.32,2.39-3.97,4.71-3.69.41.05.81.16,1.18.32,0,0,11.77-10.09,19.33,4.05h0Z"/><path id="Path_1472" class="cls-4" d="m45.3,34.02c-5.77,10.82,12.36,11.18,13.95,7.43l4.08,5.5"/><path id="Path_1473" class="cls-4" d="m38.28,46.93c1.12-1.49,3.02-3.79,4.15-3.79,1.36,0,2.27-1.47,2.57-2.04"/><path id="Path_1474" class="cls-4" d="m58.67,38.34c-2.03,1.47-7.68.68-9.96-1.22"/><path id="Path_1475" class="cls-4" d="m57.7,68.36c-25.07-1.21-23.89,2.13-26.19,25.22h38.68c-1.48-8.48.33-25.53-12.48-25.22h-.01Z"/><line id="Line_37" class="cls-4" x1="23.94" y1="93.58" x2="76.06" y2="93.58"/><path id="Path_1476" class="cls-4" d="m60.93,93.58h-21.86c-2.74-25.78-4.68-16.98,21.35-18.5,1.21,0,2.19.98,2.19,2.2,0,0-1.68,16.3-1.68,16.3Z"/><path id="Path_1477" class="cls-4" d="m55.88,68.36l-5.06,5.04-5.03-5.04"/><rect id="Rectangle_24" class="cls-4" x="19.69" y="24.82" width="3.11" height="3.11"/><line id="Line_38" class="cls-4" x1="28.98" y1="26.32" x2="82.79" y2="26.32"/><line id="Line_39" class="cls-4" x1="2.08" y1="6.42" x2="97.92" y2="6.42"/></g></g><g class="cls-3"><text class="cls-1" transform="translate(0 -5.06)"><tspan x="0" y="0">HOME </tspan></text><text class="cls-2" transform="translate(39.33 -5.06)"><tspan x="0" y="0">P</tspan></text><text class="cls-1" transform="translate(46.45 -5.06)"><tspan x="0" y="0">AGE</tspan></text></g></svg>