<?xml version="1.0" encoding="UTF-8"?><svg id="Layer_1" xmlns="http://www.w3.org/2000/svg" viewBox="0 0 100 100"><defs><style>.cls-1{fill:none;stroke:#7700ec;stroke-linecap:round;stroke-linejoin:round;}</style></defs><g id="Group_4201"><g id="Group_4200"><g id="Group_2069"><path id="Path_1469" class="cls-1" d="m24.33,73.18c-10.52,2.29-20.91-4.38-23.2-14.9-2.07-9.51,3.19-19.1,12.34-22.45.2-10.76,9.08-19.32,19.84-19.12,4.75.09,9.3,1.9,12.8,5.11,3.5-10.18,14.59-15.6,24.77-12.1s15.6,14.59,12.1,24.77c-.04.13-.09.25-.13.38,10.64,1.67,17.9,11.65,16.23,22.28-1.67,10.64-11.65,17.9-22.28,16.23-.26-.04-.52-.09-.78-.14"/><g id="Group_2065"><rect id="Rectangle_22" class="cls-1" x="27.34" y="48.38" width="45.15" height="13.19"/><g id="Group_2064"><line id="Line_27" class="cls-1" x1="33.19" y1="52.41" x2="33.19" y2="57.54"/><line id="Line_28" class="cls-1" x1="39.38" y1="52.41" x2="39.38" y2="57.54"/><line id="Line_29" class="cls-1" x1="45.56" y1="52.41" x2="45.56" y2="57.54"/></g></g><g id="Group_2067"><rect id="Rectangle_23" class="cls-1" x="27.34" y="66.22" width="45.15" height="13.19"/><g id="Group_2066"><line id="Line_30" class="cls-1" x1="33.19" y1="70.26" x2="33.19" y2="75.38"/><line id="Line_31" class="cls-1" x1="39.38" y1="70.26" x2="39.38" y2="75.38"/><line id="Line_32" class="cls-1" x1="45.56" y1="70.26" x2="45.56" y2="75.38"/></g></g><g id="Group_2068"><line id="Line_33" class="cls-1" x1="33.06" y1="61.57" x2="33.06" y2="65.9"/><line id="Line_34" class="cls-1" x1="66.77" y1="61.57" x2="66.77" y2="65.9"/></g><line id="Line_35" class="cls-1" x1="49.92" y1="79.42" x2="49.92" y2="91.35"/><line id="Line_36" class="cls-1" x1="31.49" y1="91.28" x2="68.34" y2="91.28"/></g></g></g></svg>