<?xml version="1.0" encoding="UTF-8"?><svg id="Layer_1" xmlns="http://www.w3.org/2000/svg" viewBox="0 0 100 100"><defs><style>.cls-1{fill:none;stroke:#fa0;stroke-linecap:round;stroke-linejoin:round;}</style></defs><path id="Path_21527" class="cls-1" d="m26.86,19.66c-3.93,0-7.11-3.18-7.11-7.11s3.18-7.11,7.11-7.11,7.11,3.18,7.11,7.11c0,3.93-3.19,7.11-7.11,7.11Z"/><path id="Path_21528" class="cls-1" d="m26.86,19.66c-3.93,0-7.11-3.18-7.11-7.11s3.18-7.11,7.11-7.11,7.11,3.18,7.11,7.11c0,3.93-3.19,7.11-7.11,7.11Z"/><line id="Line_170" class="cls-1" x1="17.13" y1="60.69" x2="15.33" y2="36.39"/><line id="Line_171" class="cls-1" x1="7.48" y1="94.56" x2="19.63" y2="94.56"/><path id="Path_21529" class="cls-1" d="m34.12,94.56l4.54-61.4h21.34c2.11-.03,3.79-1.77,3.75-3.88-.03-2.06-1.69-3.72-3.75-3.75H15.01c-4.24.19-7.56,3.71-7.52,7.95,0,.07,0,.19,0,.37l1.6,21.5c.38,3.45,4.01,5.42,7.98,5.27l.06.05,2.51,33.88"/><g id="Group_10494"><line id="Line_172" class="cls-1" x1="33.97" y1="94.56" x2="92.52" y2="94.56"/><g id="Group_10493"><g id="Group_10490"><path id="Path_21530" class="cls-1" d="m48.27,52.62c-2.67-.04-4.79-2.23-4.75-4.9.04-2.61,2.14-4.71,4.75-4.75h34.2c2.67.04,4.79,2.23,4.75,4.9-.04,2.61-2.14,4.71-4.75,4.75h-34.2Z"/><line id="Line_173" class="cls-1" x1="48.27" y1="47.79" x2="52.44" y2="47.79"/></g><g id="Group_10491"><path id="Path_21531" class="cls-1" d="m48.27,67.19c-2.67-.04-4.79-2.23-4.75-4.9.04-2.61,2.14-4.71,4.75-4.75h34.2c2.67.04,4.79,2.23,4.75,4.9-.04,2.61-2.14,4.71-4.75,4.75h-34.2Z"/><line id="Line_174" class="cls-1" x1="48.27" y1="62.36" x2="52.44" y2="62.36"/></g><g id="Group_10492"><path id="Path_21532" class="cls-1" d="m48.27,81.76c-2.67-.04-4.79-2.23-4.75-4.9.04-2.61,2.14-4.71,4.75-4.75h34.2c2.67.04,4.79,2.23,4.75,4.9-.04,2.61-2.14,4.71-4.75,4.75h-34.2Z"/><line id="Line_175" class="cls-1" x1="48.27" y1="76.93" x2="52.44" y2="76.93"/></g></g><line id="Line_176" class="cls-1" x1="65.36" y1="84.57" x2="65.36" y2="92.22"/></g></svg>