<?xml version="1.0" encoding="UTF-8"?><svg id="Layer_1" xmlns="http://www.w3.org/2000/svg" viewBox="0 0 100 100"><defs><style>.cls-1{fill:none;stroke:#7700ec;stroke-linecap:round;stroke-linejoin:round;}</style></defs><polyline class="cls-1" points="12.03 62.15 12.19 62.05 34.75 47.27"/><line class="cls-1" x1="87.42" y1="12.65" x2="65.21" y2="27.33"/><circle id="Ellipse_1" class="cls-1" cx="7.21" cy="65.39" r="5.98"/><circle id="Ellipse_2" class="cls-1" cx="92.79" cy="9.27" r="5.98"/><line class="cls-1" x1="12.18" y1="12.64" x2="34.77" y2="27.36"/><line class="cls-1" x1="87.12" y1="61.48" x2="65.27" y2="47.24"/><circle id="Ellipse_3" class="cls-1" cx="7.11" cy="9.42" r="5.98"/><circle id="Ellipse_4" class="cls-1" cx="92.89" cy="65.24" r="5.98"/><line class="cls-1" x1="76.4" y1="37.33" x2="68.21" y2="37.33"/><line class="cls-1" x1="31.79" y1="37.33" x2="22.31" y2="37.33"/><circle id="Ellipse_5" class="cls-1" cx="15.5" cy="37.33" r="6.81"/><circle id="Ellipse_6" class="cls-1" cx="83.2" cy="37.33" r="6.81"/><path class="cls-1" d="m65.21,27.33c-3.24-4.95-8.84-8.21-15.21-8.21s-11.99,3.28-15.23,8.24c-1.89,2.87-2.98,6.29-2.98,9.97s1.08,7.08,2.96,9.94c3.24,4.98,8.86,8.27,15.25,8.27,1.3,0,2.57-.14,3.79-.4v-6.58c0-1.99,1.61-3.59,3.59-3.59,1,0,1.9.4,2.55,1.05s1.05,1.54,1.05,2.54v3.3c1.69-1.28,3.15-2.84,4.29-4.62,1.86-2.85,2.94-6.25,2.94-9.91s-1.1-7.13-3-10Zm-8.4,5.5c.86,1.33,1.32,2.9,1.3,4.5,0,1.15-.27,2.32-.81,3.43-.16.33-.34.63-.54.93-2.2,3.35-6.59,4.62-10.29,2.83-1.35-.66-2.44-1.64-3.22-2.81-.86-1.3-1.33-2.82-1.35-4.38,0-1.22.25-2.47.82-3.64.14-.29.3-.57.48-.84"/><path class="cls-1" d="m47.31,29.59c-1.7.6-3.15,1.75-4.11,3.26"/><path class="cls-1" d="m56.81,32.83c-.78-1.21-1.88-2.22-3.27-2.89"/><g id="Group_2055"><path id="Path_1461" class="cls-1" d="m40.13,69.22v-4.32c0-1.69-1.37-3.05-3.05-3.05h0c-1.69,0-3.05,1.37-3.05,3.05v12.22s-.36,7.37.36,8.09c0,.72.72,3.59,4.32,5.75v5.75"/><path id="Path_1462" class="cls-1" d="m47.32,65.98v-4.23c0-1.98-1.61-3.59-3.59-3.59h0c-1.98,0-3.59,1.61-3.59,3.59h0v4.23"/><path id="Path_1463" class="cls-1" d="m47.32,69.21v-9.68c0-1.79,1.45-3.24,3.24-3.24h0c1.79,0,3.24,1.45,3.24,3.24v6.09"/><path class="cls-1" d="m60.98,51.86v17.54s5.75-1.44,5.03,4.32c-2.16,4.32-6.47,16.53-11.5,18.69v3.59"/><polyline class="cls-1" points="53.79 55.14 53.79 59.37 53.79 69.4"/></g><path id="Path_1465" class="cls-1" d="m46.09,28.63l1.69.44-.44,1.69"/></svg>