<?xml version="1.0" encoding="UTF-8"?><svg id="Layer_1" xmlns="http://www.w3.org/2000/svg" viewBox="0 0 150 150"><defs><style>.cls-1{fill:none;stroke:#7701ec;stroke-linecap:round;stroke-linejoin:round;}</style></defs><polyline class="cls-1" points="129.56 20.43 138.98 20.43 138.98 112.77"/><polyline class="cls-1" points="11.02 112.77 11.02 20.43 124.53 20.43"/><path class="cls-1" d="m149.05,117.82v1.67c0,5.57-4.52,10.07-10.07,10.07H11.02c-5.55,0-10.07-4.5-10.07-10.07v-1.67c0-2.78,2.25-5.05,5.04-5.05h54.96v1.69c0,2.78,2.25,5.04,5.04,5.04h18.04c2.78,0,5.04-2.25,5.04-5.04v-1.69h54.96c2.78,0,5.04,2.27,5.04,5.05Z"/><line class="cls-1" x1="138.98" y1="42.26" x2="11.02" y2="42.26"/><polygon class="cls-1" points="33.51 20.43 25.02 42.26 32.54 42.26 41.04 20.43 33.51 20.43"/><polygon class="cls-1" points="54.5 20.43 46 42.26 53.53 42.26 62.02 20.43 54.5 20.43"/><polygon class="cls-1" points="75.48 20.43 66.99 42.26 74.52 42.26 83.01 20.43 75.48 20.43"/><polygon class="cls-1" points="96.47 20.43 87.98 42.26 95.5 42.26 104 20.43 96.47 20.43"/><polygon class="cls-1" points="117.46 20.43 108.96 42.26 116.49 42.26 124.99 20.43 117.46 20.43"/><path class="cls-1" d="m81.45,54.41s-3.53,2.66-4.52,7.23c-.63-.09-1.28-.12-1.93-.12s-1.3.03-1.93.12c-.99-4.57-4.52-7.23-4.52-7.23,0,0,2.37-2.39,6.45-2.39s6.45,2.39,6.45,2.39Z"/><path class="cls-1" d="m65.07,64.95c-1.01.8-1.93,1.72-2.73,2.75-3.94-2.56-8.31-1.95-8.31-1.95,0,0,0-3.36,2.88-6.24,2.88-2.87,6.24-2.87,6.24-2.87,0,0-.63,4.37,1.91,8.31Z"/><path class="cls-1" d="m58.93,77.61c0,.65.03,1.3.12,1.93-4.59.99-7.25,4.52-7.25,4.52,0,0-2.37-2.39-2.37-6.45s2.37-6.47,2.37-6.47c0,0,2.66,3.53,7.25,4.5-.09.63-.12,1.3-.12,1.96Z"/><path class="cls-1" d="m63.16,98.58s-3.36-.02-6.24-2.88c-2.88-2.88-2.88-6.24-2.88-6.24,0,0,4.37.61,8.31-1.95.8,1.02,1.71,1.95,2.73,2.75-2.54,3.94-1.91,8.33-1.91,8.33Z"/><path class="cls-1" d="m81.45,100.82s-2.37,2.37-6.45,2.37-6.45-2.37-6.45-2.37c0,0,3.53-2.66,4.52-7.25.63.09,1.28.12,1.93.12s1.3-.03,1.93-.12c.99,4.59,4.52,7.25,4.52,7.25Z"/><path class="cls-1" d="m95.97,89.45s0,3.36-2.88,6.24c-2.88,2.87-6.24,2.88-6.24,2.88,0,0,.63-4.38-1.91-8.33,1.02-.8,1.93-1.72,2.73-2.75,3.94,2.56,8.31,1.95,8.31,1.95Z"/><path class="cls-1" d="m100.57,77.61c0,4.06-2.37,6.45-2.37,6.45,0,0-2.66-3.53-7.25-4.52.09-.63.12-1.28.12-1.93s-.03-1.33-.12-1.96c4.59-.97,7.25-4.5,7.25-4.5,0,0,2.37,2.39,2.37,6.47Z"/><path class="cls-1" d="m95.97,65.76s-4.37-.61-8.31,1.95c-.8-1.02-1.72-1.95-2.73-2.75,2.54-3.94,1.91-8.31,1.91-8.31,0,0,3.36,0,6.24,2.88,2.88,2.87,2.88,6.23,2.88,6.23Z"/><path class="cls-1" d="m91.07,77.61c0,.65-.03,1.3-.12,1.93-.36,2.99-1.54,5.72-3.29,7.97-.8,1.02-1.71,1.95-2.73,2.75-2.25,1.76-5,2.95-8,3.31-.63.09-1.28.12-1.93.12s-1.3-.03-1.93-.12c-3-.36-5.75-1.55-8-3.31-1.02-.8-1.93-1.72-2.73-2.75-1.76-2.25-2.93-4.98-3.29-7.97-.09-.63-.12-1.28-.12-1.93s.03-1.33.12-1.96c.36-2.99,1.55-5.7,3.29-7.95.8-1.02,1.72-1.95,2.73-2.75,2.25-1.77,5-2.95,8-3.31.63-.09,1.28-.12,1.93-.12s1.3.03,1.93.12c3,.36,5.75,1.54,8,3.31,1.01.8,1.93,1.72,2.73,2.75,1.74,2.25,2.93,4.96,3.29,7.95.09.63.12,1.3.12,1.96Z"/><path class="cls-1" d="m75,84.06c-3.56,0-6.45-2.89-6.45-6.45s2.89-6.45,6.45-6.45,6.45,2.89,6.45,6.45"/></svg>