<?xml version="1.0" encoding="UTF-8"?><svg id="Layer_1" xmlns="http://www.w3.org/2000/svg" viewBox="0 0 150 150"><defs><style>.cls-1{fill:none;stroke:#ff8200;stroke-linecap:round;stroke-linejoin:round;}</style></defs><line class="cls-1" x1="88.58" y1="66.65" x2="69.46" y2="66.65"/><path class="cls-1" d="m64.46,66.4c.07,0,.13.06.13.13s-.06.13-.13.13-.13-.06-.13-.13.06-.13.13-.13Z"/><path class="cls-1" d="m52.15,99.71c-1.38,1.36-2.14,2.86-2.14,4.44v13.09c-4.31,1.54-9.83,2.47-15.83,2.47-13.81,0-24.99-4.89-24.99-10.93v-16.67c0,6.04,11.18,10.94,24.99,10.94,7.06,0,13.44-1.29,17.98-3.35Z"/><line class="cls-1" x1="32.72" y1="110.69" x2="35.63" y2="110.69"/><path class="cls-1" d="m140.82,92.12v16.67c0,6.04-11.18,10.93-24.99,10.93-6.01,0-11.52-.93-15.83-2.47v-13.09c0-1.58-.77-3.08-2.14-4.44,4.53,2.06,10.92,3.35,17.98,3.35,13.81,0,24.99-4.9,24.99-10.94Z"/><line class="cls-1" x1="114.37" y1="110.69" x2="117.28" y2="110.69"/><path class="cls-1" d="m140.82,75.46c0,3.34-3.42,6.32-8.81,8.33-4.36,1.61-10.01,2.59-16.18,2.59s-11.81-.98-16.17-2.59c-5.4-2.01-8.82-4.99-8.82-8.33,0-6.05,11.19-10.94,24.99-10.94s24.99,4.89,24.99,10.94Z"/><line class="cls-1" x1="114.37" y1="94.03" x2="117.28" y2="94.03"/><path class="cls-1" d="m36.5,26.62H6.63c-2.76,0-5,2.24-5,5v89.57c0,2.76,2.24,5,5,5h38.38"/><path class="cls-1" d="m116.48,26.62h26.89c2.76,0,5,2.24,5,5v89.57c0,2.76-2.24,5-5,5h-38.38"/><path class="cls-1" d="m116.48,47.25v9.4c0,2.76-2.24,5-5,5h-22.9"/><path class="cls-1" d="m83.58,61.65h-37.09c-2.76,0-5-2.24-5-5v-8.86"/><rect class="cls-1" x="41.49" y="1.59" width="74.99" height="50.06" rx="4.4" ry="4.4"/><path class="cls-1" d="m99.99,120.81v16.67c0,6.04-11.18,10.93-24.99,10.93s-24.99-4.89-24.99-10.93v-16.67c0,6.04,11.18,10.94,24.99,10.94s24.99-4.9,24.99-10.94Z"/><line class="cls-1" x1="73.54" y1="139.38" x2="76.46" y2="139.38"/><path class="cls-1" d="m99.99,104.15v16.66c0,6.04-11.18,10.94-24.99,10.94s-24.99-4.9-24.99-10.94v-16.66c0,3.16,3.05,6.01,7.96,8,.29.11.57.22.87.34,4.35,1.61,10,2.59,16.17,2.59s11.82-.98,16.17-2.59c.3-.11.58-.22.87-.34,4.9-1.99,7.96-4.84,7.96-8Z"/><path class="cls-1" d="m99.99,104.15c0,3.16-3.05,6.01-7.96,8-.29.11-.57.22-.87.34-4.35,1.61-10,2.59-16.17,2.59s-11.82-.98-16.17-2.59c-.3-.11-.58-.22-.87-.34-4.9-1.99-7.96-4.84-7.96-8,0-1.58.77-3.08,2.14-4.44,2.03-.91,3.69-1.98,4.88-3.17.66-.3,1.38-.59,2.13-.86,4.31-1.54,9.83-2.47,15.83-2.47s11.52.93,15.83,2.47c.76.27,1.47.56,2.13.86,2.02.92,3.69,1.99,4.88,3.17,1.38,1.36,2.14,2.86,2.14,4.44Z"/><line class="cls-1" x1="73.54" y1="122.72" x2="76.46" y2="122.72"/><path class="cls-1" d="m140.82,75.46v16.66c0,6.04-11.18,10.94-24.99,10.94s-24.99-4.9-24.99-10.94v-16.66c0,3.34,3.42,6.32,8.82,8.33,4.36,1.61,10.01,2.59,16.17,2.59s11.82-.98,16.18-2.59c5.39-2.01,8.81-4.99,8.81-8.33Z"/><path class="cls-1" d="m59.17,75.46v16.66c0,1.57-.77,3.07-2.13,4.42-1.2,1.18-2.85,2.26-4.88,3.17-4.53,2.06-10.92,3.35-17.98,3.35-13.81,0-24.99-4.9-24.99-10.94v-16.66c0,3.34,3.42,6.32,8.81,8.33,4.36,1.61,10.01,2.59,16.18,2.59s11.81-.98,16.17-2.59c5.4-2.01,8.82-4.99,8.82-8.33Z"/><path class="cls-1" d="m59.17,75.46c0,3.34-3.42,6.32-8.82,8.33-4.36,1.61-10.01,2.59-16.17,2.59s-11.82-.98-16.18-2.59c-5.39-2.01-8.81-4.99-8.81-8.33,0-6.05,11.18-10.94,24.99-10.94s24.99,4.89,24.99,10.94Z"/><line class="cls-1" x1="32.72" y1="94.03" x2="35.63" y2="94.03"/><line class="cls-1" x1="51.49" y1="14.39" x2="81.25" y2="14.39"/><line class="cls-1" x1="51.49" y1="19.39" x2="81.25" y2="19.39"/><line class="cls-1" x1="51.49" y1="24.39" x2="100" y2="24.39"/></svg>