<?xml version="1.0" encoding="UTF-8"?><svg id="Layer_1" xmlns="http://www.w3.org/2000/svg" viewBox="0 0 150 150"><defs><style>.cls-1{fill:none;stroke:#ff8200;stroke-linecap:round;stroke-linejoin:round;}</style></defs><line class="cls-1" x1="141.65" y1="136.19" x2="56.03" y2="136.19"/><line class="cls-1" x1="41.8" y1="136.19" x2="8.34" y2="136.19"/><path class="cls-1" d="m80.01,43.55v3.7c.07.74-.34,1.75-.9,2.24l-6.99,6.29c-.55.49-.7,1.4-.33,2.04l5.31,9.22c.1.17.24.32.4.44H20.45c-6.69,0-12.11-5.42-12.11-12.11s5.42-12.11,12.11-12.11h56.94c.9,0,1.78.1,2.62.29Z"/><line class="cls-1" x1="20.45" y1="55.37" x2="30.92" y2="55.37"/><path class="cls-1" d="m20.45,104.05c-6.69,0-12.11-5.42-12.11-12.11s5.42-12.11,12.11-12.11h56.94c6.69,0,12.11,5.42,12.11,12.11s-5.42,12.11-12.11,12.11H20.45Z"/><line class="cls-1" x1="20.45" y1="91.94" x2="30.92" y2="91.94"/><line class="cls-1" x1="48.92" y1="111.1" x2="48.92" y2="129.08"/><path class="cls-1" d="m141.12,55.79c.55.49.71,1.4.34,2.04l-5.31,9.2c-.37.64-1.24.97-1.93.73l-8.96-2.9c-.7-.24-1.77-.09-2.38.34l-5.9,3.4c-.67.31-1.34,1.16-1.48,1.89l-1.95,9.2c-.14.72-.86,1.31-1.59,1.31h-10.67c-.73,0-1.45-.59-1.59-1.31l-1.95-9.2c-.14-.73-.81-1.58-1.48-1.9l-5.9-3.39c-.61-.43-1.68-.58-2.38-.34l-8.95,2.9c-.51.18-1.11.05-1.54-.28-.16-.12-.3-.27-.4-.44l-5.31-9.22c-.37-.64-.22-1.55.33-2.04l6.99-6.29c.56-.49.97-1.5.9-2.24v-6.8c.07-.74-.34-1.75-.9-2.24l-6.98-6.3c-.56-.48-.71-1.4-.34-2.04l5.31-9.2c.37-.64,1.24-.96,1.93-.73l8.96,2.9c.7.24,1.77.09,2.38-.34l5.9-3.4c.67-.31,1.34-1.16,1.48-1.89l1.95-9.2c.14-.72.86-1.31,1.59-1.31h10.67c.73,0,1.45.59,1.59,1.31l1.95,9.2c.14.73.81,1.58,1.48,1.9l5.9,3.4c.61.42,1.68.57,2.38.33l8.95-2.9c.7-.24,1.57.09,1.93.72l5.32,9.22c.37.64.22,1.56-.33,2.04l-7,6.3c-.55.49-.96,1.49-.89,2.23v6.81c-.07.73.33,1.74.89,2.23l6.99,6.3Z"/><path class="cls-1" d="m119.55,43.85c0,7.14-5.78,12.92-12.92,12.92s-12.92-5.79-12.92-12.92,5.78-12.92,12.92-12.92"/><path class="cls-1" d="m56.03,136.19c0,3.93-3.18,7.11-7.11,7.11s-7.12-3.18-7.12-7.11,3.19-7.11,7.12-7.11,7.11,3.18,7.11,7.11Z"/></svg>