<?xml version="1.0" encoding="UTF-8"?><svg id="Layer_2" xmlns="http://www.w3.org/2000/svg" viewBox="0 0 819.44 469.61"><defs><style>.cls-1{fill:#00d87d;}.cls-1,.cls-2,.cls-3{stroke-width:0px;}.cls-2{fill:#8f37f4;}.cls-3{fill:#fff;}</style></defs><g id="Layer_1-2"><path class="cls-3" d="M67.14,0v18h-21.8v62.75h-21.23V18H2.31V0h64.83Z"/><path class="cls-3" d="M135.19,48.91v31.84h-19.96v-31.03c0-4.38-.79-7.69-2.37-9.92-1.58-2.23-4.06-3.35-7.44-3.35s-6.13,1.15-8.02,3.46c-1.88,2.31-2.83,5.58-2.83,9.8v31.03h-19.96V0h19.96v27.34c2-2.23,4.33-3.92,6.98-5.08,2.65-1.15,5.86-1.73,9.63-1.73,6.92,0,12.65,2.15,17.19,6.46s6.81,11.61,6.81,21.92Z"/><path class="cls-3" d="M204.63,80.75h-10.04c-3.92,0-6.77-.83-8.54-2.48s-2.65-3.9-2.65-6.75v-.46c-2.23,3.46-4.88,6.06-7.96,7.79s-6.77,2.6-11.07,2.6c-6.69,0-12.09-1.52-16.21-4.56-4.11-3.04-6.17-7.36-6.17-12.98,0-6.54,2.5-11.57,7.5-15.11,5-3.54,12.23-5.31,21.69-5.31h8.77v-2.31c0-2.08-.83-3.75-2.48-5.02-1.65-1.27-3.83-1.9-6.52-1.9-2.46,0-4.48.52-6.06,1.56-1.58,1.04-2.44,2.44-2.6,4.21h-19.15c.54-6.23,3.35-11.04,8.42-14.42,5.08-3.38,11.84-5.08,20.3-5.08s15.69,1.85,20.53,5.54c4.84,3.69,7.27,9.11,7.27,16.26v18.46c0,1.38.29,2.33.86,2.83.58.5,1.52.75,2.83.75h1.27v16.38ZM171.52,55.83c-2.92,0-5.23.6-6.92,1.79-1.69,1.19-2.54,2.79-2.54,4.79,0,1.62.6,2.9,1.79,3.86,1.19.96,2.79,1.44,4.79,1.44,3.38,0,6.09-1.06,8.13-3.17,2.04-2.11,3.09-4.94,3.17-8.48v-.23h-8.42Z"/><path class="cls-3" d="M270.96,48.91v31.84h-19.96v-30.8c0-4.54-.77-7.92-2.31-10.15-1.54-2.23-4.04-3.35-7.5-3.35s-6.13,1.15-8.02,3.46c-1.88,2.31-2.83,5.65-2.83,10.04v30.8h-19.96V21.23h17.53l1.5,7.15c2.08-2.54,4.54-4.48,7.38-5.83s6.31-2.02,10.38-2.02c6.84,0,12.52,2.13,17.01,6.4,4.5,4.27,6.75,11.59,6.75,21.98Z"/><path class="cls-3" d="M300.14,0v43.03l19.84-21.8h21.92l-20.42,22.72,21.23,36.8h-22.72l-12.57-21.92-7.27,8.08v13.84h-19.96V0h19.96Z"/><path class="cls-3" d="M394.6,0l15,29.42L425.87,0h23.53l-29.19,50.76v29.99h-21.23v-29.99L369.8,0h24.8Z"/><path class="cls-3" d="M445.76,67.02c-2.65-4.61-3.98-9.96-3.98-16.03s1.33-11.42,3.98-16.04,6.42-8.17,11.31-10.67c4.88-2.5,10.59-3.75,17.13-3.75s12.25,1.25,17.13,3.75c4.88,2.5,8.65,6.06,11.3,10.67s3.98,9.96,3.98,16.04-1.33,11.42-3.98,16.03-6.42,8.17-11.3,10.67c-4.88,2.5-10.59,3.75-17.13,3.75s-12.25-1.25-17.13-3.75c-4.88-2.5-8.65-6.06-11.31-10.67ZM486.31,50.99c0-4.38-1.08-7.9-3.23-10.56s-5.11-3.98-8.88-3.98-6.73,1.33-8.88,3.98c-2.15,2.65-3.23,6.17-3.23,10.56s1.08,7.9,3.23,10.55c2.15,2.65,5.11,3.98,8.88,3.98s6.73-1.33,8.88-3.98,3.23-6.17,3.23-10.55Z"/><path class="cls-3" d="M573.28,80.75h-17.76l-1.5-6.81c-2.15,2.46-4.56,4.33-7.21,5.59-2.65,1.27-5.9,1.9-9.75,1.9-6.84,0-12.5-2.13-16.96-6.4-4.46-4.27-6.69-11.59-6.69-21.98v-31.84h19.96v29.07c0,5.08.73,8.84,2.19,11.3,1.46,2.46,3.88,3.69,7.27,3.69s5.88-1.29,7.73-3.86,2.77-6.29,2.77-11.13v-29.07h19.96v59.52Z"/><rect class="cls-2" x="0" y="127.48" width="60.53" height="10.36"/><path class="cls-3" d="M39.04,190.6v9.63H15.75v12.24h19.11v9.18H15.75v21.2H4.55v-52.25h34.49Z"/><path class="cls-3" d="M42.66,233.97c-1.67-2.99-2.5-6.42-2.5-10.3s.83-7.32,2.5-10.3c1.67-2.99,4.03-5.29,7.09-6.9s6.61-2.43,10.64-2.43,7.58.81,10.64,2.43,5.42,3.92,7.09,6.9c1.67,2.99,2.5,6.42,2.5,10.3s-.83,7.38-2.5,10.34-4.03,5.25-7.09,6.87c-3.06,1.62-6.61,2.43-10.64,2.43s-7.58-.81-10.64-2.43c-3.06-1.62-5.42-3.92-7.09-6.9ZM69.95,223.67c0-3.29-.86-5.95-2.58-7.99-1.72-2.04-4.04-3.06-6.98-3.06s-5.19,1.02-6.9,3.06c-1.72,2.04-2.58,4.7-2.58,7.99s.86,5.95,2.58,7.99c1.72,2.04,4.02,3.06,6.9,3.06s5.26-1.02,6.98-3.06c1.72-2.04,2.58-4.7,2.58-7.99Z"/><path class="cls-3" d="M109.81,214.04h-4.18c-2.99,0-5.18.9-6.57,2.69-1.39,1.79-2.09,4.23-2.09,7.32v18.81h-10.53v-38.37h9.55l.97,5.75c1.14-1.89,2.56-3.32,4.25-4.29,1.69-.97,3.96-1.46,6.79-1.46h1.79v9.55Z"/><path class="cls-3" d="M149.82,232.03l9.11-27.54h11.27l-17.02,43.82c-.9,2.34-1.74,4.17-2.54,5.49-.8,1.32-1.8,2.31-3.02,2.99-1.22.67-2.8,1.01-4.74,1.01h-10.23v-8.88h5.82c1.34,0,2.31-.22,2.91-.67.6-.45,1.17-1.32,1.72-2.61l.97-2.54-14.78-38.59h11.2l9.33,27.54Z"/><path class="cls-3" d="M173.3,233.97c-1.67-2.99-2.5-6.42-2.5-10.3s.83-7.32,2.5-10.3c1.67-2.99,4.03-5.29,7.09-6.9s6.61-2.43,10.64-2.43,7.58.81,10.64,2.43,5.42,3.92,7.09,6.9c1.67,2.99,2.5,6.42,2.5,10.3s-.83,7.38-2.5,10.34-4.03,5.25-7.09,6.87c-3.06,1.62-6.61,2.43-10.64,2.43s-7.58-.81-10.64-2.43c-3.06-1.62-5.42-3.92-7.09-6.9ZM200.59,223.67c0-3.29-.86-5.95-2.58-7.99-1.72-2.04-4.04-3.06-6.98-3.06s-5.19,1.02-6.9,3.06c-1.72,2.04-2.58,4.7-2.58,7.99s.86,5.95,2.58,7.99c1.72,2.04,4.02,3.06,6.9,3.06s5.26-1.02,6.98-3.06c1.72-2.04,2.58-4.7,2.58-7.99Z"/><path class="cls-3" d="M253.21,242.85h-9.33l-.97-4.63c-1.34,1.59-2.91,2.84-4.7,3.73-1.79.9-3.98,1.34-6.57,1.34-4.48,0-8.14-1.38-10.97-4.14-2.84-2.76-4.25-7.38-4.25-13.85v-20.83h10.52v19.56c0,3.48.61,6.11,1.83,7.88,1.22,1.77,3.1,2.65,5.64,2.65s4.68-.98,6.12-2.95,2.17-4.71,2.17-8.25v-18.89h10.52v38.37Z"/><path class="cls-3" d="M283.9,214.04h-4.18c-2.99,0-5.18.9-6.57,2.69-1.39,1.79-2.09,4.23-2.09,7.32v18.81h-10.53v-38.37h9.55l.97,5.75c1.14-1.89,2.56-3.32,4.25-4.29,1.69-.97,3.96-1.46,6.79-1.46h1.79v9.55Z"/><path class="cls-3" d="M318.46,194.41c0,1.69-.57,3.11-1.72,4.25s-2.59,1.72-4.33,1.72-3.2-.57-4.37-1.72c-1.17-1.14-1.75-2.56-1.75-4.25s.58-3.1,1.75-4.22c1.17-1.12,2.62-1.68,4.37-1.68s3.18.56,4.33,1.68c1.14,1.12,1.72,2.53,1.72,4.22ZM317.64,204.48v38.37h-10.53v-38.37h10.53Z"/><path class="cls-3" d="M362.35,222.03v20.83h-10.53v-20.23c0-6.62-2.59-9.93-7.76-9.93-2.74,0-4.85.92-6.34,2.76-1.49,1.84-2.24,4.43-2.24,7.76v19.63h-10.53v-38.37h9.18l.97,4.78c1.34-1.64,2.96-2.92,4.85-3.84,1.89-.92,4.23-1.38,7.02-1.38,4.48,0,8.16,1.39,11.05,4.18,2.89,2.79,4.33,7.39,4.33,13.81Z"/><path class="cls-3" d="M365.12,213.37v-8.88h6.34v-10.75h10.53v10.75h8.73v8.88h-8.73v16.8c0,1.34.29,2.31.86,2.91.57.6,1.53.9,2.87.9h5.45v8.88h-8.73c-7.32,0-10.97-3.66-10.97-10.97v-18.51h-6.34Z"/><path class="cls-3" d="M402.71,206.46c2.91-1.62,6.28-2.43,10.11-2.43s7.3.76,10.26,2.28,5.28,3.66,6.94,6.42c1.67,2.76,2.53,6.01,2.58,9.74,0,1.34-.1,2.54-.3,3.58h-27.84v.3c.25,2.79,1.14,4.98,2.69,6.57,1.54,1.59,3.66,2.39,6.34,2.39,2.14,0,3.92-.46,5.34-1.38,1.42-.92,2.35-2.28,2.8-4.07h10.38c-.4,2.54-1.37,4.83-2.91,6.87-1.54,2.04-3.58,3.65-6.12,4.81-2.54,1.17-5.45,1.75-8.73,1.75-4.28,0-7.97-.8-11.08-2.39-3.11-1.59-5.5-3.87-7.17-6.83s-2.5-6.41-2.5-10.34.81-7.45,2.43-10.41,3.88-5.25,6.79-6.87ZM419.2,213.78c-1.57-1.27-3.54-1.9-5.93-1.9s-4.22.66-5.79,1.98-2.5,3.1-2.8,5.34h17.39c-.35-2.34-1.31-4.14-2.87-5.41Z"/><path class="cls-3" d="M461.71,214.04h-4.18c-2.99,0-5.18.9-6.57,2.69-1.39,1.79-2.09,4.23-2.09,7.32v18.81h-10.53v-38.37h9.55l.97,5.75c1.14-1.89,2.56-3.32,4.25-4.29,1.69-.97,3.96-1.46,6.79-1.46h1.79v9.55Z"/><path class="cls-3" d="M472.88,206.46c2.91-1.62,6.28-2.43,10.11-2.43s7.3.76,10.26,2.28,5.28,3.66,6.94,6.42c1.67,2.76,2.53,6.01,2.58,9.74,0,1.34-.1,2.54-.3,3.58h-27.84v.3c.25,2.79,1.14,4.98,2.69,6.57,1.54,1.59,3.66,2.39,6.34,2.39,2.14,0,3.92-.46,5.34-1.38,1.42-.92,2.35-2.28,2.8-4.07h10.38c-.4,2.54-1.37,4.83-2.91,6.87-1.54,2.04-3.58,3.65-6.12,4.81-2.54,1.17-5.45,1.75-8.73,1.75-4.28,0-7.97-.8-11.08-2.39-3.11-1.59-5.5-3.87-7.17-6.83s-2.5-6.41-2.5-10.34.81-7.45,2.43-10.41,3.88-5.25,6.79-6.87ZM489.37,213.78c-1.57-1.27-3.54-1.9-5.93-1.9s-4.22.66-5.79,1.98-2.5,3.1-2.8,5.34h17.39c-.35-2.34-1.31-4.14-2.87-5.41Z"/><path class="cls-3" d="M519.27,234.19c1.49,1.04,3.41,1.57,5.75,1.57s4.01-.36,5.3-1.08,1.94-1.75,1.94-3.1c0-1-.3-1.74-.9-2.24-.6-.5-1.44-.86-2.54-1.08-1.09-.22-2.89-.48-5.37-.78-3.38-.45-6.2-1.02-8.44-1.72-2.24-.7-4.03-1.79-5.37-3.28-1.34-1.49-2.02-3.48-2.02-5.97s.68-4.69,2.05-6.61,3.3-3.4,5.79-4.44,5.35-1.57,8.58-1.57c5.23.05,9.44,1.17,12.65,3.36,3.21,2.19,4.94,5.23,5.19,9.11h-10c-.15-1.44-.91-2.62-2.28-3.55-1.37-.92-3.12-1.38-5.26-1.38-1.99,0-3.6.37-4.81,1.12-1.22.75-1.83,1.74-1.83,2.99,0,.9.32,1.57.97,2.02.65.45,1.49.77,2.54.97,1.04.2,2.79.42,5.22.67,5.18.6,9.14,1.71,11.91,3.32s4.14,4.39,4.14,8.32c0,2.49-.73,4.68-2.2,6.57-1.47,1.89-3.51,3.35-6.12,4.37-2.61,1.02-5.64,1.53-9.07,1.53-5.32,0-9.65-1.18-12.99-3.55-3.33-2.36-5.1-5.59-5.3-9.67h10c.15,1.69.97,3.06,2.46,4.11Z"/><path class="cls-3" d="M544.66,213.37v-8.88h6.34v-10.75h10.53v10.75h8.73v8.88h-8.73v16.8c0,1.34.29,2.31.86,2.91.57.6,1.53.9,2.87.9h5.45v8.88h-8.73c-7.32,0-10.97-3.66-10.97-10.97v-18.51h-6.34Z"/><path class="cls-3" d="M604.97,194.41c0,1.69-.57,3.11-1.72,4.25s-2.59,1.72-4.33,1.72-3.2-.57-4.37-1.72c-1.17-1.14-1.75-2.56-1.75-4.25s.58-3.1,1.75-4.22c1.17-1.12,2.62-1.68,4.37-1.68s3.18.56,4.33,1.68c1.14,1.12,1.72,2.53,1.72,4.22ZM604.15,204.48v38.37h-10.53v-38.37h10.53Z"/><path class="cls-3" d="M648.87,222.03v20.83h-10.53v-20.23c0-6.62-2.59-9.93-7.76-9.93-2.74,0-4.85.92-6.34,2.76-1.49,1.84-2.24,4.43-2.24,7.76v19.63h-10.53v-38.37h9.18l.97,4.78c1.34-1.64,2.96-2.92,4.85-3.84,1.89-.92,4.23-1.38,7.02-1.38,4.48,0,8.16,1.39,11.05,4.18,2.89,2.79,4.33,7.39,4.33,13.81Z"/><path class="cls-1" d="M22.69,261.21c5.23,0,9.84,1.11,13.85,3.32,4.01,2.21,7.09,5.3,9.26,9.26,2.17,3.96,3.25,8.47,3.25,13.55s-1.08,9.59-3.25,13.55c-2.16,3.96-5.25,7.04-9.26,9.26-4.01,2.21-8.62,3.32-13.85,3.32H4.55v-52.25h18.14ZM33.7,299.54c2.61-3.06,3.92-7.13,3.92-12.2s-1.31-9.14-3.92-12.21-6.28-4.59-11.01-4.59h-6.94v33.59h6.94c4.73,0,8.4-1.53,11.01-4.59Z"/><path class="cls-1" d="M66.44,265.02c0,1.69-.57,3.11-1.72,4.25s-2.59,1.72-4.33,1.72-3.2-.57-4.37-1.72c-1.17-1.14-1.75-2.56-1.75-4.25s.58-3.1,1.75-4.22c1.17-1.12,2.62-1.68,4.37-1.68s3.18.56,4.33,1.68c1.14,1.12,1.72,2.53,1.72,4.22ZM65.62,275.09v38.37h-10.53v-38.37h10.53Z"/><path class="cls-1" d="M111.3,312.34c0,5.03-1.67,9.03-5,12.02-3.33,2.99-8.51,4.48-15.53,4.48-5.42,0-9.8-1.19-13.14-3.58s-5.13-5.77-5.38-10.15h10.6c.5,1.84,1.48,3.26,2.95,4.25,1.47,1,3.4,1.49,5.79,1.49,2.99,0,5.3-.75,6.94-2.24,1.64-1.49,2.46-3.71,2.46-6.64v-4.03c-2.79,3.53-6.74,5.3-11.87,5.3-3.38,0-6.42-.8-9.11-2.39-2.69-1.59-4.79-3.84-6.31-6.76s-2.28-6.31-2.28-10.19.76-7.22,2.28-10.15c1.52-2.94,3.63-5.2,6.34-6.79s5.76-2.39,9.14-2.39c5.03,0,9.01,1.94,11.94,5.82l.9-5.3h9.26v37.25ZM100.93,294.05c0-3.23-.85-5.87-2.54-7.91-1.69-2.04-3.96-3.06-6.79-3.06s-5.11,1.01-6.83,3.02c-1.72,2.01-2.58,4.64-2.58,7.88s.86,5.85,2.58,7.84c1.72,1.99,3.99,2.99,6.83,2.99s5.1-1,6.79-2.99c1.69-1.99,2.54-4.58,2.54-7.76Z"/><path class="cls-1" d="M129.97,265.02c0,1.69-.57,3.11-1.72,4.25s-2.59,1.72-4.33,1.72-3.2-.57-4.37-1.72c-1.17-1.14-1.75-2.56-1.75-4.25s.58-3.1,1.75-4.22c1.17-1.12,2.62-1.68,4.37-1.68s3.18.56,4.33,1.68c1.14,1.12,1.72,2.53,1.72,4.22ZM129.15,275.09v38.37h-10.53v-38.37h10.53Z"/><path class="cls-1" d="M132.58,283.98v-8.88h6.34v-10.75h10.53v10.75h8.73v8.88h-8.73v16.8c0,1.34.29,2.31.86,2.91.57.6,1.53.9,2.87.9h5.45v8.88h-8.73c-7.32,0-10.97-3.66-10.97-10.97v-18.51h-6.34Z"/><path class="cls-1" d="M200.59,313.46h-5.38c-4.83,0-7.19-2.09-7.09-6.27-1.39,2.19-3.11,3.86-5.15,5-2.04,1.14-4.5,1.72-7.39,1.72-4.28,0-7.73-.98-10.34-2.95-2.61-1.97-3.92-4.74-3.92-8.32,0-4.08,1.5-7.23,4.52-9.44,3.01-2.21,7.38-3.32,13.1-3.32h7.61v-1.87c0-1.74-.65-3.12-1.94-4.14-1.29-1.02-3.04-1.53-5.22-1.53-1.94,0-3.53.42-4.78,1.27s-1.99,1.99-2.24,3.43h-10.15c.35-3.93,2.09-6.98,5.23-9.14,3.13-2.17,7.29-3.25,12.47-3.25s9.62,1.19,12.58,3.58,4.44,5.85,4.44,10.38v13.51c0,.95.2,1.59.6,1.94s1.02.52,1.87.52h1.19v8.88ZM178.86,296.89c-2.19,0-3.89.44-5.11,1.31-1.22.87-1.83,2.1-1.83,3.69,0,1.34.51,2.41,1.53,3.21,1.02.8,2.4,1.19,4.14,1.19,2.74,0,4.9-.78,6.49-2.35s2.41-3.67,2.46-6.31v-.75h-7.69Z"/><path class="cls-1" d="M215.22,261.21v52.25h-10.53v-52.25h10.53Z"/><path class="cls-1" d="M251.76,264.05c3.86-2.19,8.4-3.28,13.62-3.28,4.08,0,7.74.8,10.97,2.39,3.24,1.59,5.85,3.83,7.84,6.72,1.99,2.89,3.19,6.22,3.58,10h-11.2c-.65-2.99-2-5.34-4.07-7.05s-4.64-2.58-7.73-2.58c-4.18,0-7.49,1.57-9.93,4.7-2.44,3.14-3.66,7.27-3.66,12.39s1.22,9.19,3.66,12.35,5.75,4.74,9.93,4.74c3.08,0,5.66-.86,7.73-2.58s3.42-4.07,4.07-7.05h11.2c-.4,3.78-1.59,7.12-3.58,10-1.99,2.89-4.6,5.13-7.84,6.72-3.23,1.59-6.89,2.39-10.97,2.39-5.23,0-9.77-1.09-13.62-3.29-3.86-2.19-6.82-5.29-8.88-9.29s-3.1-8.67-3.1-14,1.03-9.99,3.1-14,5.03-7.1,8.88-9.29Z"/><path class="cls-1" d="M294.46,304.58c-1.67-2.99-2.5-6.42-2.5-10.3s.83-7.32,2.5-10.3c1.67-2.99,4.03-5.29,7.09-6.9s6.61-2.43,10.64-2.43,7.58.81,10.64,2.43,5.42,3.92,7.09,6.9c1.67,2.99,2.5,6.42,2.5,10.3s-.83,7.38-2.5,10.34-4.03,5.25-7.09,6.87c-3.06,1.62-6.61,2.43-10.64,2.43s-7.58-.81-10.64-2.43c-3.06-1.62-5.42-3.92-7.09-6.9ZM321.75,294.28c0-3.29-.86-5.95-2.58-7.99-1.72-2.04-4.04-3.06-6.98-3.06s-5.19,1.02-6.9,3.06c-1.72,2.04-2.58,4.7-2.58,7.99s.86,5.95,2.58,7.99c1.72,2.04,4.02,3.06,6.9,3.06s5.26-1.02,6.98-3.06c1.72-2.04,2.58-4.7,2.58-7.99Z"/><path class="cls-1" d="M375.64,292.64v20.83h-10.53v-20.23c0-6.62-2.59-9.93-7.76-9.93-2.74,0-4.85.92-6.34,2.76-1.49,1.84-2.24,4.43-2.24,7.76v19.63h-10.53v-38.37h9.18l.97,4.78c1.34-1.64,2.96-2.92,4.85-3.84,1.89-.92,4.23-1.38,7.02-1.38,4.48,0,8.16,1.39,11.05,4.18,2.89,2.79,4.33,7.39,4.33,13.81Z"/><path class="cls-1" d="M419.69,292.64v20.83h-10.53v-20.23c0-6.62-2.59-9.93-7.76-9.93-2.74,0-4.85.92-6.34,2.76-1.49,1.84-2.24,4.43-2.24,7.76v19.63h-10.53v-38.37h9.18l.97,4.78c1.34-1.64,2.96-2.92,4.85-3.84,1.89-.92,4.23-1.38,7.02-1.38,4.48,0,8.16,1.39,11.05,4.18,2.89,2.79,4.33,7.39,4.33,13.81Z"/><path class="cls-1" d="M434.06,277.07c2.91-1.62,6.28-2.43,10.11-2.43s7.3.76,10.26,2.28,5.28,3.66,6.94,6.42c1.67,2.76,2.53,6.01,2.58,9.74,0,1.34-.1,2.54-.3,3.58h-27.84v.3c.25,2.79,1.14,4.98,2.69,6.57,1.54,1.59,3.66,2.39,6.34,2.39,2.14,0,3.92-.46,5.34-1.38,1.42-.92,2.35-2.28,2.8-4.07h10.38c-.4,2.54-1.37,4.83-2.91,6.87-1.54,2.04-3.58,3.65-6.12,4.81-2.54,1.17-5.45,1.75-8.73,1.75-4.28,0-7.97-.8-11.08-2.39-3.11-1.59-5.5-3.87-7.17-6.83s-2.5-6.41-2.5-10.34.81-7.45,2.43-10.41,3.88-5.25,6.79-6.87ZM450.56,284.39c-1.57-1.27-3.54-1.9-5.93-1.9s-4.22.66-5.79,1.98-2.5,3.1-2.8,5.34h17.39c-.35-2.34-1.31-4.14-2.87-5.41Z"/><path class="cls-1" d="M465.23,275.09h12.02l7.99,11.35,8.14-11.35h11.27l-13.51,18.81,14.26,19.56h-12.02l-8.81-12.02-8.73,12.02h-11.27l14.26-19.56-13.59-18.81Z"/><path class="cls-1" d="M520.54,265.02c0,1.69-.57,3.11-1.72,4.25s-2.59,1.72-4.33,1.72-3.2-.57-4.37-1.72c-1.17-1.14-1.75-2.56-1.75-4.25s.58-3.1,1.75-4.22c1.17-1.12,2.62-1.68,4.37-1.68s3.18.56,4.33,1.68c1.14,1.12,1.72,2.53,1.72,4.22ZM519.72,275.09v38.37h-10.53v-38.37h10.53Z"/><path class="cls-1" d="M528.05,304.58c-1.67-2.99-2.5-6.42-2.5-10.3s.83-7.32,2.5-10.3c1.67-2.99,4.03-5.29,7.09-6.9s6.61-2.43,10.64-2.43,7.58.81,10.64,2.43,5.42,3.92,7.09,6.9c1.67,2.99,2.5,6.42,2.5,10.3s-.83,7.38-2.5,10.34-4.03,5.25-7.09,6.87c-3.06,1.62-6.61,2.43-10.64,2.43s-7.58-.81-10.64-2.43c-3.06-1.62-5.42-3.92-7.09-6.9ZM555.33,294.28c0-3.29-.86-5.95-2.58-7.99-1.72-2.04-4.04-3.06-6.98-3.06s-5.19,1.02-6.9,3.06c-1.72,2.04-2.58,4.7-2.58,7.99s.86,5.95,2.58,7.99c1.72,2.04,4.02,3.06,6.9,3.06s5.26-1.02,6.98-3.06c1.72-2.04,2.58-4.7,2.58-7.99Z"/><path class="cls-1" d="M609.23,292.64v20.83h-10.53v-20.23c0-6.62-2.59-9.93-7.76-9.93-2.74,0-4.85.92-6.34,2.76-1.49,1.84-2.24,4.43-2.24,7.76v19.63h-10.53v-38.37h9.18l.97,4.78c1.34-1.64,2.96-2.92,4.85-3.84,1.89-.92,4.23-1.38,7.02-1.38,4.48,0,8.16,1.39,11.05,4.18,2.89,2.79,4.33,7.39,4.33,13.81Z"/><path class="cls-1" d="M621.47,301.44c1.79,0,3.3.6,4.52,1.79,1.22,1.19,1.83,2.69,1.83,4.48s-.61,3.27-1.83,4.44c-1.22,1.17-2.72,1.75-4.52,1.75s-3.36-.58-4.55-1.75c-1.19-1.17-1.79-2.65-1.79-4.44s.6-3.35,1.79-4.52c1.19-1.17,2.71-1.75,4.55-1.75Z"/><path class="cls-3" d="M12.32,331.74l9.63,38.22,10.23-38.14h10.08l9.93,38.14,9.85-38.14h11.35l-14.48,52.25h-12.91l-9.03-34.71-8.81,34.71h-12.91L.75,331.82l11.57-.08Z"/><path class="cls-3" d="M81.86,347.68c2.91-1.62,6.28-2.43,10.11-2.43s7.3.76,10.26,2.28,5.28,3.66,6.94,6.42c1.67,2.76,2.53,6.01,2.58,9.74,0,1.34-.1,2.54-.3,3.58h-27.84v.3c.25,2.79,1.14,4.98,2.69,6.57,1.54,1.59,3.66,2.39,6.34,2.39,2.14,0,3.92-.46,5.34-1.38,1.42-.92,2.35-2.28,2.8-4.07h10.38c-.4,2.54-1.37,4.83-2.91,6.87-1.54,2.04-3.58,3.65-6.12,4.81-2.54,1.17-5.45,1.75-8.73,1.75-4.28,0-7.97-.8-11.08-2.39-3.11-1.59-5.5-3.87-7.17-6.83s-2.5-6.41-2.5-10.34.81-7.45,2.43-10.41,3.88-5.25,6.79-6.87ZM98.35,355c-1.57-1.27-3.54-1.9-5.93-1.9s-4.22.66-5.79,1.98-2.5,3.1-2.8,5.34h17.39c-.35-2.34-1.31-4.14-2.87-5.41Z"/><path class="cls-3" d="M143.48,345.7l7.69,27.02,7.24-27.02h9.48l7.02,27.1,7.84-27.1h10.75l-12.62,38.37h-11.2l-6.72-23.14-6.87,23.14h-11.2l-12.54-38.37h11.12Z"/><path class="cls-3" d="M208.5,335.63c0,1.69-.57,3.11-1.72,4.25s-2.59,1.72-4.33,1.72-3.2-.57-4.37-1.72c-1.17-1.14-1.75-2.56-1.75-4.25s.58-3.1,1.75-4.22c1.17-1.12,2.62-1.68,4.37-1.68s3.18.56,4.33,1.68c1.14,1.12,1.72,2.53,1.72,4.22ZM207.68,345.7v38.37h-10.53v-38.37h10.53Z"/><path class="cls-3" d="M225.52,331.82v52.25h-10.53v-52.25h10.53Z"/><path class="cls-3" d="M243.36,331.82v52.25h-10.53v-52.25h10.53Z"/><path class="cls-3" d="M306.78,354.4c1.52,2.96,2.28,6.43,2.28,10.41s-.76,7.32-2.28,10.3c-1.52,2.99-3.62,5.3-6.31,6.94-2.69,1.64-5.72,2.46-9.11,2.46-2.69,0-5.03-.51-7.02-1.53-1.99-1.02-3.63-2.4-4.93-4.14l-1.04,5.23h-9.18v-52.25h10.53v18.74c2.94-3.53,6.79-5.3,11.57-5.3,3.43,0,6.49.78,9.18,2.35,2.69,1.57,4.79,3.83,6.31,6.79ZM298.38,364.89c0-3.29-.87-5.95-2.61-7.99-1.74-2.04-4.03-3.06-6.87-3.06s-5.1,1.01-6.79,3.02c-1.69,2.01-2.54,4.67-2.54,7.95s.85,6.02,2.54,8.06c1.69,2.04,3.96,3.06,6.79,3.06s5.13-1.02,6.87-3.06c1.74-2.04,2.61-4.7,2.61-7.99Z"/><path class="cls-3" d="M322.61,347.68c2.91-1.62,6.28-2.43,10.11-2.43s7.3.76,10.26,2.28,5.28,3.66,6.94,6.42c1.67,2.76,2.53,6.01,2.58,9.74,0,1.34-.1,2.54-.3,3.58h-27.84v.3c.25,2.79,1.14,4.98,2.69,6.57,1.54,1.59,3.66,2.39,6.34,2.39,2.14,0,3.92-.46,5.34-1.38,1.42-.92,2.35-2.28,2.8-4.07h10.38c-.4,2.54-1.37,4.83-2.91,6.87-1.54,2.04-3.58,3.65-6.12,4.81-2.54,1.17-5.45,1.75-8.73,1.75-4.28,0-7.97-.8-11.08-2.39-3.11-1.59-5.5-3.87-7.17-6.83s-2.5-6.41-2.5-10.34.81-7.45,2.43-10.41,3.88-5.25,6.79-6.87ZM339.1,355c-1.57-1.27-3.54-1.9-5.93-1.9s-4.22.66-5.79,1.98-2.5,3.1-2.8,5.34h17.39c-.35-2.34-1.31-4.14-2.87-5.41Z"/><path class="cls-3" d="M388.11,335.63c0,1.69-.57,3.11-1.72,4.25s-2.59,1.72-4.33,1.72-3.2-.57-4.37-1.72c-1.17-1.14-1.75-2.56-1.75-4.25s.58-3.1,1.75-4.22c1.17-1.12,2.62-1.68,4.37-1.68s3.19.56,4.33,1.68c1.14,1.12,1.72,2.53,1.72,4.22ZM387.29,345.7v38.37h-10.53v-38.37h10.53Z"/><path class="cls-3" d="M432,363.25v20.83h-10.53v-20.23c0-6.62-2.59-9.93-7.76-9.93-2.74,0-4.85.92-6.34,2.76-1.49,1.84-2.24,4.43-2.24,7.76v19.63h-10.53v-38.37h9.18l.97,4.78c1.34-1.64,2.96-2.92,4.85-3.84,1.89-.92,4.23-1.38,7.02-1.38,4.48,0,8.16,1.39,11.05,4.18,2.89,2.79,4.33,7.39,4.33,13.81Z"/><path class="cls-3" d="M453.28,354.59v-8.88h6.34v-10.75h10.53v10.75h8.73v8.88h-8.73v16.8c0,1.34.29,2.31.86,2.91.57.6,1.53.9,2.87.9h5.45v8.88h-8.73c-7.32,0-10.97-3.66-10.97-10.97v-18.51h-6.34Z"/><path class="cls-3" d="M484.15,375.19c-1.67-2.99-2.5-6.42-2.5-10.3s.83-7.32,2.5-10.3c1.67-2.99,4.03-5.29,7.09-6.9s6.61-2.43,10.64-2.43,7.58.81,10.64,2.43,5.42,3.92,7.09,6.9c1.67,2.99,2.5,6.42,2.5,10.3s-.83,7.38-2.5,10.34-4.03,5.25-7.09,6.87c-3.06,1.62-6.61,2.43-10.64,2.43s-7.58-.81-10.64-2.43c-3.06-1.62-5.42-3.92-7.09-6.9ZM511.43,364.89c0-3.29-.86-5.95-2.58-7.99-1.72-2.04-4.04-3.06-6.98-3.06s-5.19,1.02-6.9,3.06c-1.72,2.04-2.58,4.7-2.58,7.99s.86,5.95,2.58,7.99c1.72,2.04,4.02,3.06,6.9,3.06s5.26-1.02,6.98-3.06c1.72-2.04,2.58-4.7,2.58-7.99Z"/><path class="cls-3" d="M564.06,384.07h-9.33l-.97-4.63c-1.34,1.59-2.91,2.84-4.7,3.73-1.79.9-3.98,1.34-6.57,1.34-4.48,0-8.14-1.38-10.97-4.14-2.84-2.76-4.25-7.38-4.25-13.85v-20.83h10.53v19.56c0,3.48.61,6.11,1.83,7.88,1.22,1.77,3.1,2.65,5.64,2.65s4.68-.98,6.12-2.95,2.16-4.71,2.16-8.25v-18.89h10.53v38.37Z"/><path class="cls-3" d="M589.67,384.52c-3.98,0-7.46-.81-10.45-2.43-2.99-1.62-5.29-3.92-6.9-6.9-1.62-2.99-2.43-6.42-2.43-10.3s.81-7.38,2.43-10.34,3.93-5.25,6.94-6.87,6.51-2.43,10.49-2.43c5.13,0,9.31,1.31,12.54,3.92,3.23,2.61,5.22,6.23,5.97,10.86h-10.9c-.45-1.89-1.34-3.4-2.69-4.52-1.34-1.12-3.01-1.68-5-1.68-2.74,0-4.93,1.02-6.57,3.06-1.64,2.04-2.46,4.7-2.46,7.99s.82,5.95,2.46,7.99c1.64,2.04,3.83,3.06,6.57,3.06,2.04,0,3.74-.57,5.11-1.72,1.37-1.14,2.25-2.71,2.65-4.7h10.82c-.7,4.68-2.67,8.35-5.93,11.01s-7.48,3.99-12.65,3.99Z"/><path class="cls-3" d="M651.33,363.25v20.83h-10.53v-20.38c0-3.19-.65-5.61-1.94-7.28-1.29-1.67-3.24-2.5-5.82-2.5s-4.79.92-6.31,2.76c-1.52,1.84-2.28,4.4-2.28,7.69v19.71h-10.53v-52.25h10.53v18.59c2.84-3.43,6.62-5.15,11.35-5.15s8.25,1.39,11.16,4.18,4.37,7.39,4.37,13.81Z"/><path class="cls-3" d="M683.95,345.7l7.69,27.02,7.24-27.02h9.48l7.02,27.1,7.84-27.1h10.75l-12.62,38.37h-11.2l-6.72-23.14-6.87,23.14h-11.2l-12.54-38.37h11.12Z"/><path class="cls-3" d="M748.97,335.63c0,1.69-.57,3.11-1.72,4.25s-2.59,1.72-4.33,1.72-3.2-.57-4.37-1.72c-1.17-1.14-1.75-2.56-1.75-4.25s.58-3.1,1.75-4.22c1.17-1.12,2.62-1.68,4.37-1.68s3.19.56,4.33,1.68c1.14,1.12,1.72,2.53,1.72,4.22ZM748.15,345.7v38.37h-10.53v-38.37h10.53Z"/><path class="cls-3" d="M751.59,354.59v-8.88h6.34v-10.75h10.53v10.75h8.73v8.88h-8.73v16.8c0,1.34.29,2.31.86,2.91.57.6,1.53.9,2.87.9h5.45v8.88h-8.73c-7.32,0-10.97-3.66-10.97-10.97v-18.51h-6.34Z"/><path class="cls-3" d="M819.44,363.25v20.83h-10.53v-20.38c0-3.19-.65-5.61-1.94-7.28-1.29-1.67-3.24-2.5-5.82-2.5s-4.79.92-6.31,2.76c-1.52,1.84-2.28,4.4-2.28,7.69v19.71h-10.53v-52.25h10.53v18.59c2.84-3.43,6.62-5.15,11.35-5.15s8.25,1.39,11.16,4.18,4.37,7.39,4.37,13.81Z"/><path class="cls-3" d="M20.53,443.86l9.11-27.54h11.27l-17.02,43.82c-.9,2.34-1.74,4.17-2.54,5.49-.8,1.32-1.8,2.31-3.02,2.99-1.22.67-2.8,1.01-4.74,1.01H3.36v-8.88h5.82c1.34,0,2.31-.22,2.91-.67.6-.45,1.17-1.32,1.72-2.61l.97-2.54L0,416.31h11.2l9.33,27.54Z"/><path class="cls-3" d="M44.01,445.8c-1.67-2.99-2.5-6.42-2.5-10.3s.83-7.32,2.5-10.3c1.67-2.99,4.03-5.29,7.09-6.9s6.61-2.43,10.64-2.43,7.58.81,10.64,2.43,5.42,3.92,7.09,6.9c1.67,2.99,2.5,6.42,2.5,10.3s-.83,7.38-2.5,10.34-4.03,5.25-7.09,6.87c-3.06,1.62-6.61,2.43-10.64,2.43s-7.58-.81-10.64-2.43c-3.06-1.62-5.42-3.92-7.09-6.9ZM71.29,435.5c0-3.29-.86-5.95-2.58-7.99-1.72-2.04-4.04-3.06-6.98-3.06s-5.19,1.02-6.9,3.06c-1.72,2.04-2.58,4.7-2.58,7.99s.86,5.95,2.58,7.99c1.72,2.04,4.02,3.06,6.9,3.06s5.26-1.02,6.98-3.06c1.72-2.04,2.58-4.7,2.58-7.99Z"/><path class="cls-3" d="M123.92,454.68h-9.33l-.97-4.63c-1.34,1.59-2.91,2.84-4.7,3.73-1.79.9-3.98,1.34-6.57,1.34-4.48,0-8.14-1.38-10.97-4.14-2.84-2.76-4.25-7.38-4.25-13.85v-20.83h10.52v19.56c0,3.48.61,6.11,1.83,7.88,1.22,1.77,3.1,2.65,5.64,2.65s4.68-.98,6.12-2.95,2.17-4.71,2.17-8.25v-18.89h10.52v38.37Z"/><path class="cls-3" d="M160.8,446.02c1.49,1.04,3.41,1.57,5.75,1.57s4.01-.36,5.3-1.08,1.94-1.75,1.94-3.1c0-1-.3-1.74-.9-2.24-.6-.5-1.44-.86-2.54-1.08-1.09-.22-2.89-.48-5.37-.78-3.38-.45-6.2-1.02-8.44-1.72-2.24-.7-4.03-1.79-5.37-3.28-1.34-1.49-2.02-3.48-2.02-5.97s.68-4.69,2.05-6.61,3.3-3.4,5.79-4.44,5.35-1.57,8.58-1.57c5.23.05,9.44,1.17,12.65,3.36,3.21,2.19,4.94,5.23,5.19,9.11h-10c-.15-1.44-.91-2.62-2.28-3.55-1.37-.92-3.12-1.38-5.26-1.38-1.99,0-3.6.37-4.81,1.12-1.22.75-1.83,1.74-1.83,2.99,0,.9.32,1.57.97,2.02.65.45,1.49.77,2.54.97,1.04.2,2.79.42,5.22.67,5.18.6,9.14,1.71,11.91,3.32s4.14,4.39,4.14,8.32c0,2.49-.73,4.68-2.2,6.57-1.47,1.89-3.51,3.35-6.12,4.37-2.61,1.02-5.64,1.53-9.07,1.53-5.32,0-9.65-1.18-12.99-3.55-3.33-2.36-5.1-5.59-5.3-9.67h10c.15,1.69.97,3.06,2.46,4.11Z"/><path class="cls-3" d="M227.46,433.86v20.83h-10.53v-20.38c0-3.19-.65-5.61-1.94-7.28-1.29-1.67-3.24-2.5-5.82-2.5s-4.79.92-6.31,2.76c-1.52,1.84-2.28,4.4-2.28,7.69v19.71h-10.53v-52.25h10.53v18.59c2.84-3.43,6.62-5.15,11.35-5.15s8.25,1.39,11.16,4.18,4.37,7.39,4.37,13.81Z"/><path class="cls-3" d="M235.11,445.8c-1.67-2.99-2.5-6.42-2.5-10.3s.83-7.32,2.5-10.3c1.67-2.99,4.03-5.29,7.09-6.9s6.61-2.43,10.64-2.43,7.58.81,10.64,2.43,5.42,3.92,7.09,6.9c1.67,2.99,2.5,6.42,2.5,10.3s-.83,7.38-2.5,10.34-4.03,5.25-7.09,6.87c-3.06,1.62-6.61,2.43-10.64,2.43s-7.58-.81-10.64-2.43c-3.06-1.62-5.42-3.92-7.09-6.9ZM262.4,435.5c0-3.29-.86-5.95-2.58-7.99-1.72-2.04-4.04-3.06-6.98-3.06s-5.19,1.02-6.9,3.06c-1.72,2.04-2.58,4.7-2.58,7.99s.86,5.95,2.58,7.99c1.72,2.04,4.02,3.06,6.9,3.06s5.26-1.02,6.98-3.06c1.72-2.04,2.58-4.7,2.58-7.99Z"/><path class="cls-3" d="M302.26,425.87h-4.18c-2.99,0-5.18.9-6.57,2.69-1.39,1.79-2.09,4.23-2.09,7.32v18.81h-10.53v-38.37h9.55l.97,5.75c1.14-1.89,2.56-3.32,4.25-4.29,1.69-.97,3.96-1.46,6.79-1.46h1.79v9.55Z"/><path class="cls-3" d="M317.49,405.56v10.75h8.73v8.88h-8.73v16.8c0,1.34.29,2.31.86,2.91.57.6,1.53.9,2.87.9h5.45v8.88h-8.73c-7.32,0-10.97-3.66-10.97-10.97v-38.14h10.53Z"/><path class="cls-3" d="M341.6,402.43v52.25h-10.53v-52.25h10.53Z"/><path class="cls-3" d="M365.72,443.86l9.11-27.54h11.27l-17.02,43.82c-.9,2.34-1.74,4.17-2.54,5.49-.8,1.32-1.8,2.31-3.02,2.99-1.22.67-2.8,1.01-4.74,1.01h-10.23v-8.88h5.82c1.34,0,2.31-.22,2.91-.67.6-.45,1.17-1.32,1.72-2.61l.97-2.54-14.78-38.59h11.2l9.33,27.54Z"/><path class="cls-3" d="M391.84,442.66c1.79,0,3.3.6,4.52,1.79,1.22,1.19,1.83,2.69,1.83,4.48s-.61,3.27-1.83,4.44c-1.22,1.17-2.72,1.75-4.52,1.75s-3.36-.58-4.55-1.75c-1.19-1.17-1.79-2.65-1.79-4.44s.6-3.35,1.79-4.52c1.19-1.17,2.71-1.75,4.55-1.75Z"/></g></svg>