<svg xmlns="http://www.w3.org/2000/svg" width="245.566" height="80.638" viewBox="0 0 245.566 80.638">
  <g id="Group_25" data-name="Group 25" transform="translate(-826.234 -1563.231)">
    <g id="Group_19" data-name="Group 19">
      <path id="Path_26" data-name="Path 26" d="M836.3,1589.969H826.238v-26.738h26.809v9.907H836.3Z" fill="#000136"/>
      <path id="Path_27" data-name="Path 27" d="M826.234,1643.841v-26.707h10.009v16.689H853v10.018Z" fill="#000136"/>
      <path id="Path_28" data-name="Path 28" d="M907.011,1589.958h-9.873c-1.14-10.16-6.773-15.742-16.925-16.918v-9.74C892.763,1562.424,907.276,1573.922,907.011,1589.958Z" fill="#000136"/>
      <path id="Path_29" data-name="Path 29" d="M897,1617.1h9.821c1.262,12.011-10.43,27.166-26.57,26.759v-9.928a17.346,17.346,0,0,0,11.693-4.949A16.972,16.972,0,0,0,897,1617.1Z" fill="#000136"/>
    </g>
    <g id="Group_24" data-name="Group 24">
      <g id="Group_20" data-name="Group 20">
        <path id="Path_30" data-name="Path 30" d="M998.406,1595.392c-.126.025-.2.016-.241.05a10.964,10.964,0,0,1-18.245-5.68c-1-4.1-.7-8.126,1.759-11.733a10.831,10.831,0,0,1,8.346-4.634c3.428-.337,6.638.255,9.29,2.656a9.658,9.658,0,0,1,3.1,6.245c-1.655,0-3.26.013-4.864-.021-.163,0-.4-.271-.466-.464a5.413,5.413,0,0,0-5.205-3.983,5.885,5.885,0,0,0-6.02,3.474,10.154,10.154,0,0,0,.119,9.405c2.252,4.335,7.964,3.786,10.271,1.383a5.106,5.106,0,0,0,1.44-3.371h-6.009v-4.151h10.873v13.622c-1.088,0-2.181.024-3.27-.027-.161-.008-.384-.354-.44-.579C998.666,1596.862,998.548,1596.123,998.406,1595.392Z" fill="#000136"/>
        <path id="Path_31" data-name="Path 31" d="M947.648,1598.115v-24.426c.065-.052.113-.121.159-.121,3.508.034,7.042-.187,10.517.17,5.914.607,9.9,5.005,10.256,10.959.3,5.067-1.267,9.279-5.893,11.944a11.214,11.214,0,0,1-5.337,1.5c-3.1.083-6.2.043-9.3.05A2.384,2.384,0,0,1,947.648,1598.115Zm5.3-4.361c3.558.1,7.076.435,9.174-3.216a10.031,10.031,0,0,0-.547-10.164c-2.275-2.936-5.488-2.44-8.627-2.411Z" fill="#000136"/>
        <path id="Path_32" data-name="Path 32" d="M1054.28,1598.2c-1.714,0-3.39.024-5.065-.026a1,1,0,0,1-.688-.57c-.522-1.355-1-2.729-1.453-4.109a.844.844,0,0,0-.939-.7c-2.66.027-5.32.023-7.98,0a.838.838,0,0,0-.958.669c-.446,1.382-.939,2.749-1.465,4.1-.1.256-.428.592-.661.6-1.61.052-3.223.027-4.964.027.122-.39.2-.684.306-.97q4.184-11.434,8.354-22.873a1.066,1.066,0,0,1,1.221-.847c1.582.051,3.167-.014,4.749.042a1.172,1.172,0,0,1,.885.559q4.364,11.868,8.656,23.764A1.49,1.49,0,0,1,1054.28,1598.2Zm-12.189-18.995c-1.124,3.246-2.16,6.235-3.215,9.279h6.464C1044.268,1585.419,1043.223,1582.433,1042.091,1579.2Z" fill="#000136"/>
        <path id="Path_33" data-name="Path 33" d="M1033.141,1573.595v4.486h-7.084v20.05h-5.266v-20.009H1013.7v-4.527Z" fill="#000136"/>
        <path id="Path_34" data-name="Path 34" d="M1071.757,1598.142h-15.646V1573.6h5.216v20h10.43Z" fill="#000136"/>
        <path id="Path_35" data-name="Path 35" d="M1011.425,1598.157H1006.3V1573.6h5.124Z" fill="#000136"/>
        <path id="Path_36" data-name="Path 36" d="M971.5,1573.569h5.122v24.577H971.5Z" fill="#000136"/>
      </g>
      <g id="Group_23" data-name="Group 23">
        <path id="Path_37" data-name="Path 37" d="M952.828,1625.5v8.23h-5.18v-24.5c.024-.019.074-.088.122-.087,3.986.046,8.009-.225,11.95.224a7.88,7.88,0,0,1,5.719,12.2,22.348,22.348,0,0,1-2.857,2.985c.68,1.329,1.482,2.892,2.279,4.457.783,1.537,1.561,3.077,2.42,4.77-1.96,0-3.751.02-5.54-.028-.212-.006-.484-.354-.611-.6-1.162-2.28-2.323-4.562-3.425-6.871a1.194,1.194,0,0,0-1.307-.793C955.265,1625.536,954.129,1625.5,952.828,1625.5Zm.078-11.882v7.438c1.683,0,3.3.077,4.9-.02a3.539,3.539,0,0,0,3.449-3.591,3.44,3.44,0,0,0-3.189-3.792C956.384,1613.483,954.671,1613.618,952.906,1613.618Z" fill="#000136"/>
        <path id="Path_38" data-name="Path 38" d="M1012.376,1633.785c-1.742,0-3.418.029-5.091-.032-.254-.009-.606-.392-.717-.678-.515-1.324-.98-2.668-1.42-4.019a.844.844,0,0,0-.957-.672q-3.988.038-7.979,0a.841.841,0,0,0-.931.706q-.661,2.025-1.424,4.016c-.1.268-.412.64-.637.647-1.637.056-3.277.03-5.053.03.574-1.592,1.1-3.071,1.639-4.544,2.344-6.406,4.706-12.806,7.02-19.222a1.168,1.168,0,0,1,1.36-.925c1.549.062,3.1-.012,4.653.045a1.17,1.17,0,0,1,.881.562q4.35,11.823,8.627,23.672A2.109,2.109,0,0,1,1012.376,1633.785Zm-12.1-18.713-.2.009-3.1,8.962h6.442Z" fill="#000136"/>
        <path id="Path_39" data-name="Path 39" d="M986.323,1609.181v4.472H975.137v5.514h9.053v4.353h-9.048v5.67h11.526v4.544H969.88v-24.553Z" fill="#000136"/>
        <path id="Path_40" data-name="Path 40" d="M1045.9,1609.111c1.975,0,3.779-.03,5.58.029a1.316,1.316,0,0,1,.883.631c1.579,2.809,3.115,5.642,4.665,8.468.15.273.309.542.528.925.608-1.038,1.17-1.982,1.718-2.934,1.23-2.136,2.466-4.27,3.67-6.421a1.158,1.158,0,0,1,1.176-.714c1.643.046,3.289.016,5.111.016-.2.372-.323.638-.471.892-2.695,4.613-5.4,9.217-8.072,13.843a3.46,3.46,0,0,0-.438,1.59c-.047,2.4-.022,4.8-.023,7.2v1.085h-5.311c0-.343,0-.676,0-1.01,0-2.339.039-4.678-.022-7.016a4.284,4.284,0,0,0-.529-1.945c-2.662-4.63-5.376-9.231-8.071-13.843C1046.167,1609.7,1046.073,1609.472,1045.9,1609.111Z" fill="#000136"/>
        <path id="Path_41" data-name="Path 41" d="M1032.765,1633.716v-20.03h-7.036v-4.5h19.44v4.472h-7.076v20.056Z" fill="#000136"/>
        <path id="Path_42" data-name="Path 42" d="M1014.176,1633.731v-24.542h5.245v19.994h10.452v4.548Z" fill="#000136"/>
        <g id="Group_22" data-name="Group 22">
          <g id="Group_21" data-name="Group 21">
            <path id="Path_43" data-name="Path 43" d="M1066.415,1633.724v-3.066h-1.145v-.41h2.755v.41h-1.15v3.066Z" fill="#000136"/>
            <path id="Path_44" data-name="Path 44" d="M1068.483,1633.724v-3.476h.692l.823,2.461c.076.229.131.4.166.514.04-.126.1-.312.185-.557l.832-2.418h.619v3.476h-.443v-2.91l-1.01,2.91h-.415l-1.006-2.959v2.959Z" fill="#000136"/>
          </g>
        </g>
      </g>
    </g>
  </g>
</svg>
