<?xml version="1.0" encoding="UTF-8"?><svg id="Layer_1" xmlns="http://www.w3.org/2000/svg" viewBox="0 0 150 150"><defs><style>.cls-1{fill:none;stroke:#ff8200;stroke-linecap:round;stroke-linejoin:round;}</style></defs><path class="cls-1" d="m127.61,65.19v19.35c0,2.55-2.06,4.61-4.61,4.61h-.68v11.07c-6.74-9.24-14.45-16.8-21.66-22.75-1.8-1.49-3.57-2.87-5.29-4.16v-8.12c0-10.98,7.86-13.82,9.33-14.26,1.77,1.67,4.16,2.69,6.79,2.69s5.02-1.02,6.79-2.69c1.47.44,9.33,3.28,9.33,14.26Z"/><path class="cls-1" d="m121.41,43.7c0,2.85-1.2,5.42-3.13,7.23-1.77,1.67-4.16,2.69-6.79,2.69s-5.02-1.02-6.79-2.69c-1.93-1.81-3.13-4.38-3.13-7.23,0-5.48,4.44-9.93,9.92-9.93s9.92,4.45,9.92,9.93Z"/><line class="cls-1" x1="100.66" y1="77.47" x2="100.66" y2="63.6"/><line class="cls-1" x1="122.32" y1="88.18" x2="122.32" y2="63.6"/><line class="cls-1" x1="111.49" y1="53.62" x2="111.49" y2="61.95"/><path class="cls-1" d="m54.63,65.19v8.12c-1.72,1.28-3.49,2.67-5.29,4.16-7.21,5.94-14.92,13.51-21.66,22.75v-11.07h-.68c-2.55,0-4.61-2.06-4.61-4.61v-19.35c0-10.98,7.86-13.82,9.33-14.26,1.77,1.67,4.16,2.69,6.79,2.69s5.02-1.02,6.79-2.69c1.47.44,9.33,3.28,9.33,14.26Z"/><path class="cls-1" d="m48.43,43.7c0,2.85-1.2,5.42-3.13,7.23-1.77,1.67-4.16,2.69-6.79,2.69s-5.02-1.02-6.79-2.69c-1.93-1.81-3.13-4.38-3.13-7.23,0-5.48,4.44-9.93,9.92-9.93s9.92,4.45,9.92,9.93Z"/><line class="cls-1" x1="27.68" y1="88.18" x2="27.68" y2="63.6"/><line class="cls-1" x1="49.34" y1="77.47" x2="49.34" y2="63.6"/><line class="cls-1" x1="38.51" y1="53.62" x2="38.51" y2="61.95"/><path class="cls-1" d="m92.33,35.98v20.79c0,2.74-2.22,4.95-4.96,4.95h-.73v5.55c-6.92-4.43-11.64-6.59-11.64-6.59,0,0-4.72,2.16-11.64,6.59v-5.55h-.73c-2.74,0-4.96-2.21-4.96-4.95v-20.79c0-11.79,8.42-14.85,10.03-15.33h.01c1.91,1.8,4.47,2.89,7.29,2.89s5.38-1.09,7.29-2.89h.01c1.61.48,10.03,3.54,10.03,15.33Z"/><path class="cls-1" d="m85.66,12.88c0,3.06-1.29,5.83-3.36,7.77h-.01c-1.91,1.8-4.47,2.89-7.29,2.89s-5.38-1.09-7.29-2.89h-.01c-2.07-1.94-3.36-4.71-3.36-7.77,0-5.89,4.77-10.66,10.66-10.66s10.66,4.77,10.66,10.66Z"/><path class="cls-1" d="m125.74,105.19s0,20.35-9.78,39.98c-2.69-1.45-5.04-3.48-6.86-5.91-3.9,5.18-10.07,8.52-17.04,8.52s-13.16-3.34-17.06-8.52c-3.93,5.18-10.09,8.52-17.09,8.52s-13.11-3.34-17.04-8.52c-1.84,2.43-4.16,4.46-6.86,5.91-9.75-19.63-9.75-39.98-9.75-39.98,1.11-1.71,2.25-3.36,3.42-4.97,6.74-9.24,14.45-16.81,21.66-22.75,1.8-1.49,3.57-2.88,5.29-4.16,3.14-2.34,6.09-4.36,8.73-6.04,6.92-4.43,11.64-6.59,11.64-6.59,0,0,4.72,2.16,11.64,6.59,2.64,1.68,5.59,3.7,8.73,6.04,1.72,1.29,3.49,2.67,5.29,4.16,7.21,5.95,14.92,13.51,21.66,22.75,1.17,1.61,2.31,3.26,3.42,4.97Z"/><line class="cls-1" x1="75" y1="131.43" x2="75" y2="139.26"/><line class="cls-1" x1="75" y1="60.68" x2="75" y2="123.83"/><circle class="cls-1" cx="48.96" cy="99.85" r="6.01"/><circle class="cls-1" cx="101.04" cy="99.85" r="6.01"/><path class="cls-1" d="m23.82,147.78c3.71,0,7.18-.93,10.2-2.62,2.7-1.44,5.02-3.47,6.86-5.9,3.92,5.18,10.07,8.52,17.04,8.52s13.16-3.34,17.09-8.52c3.9,5.18,10.07,8.52,17.06,8.52s13.14-3.34,17.04-8.52c1.82,2.43,4.17,4.46,6.86,5.9,3.02,1.68,6.49,2.62,10.2,2.62"/><line class="cls-1" x1="63.36" y1="60.68" x2="63.36" y2="34.26"/><line class="cls-1" x1="86.64" y1="60.68" x2="86.64" y2="34.26"/><line class="cls-1" x1="75" y1="23.54" x2="75" y2="32.49"/></svg>