<?xml version="1.0" encoding="UTF-8"?><svg id="Layer_1" xmlns="http://www.w3.org/2000/svg" viewBox="0 0 150 150"><defs><style>.cls-1{fill:none;stroke:#ff8200;stroke-linecap:round;stroke-linejoin:round;}</style></defs><path class="cls-1" d="m36.6,100.6c27.86-22.79,10.24-66.56,7.57-80.11"/><path class="cls-1" d="m44.17,20.49c.05-.28,0,0,.06-.27C34.04,31.48.76,39.16.76,75c0,33.28,28.16,30.72,28.16,30.72"/><line class="cls-1" x1="146.68" y1="92.92" x2="146.68" y2="92.92"/><path class="cls-1" d="m136.44,36.6h-35.84l-6.12,3.06c-2.34,1.17-3.42,3.92-2.5,6.38l6.06,16.16-8.89-1.48c-3.73-.62-7.35,1.56-8.55,5.15l-.79,2.36c-1.36,4.07-.03,8.55,3.32,11.23l7.22,5.78,2.05,18.49c.29,2.59,5.04,4.55,7.65,4.55h5.61c4.57,0,6.03-3.03,7.29-7.43l3-10.49,2.56-12.8-7.68-7.68,2.56-5.12,15.36,7.68,10.24,7.68"/><path class="cls-1" d="m59.64,90.36h0l6.8,1.13c4.94.82,8.56,5.09,8.56,10.1v18.56c0,1.93-1.56,3.49-3.49,3.49h0c-1.03,0-2.02-.46-2.68-1.25l-9.38-11.26c-1.53-1.84-2.37-4.16-2.37-6.56v-3.97l-2.56-2.56"/><path class="cls-1" d="m59.64,41.72h1.35c3.88,0,7.42-2.19,9.16-5.66l4.85-9.7,12.8-5.12,25.6-2.56"/><path class="cls-1" d="m27.85,46.71c-4.22,8.53-6.61,18.13-6.61,28.29,0,35.35,28.65,64,64,64,29.12,0,53.69-19.46,61.44-46.08"/><path class="cls-1" d="m146.68,92.92c1.66-5.69,2.56-11.7,2.56-17.92,0-35.35-28.65-64-64-64-9.11,0-17.75,1.94-25.6,5.38"/></svg>