<?xml version="1.0" encoding="UTF-8"?><svg id="Layer_1" xmlns="http://www.w3.org/2000/svg" viewBox="0 0 150 150"><defs><style>.cls-1{fill:none;stroke:#ff8200;stroke-linecap:round;stroke-linejoin:round;}</style></defs><g id="Group_12549"><path id="Path_22963" class="cls-1" d="m107.89,145.26v-56.81c-.02-18.16-14.76-32.87-32.93-32.85-18.13.02-32.83,14.72-32.85,32.85v56.81"/><path id="Path_22964" class="cls-1" d="m54.07,63.12v28.32c0,6.61,5.36,11.96,11.96,11.96h17.94c6.61,0,11.96-5.36,11.96-11.96v-28.32"/><path id="Path_22965" class="cls-1" d="m33.14,122.21c-18.68-23.12-15.09-57,8.03-75.69,23.12-18.68,57-15.09,75.69,8.03,15.95,19.73,15.95,47.92,0,67.66"/><rect id="Rectangle_457" class="cls-1" x="54.07" y="4.74" width="11.96" height="11.96"/><rect id="Rectangle_458" class="cls-1" x="131.81" y="4.74" width="11.96" height="11.96"/><rect id="Rectangle_459" class="cls-1" x="131.81" y="28.66" width="11.96" height="11.96"/><line id="Line_207" class="cls-1" x1="60.05" y1="34.64" x2="60.05" y2="16.7"/><rect id="Rectangle_460" class="cls-1" x="83.97" y="4.74" width="11.96" height="11.96"/><line id="Line_208" class="cls-1" x1="89.95" y1="34.64" x2="89.95" y2="16.7"/><path id="Path_22966" class="cls-1" d="m131.8,10.72h-23.92v35.88"/><path id="Path_22967" class="cls-1" d="m131.81,34.64h-11.96v23.92"/><rect id="Rectangle_461" class="cls-1" x="6.23" y="5.47" width="13.05" height="13.05"/><rect id="Rectangle_462" class="cls-1" x="6.23" y="27.85" width="13.05" height="13.05"/><path id="Path_22968" class="cls-1" d="m19.29,10.72h22.82v35.88"/><path id="Path_22969" class="cls-1" d="m19.29,34.64h10.86v23.92"/></g></svg>