<?xml version="1.0" encoding="UTF-8"?><svg id="Layer_1" xmlns="http://www.w3.org/2000/svg" viewBox="0 0 150 150"><defs><style>.cls-1{fill:none;stroke:#ff8200;stroke-linecap:round;stroke-linejoin:round;}</style></defs><path class="cls-1" d="m102.26,112.26c-9.78,0-17.74-8.07-17.74-17.99s7.96-17.99,17.74-17.99,17.8,8.07,17.8,17.99-7.98,17.99-17.8,17.99Z"/><path class="cls-1" d="m148.09,99.46c0,1.7-1.39,3.09-3.1,3.09h-6.34c-.63,0-1.18.43-1.33,1.03-.82,3.17-2.08,6.23-3.74,9.09-.31.54-.23,1.21.21,1.66l4.49,4.59c1.22,1.23,1.22,3.17,0,4.4l-7.27,7.34c-1.15,1.17-3.14,1.15-4.32,0l-4.48-4.58c-.45-.46-1.14-.55-1.69-.22-2.79,1.65-5.82,2.92-9,3.77-.6.16-1.02.71-1.02,1.33v6.46c0,1.7-1.37,3.09-3.05,3.09h-10.33c-1.68,0-3.05-1.39-3.05-3.09v-6.46c0-.63-.42-1.17-1.03-1.33-3.14-.83-6.16-2.1-9-3.77-.22-.13-.46-.19-.7-.19-.36,0-.71.14-.98.41l-4.53,4.58c-1.11,1.13-3.15,1.13-4.27,0l-7.3-7.32c-1.17-1.22-1.17-3.21-.02-4.42l4.54-4.58c.44-.44.53-1.12.21-1.66-1.66-2.86-2.92-5.92-3.74-9.09-.16-.61-.71-1.03-1.33-1.03h-6.39c-1.68,0-3.05-1.39-3.05-3.09v-10.37c0-1.7,1.37-3.09,3.05-3.09h6.39c.63,0,1.18-.42,1.33-1.03.84-3.24,2.1-6.31,3.74-9.15.31-.54.22-1.23-.22-1.67l-4.52-4.5c-1.17-1.22-1.17-3.21-.02-4.42l1.17-1.17c.09-.07.17-.15.24-.24l5.93-5.95c1.12-1.16,3.11-1.17,4.25.02l4.53,4.58c.45.45,1.14.54,1.68.22,2.83-1.67,5.86-2.94,9-3.77.6-.16,1.03-.71,1.03-1.33v-6.46c0-1.7,1.37-3.09,3.05-3.09h10.33c1.68,0,3.05,1.39,3.05,3.09v6.46c0,.62.42,1.17,1.02,1.33,3.18.86,6.21,2.13,9,3.77.55.32,1.24.23,1.69-.22l4.47-4.57c.59-.6,1.33-.9,2.21-.92.8,0,1.55.33,2.12.92l7.27,7.34c1.22,1.23,1.22,3.17,0,4.4l-4.48,4.52c-.44.44-.53,1.12-.21,1.66,1.64,2.83,2.9,5.91,3.74,9.15.16.61.71,1.03,1.33,1.03h6.34c1.71,0,3.1,1.39,3.1,3.09v10.37Z"/><path class="cls-1" d="m53.91,102.55H4.85c-1.62,0-2.94-1.34-2.94-2.98v-18.26c0-1.67,1.32-3.03,2.94-3.03h58.51"/><line class="cls-1" x1="9.26" y1="94.93" x2="50.15" y2="94.93"/><line class="cls-1" x1="9.26" y1="85.88" x2="50.15" y2="85.88"/><line class="cls-1" x1="9.26" y1="60.54" x2="50.15" y2="60.54"/><line class="cls-1" x1="9.26" y1="51.49" x2="50.15" y2="51.49"/><line class="cls-1" x1="9.26" y1="26.15" x2="50.15" y2="26.15"/><line class="cls-1" x1="50.15" y1="17.1" x2="9.26" y2="17.1"/><rect class="cls-1" x="1.91" y="9.48" width="113.68" height="24.28" rx="3.24" ry="3.24"/><line class="cls-1" x1="103.59" y1="17.1" x2="103.59" y2="26.15"/><line class="cls-1" x1="108.25" y1="17.1" x2="108.25" y2="26.15"/><path class="cls-1" d="m58.76,68.16H5.15c-1.79,0-3.24-1.45-3.24-3.24v-17.81c0-1.79,1.45-3.24,3.24-3.24h107.21c1.79,0,3.24,1.45,3.24,3.24v5.89"/></svg>