<svg xmlns="http://www.w3.org/2000/svg" width="30.718" height="30.717" viewBox="0 0 30.718 30.717">
  <g id="Group_12867" data-name="Group 12867" transform="translate(-887.952 -2056.076)">
    <path id="Path_23313" data-name="Path 23313" d="M918.67,2071.434a15.359,15.359,0,1,0-17.759,15.172v-10.732h-3.9v-4.44h3.9v-3.383c0-3.85,2.293-5.976,5.8-5.976a23.6,23.6,0,0,1,3.438.3v3.78h-1.936a2.22,2.22,0,0,0-2.5,2.4v2.881h4.259l-.681,4.44h-3.578v10.732A15.362,15.362,0,0,0,918.67,2071.434Z" fill="#1677f0"/>
    <path id="Path_23314" data-name="Path 23314" d="M909.289,2075.874l.681-4.44h-4.259v-2.881a2.22,2.22,0,0,1,2.5-2.4h1.936v-3.78a23.6,23.6,0,0,0-3.438-.3c-3.508,0-5.8,2.126-5.8,5.976v3.383h-3.9v4.44h3.9v10.732a15.494,15.494,0,0,0,4.8,0v-10.732Z" fill="#fff"/>
  </g>
</svg>
