<?xml version="1.0" encoding="UTF-8"?><svg id="Layer_1" xmlns="http://www.w3.org/2000/svg" viewBox="0 0 100 100"><defs><style>.cls-1{fill:none;stroke:#fa0;stroke-linecap:round;stroke-linejoin:round;}</style></defs><g id="Group_10486"><g id="Group_10482"><circle id="Ellipse_1467" class="cls-1" cx="71.28" cy="75.98" r="21.64"/><path id="Path_21518" class="cls-1" d="m58.6,76.28l9.07,9.07,16.68-16.68"/></g><g id="Group_10485"><g id="Group_10484"><g id="Group_10483"><path id="Path_21519" class="cls-1" d="m43.93,85.27H11.66c-2.53,0-4.58-2.05-4.58-4.58V28.59c0-2.27.9-4.44,2.5-6.04L28.42,3.72c.86-.86,2.02-1.34,3.24-1.34h39.04c2.53,0,4.57,2.05,4.57,4.58v38.45"/></g><path id="Path_21520" class="cls-1" d="m18.54,25.06h11.21v-11.2"/><line id="Line_154" class="cls-1" x1="43.53" y1="62.16" x2="19.64" y2="62.16"/><line id="Line_155" class="cls-1" x1="55.14" y1="49.66" x2="19.64" y2="49.66"/><line id="Line_156" class="cls-1" x1="62.93" y1="37.15" x2="19.64" y2="37.15"/></g></g></g><line id="Line_157" class="cls-1" x1="55.77" y1="50" x2="44.23" y2="50"/></svg>