<?xml version="1.0" encoding="UTF-8"?><svg id="Layer_1" xmlns="http://www.w3.org/2000/svg" viewBox="0 0 150 150"><defs><style>.cls-1{fill:none;stroke:#ff8200;stroke-linecap:round;stroke-linejoin:round;}</style></defs><path class="cls-1" d="m43.76,14.17c0-6.96-5.16-12.6-11.53-12.6s-11.53,5.64-11.53,12.6,5.16,16.25,11.53,16.25,11.53-9.29,11.53-16.25Z"/><path class="cls-1" d="m16.41,35.57l-1.35.37C5.97,38.46.75,47.05,1.45,56.46l2.99,32.48"/><line class="cls-1" x1="32.23" y1="138.56" x2="32.23" y2="96.84"/><line class="cls-1" x1="13.71" y1="55.56" x2="17.56" y2="138.86"/><path class="cls-1" d="m46.9,138.86l3.25-82.05c.12-3.11,2.68-5.57,5.79-5.57l31.92,5.32c2.97-.31,5.23-2.82,5.23-5.81h0c0-3.19-2.55-5.78-5.74-5.84l-38.53-9.35"/><line class="cls-1" x1="8.27" y1="148.43" x2="148.61" y2="148.43"/><polyline class="cls-1" points="89.56 138.86 89.56 102.86 65.71 102.86 65.71 138.86"/><polyline class="cls-1" points="114.75 138.86 114.75 83.78 89.74 83.78 89.74 91.49"/><polyline class="cls-1" points="139.94 138.86 139.94 63.54 114.93 63.54 114.93 72.64"/></svg>