<?xml version="1.0" encoding="UTF-8"?><svg id="Layer_1" xmlns="http://www.w3.org/2000/svg" viewBox="0 0 150 150"><defs><style>.cls-1{fill:none;stroke:#ff8200;stroke-linecap:round;stroke-linejoin:round;}</style></defs><g id="Group_12548"><line id="Line_200" class="cls-1" x1="75" y1="114.71" x2="75" y2="126.93"/><circle id="Ellipse_1469" class="cls-1" cx="75" cy="59.73" r="54.99"/><path id="Path_22961" class="cls-1" d="m37,20.01c21.24,20.37,54.76,20.37,76,0"/><path id="Path_22962" class="cls-1" d="m37,99.44c21.24-20.37,54.76-20.37,76,0"/><ellipse id="Ellipse_1470" class="cls-1" cx="75" cy="59.73" rx="27.49" ry="54.99"/><line id="Line_201" class="cls-1" x1="84.16" y1="59.73" x2="129.99" y2="59.73"/><line id="Line_202" class="cls-1" x1="20.01" y1="59.73" x2="65.84" y2="59.73"/><line id="Line_203" class="cls-1" x1="93.33" y1="136.1" x2="108.6" y2="136.1"/><line id="Line_204" class="cls-1" x1="136.1" y1="136.1" x2="148.32" y2="136.1"/><line id="Line_205" class="cls-1" x1="65.84" y1="136.1" x2="50.56" y2="136.1"/><line id="Line_206" class="cls-1" x1="23.07" y1="136.1" x2="1.68" y2="136.1"/><circle id="Ellipse_1471" class="cls-1" cx="75" cy="59.73" r="9.16"/><circle id="Ellipse_1472" class="cls-1" cx="75" cy="136.1" r="9.16"/><circle id="Ellipse_1473" class="cls-1" cx="117.77" cy="136.1" r="9.16"/><circle id="Ellipse_1474" class="cls-1" cx="32.23" cy="136.1" r="9.16"/></g></svg>