<?xml version="1.0" encoding="UTF-8"?><svg id="Layer_1" xmlns="http://www.w3.org/2000/svg" viewBox="0 0 150 150"><defs><style>.cls-1{fill:none;stroke:#ff8200;stroke-linecap:round;stroke-linejoin:round;}</style></defs><g id="Group_12629"><g id="Group_12554"><path id="Path_22980" class="cls-1" d="m39.19,89.86v-22.69h-13.39l24.51-31.46,24.51,31.46h-13.39v80.44"/></g><g id="Group_12555"><path id="Path_22981" class="cls-1" d="m129.69,89.86c9.93,0,17.99-8.05,17.99-17.99s-8.05-17.99-17.99-17.99c-1.95.02-3.89.37-5.73,1.02-1.06-15.95-14.85-28.02-30.81-26.96-1.12.07-2.24.21-3.35.42C87.72,12.06,72.82.55,56.52,2.64c-14.86,1.9-25.98,14.55-25.97,29.53,0,.26.03.52.04.78-15.71.1-28.37,12.92-28.27,28.64.1,15.71,12.92,28.37,28.64,28.27h8.24"/></g><path id="Path_22982" class="cls-1" d="m70.42,89.86h77.25v22.99h-77.25"/><path id="Path_22983" class="cls-1" d="m70.42,89.86h77.25v22.99h-77.25"/><path id="Path_22984" class="cls-1" d="m70.42,124.62h77.25v22.99H61.43"/><line id="Line_213" class="cls-1" x1="128.79" y1="101.36" x2="134.2" y2="101.36"/><line id="Line_214" class="cls-1" x1="128.79" y1="136.12" x2="134.2" y2="136.12"/></g></svg>