<?xml version="1.0" encoding="UTF-8"?><svg id="Layer_1" xmlns="http://www.w3.org/2000/svg" viewBox="0 0 150 150"><defs><style>.cls-1{fill:none;stroke:#ff8200;stroke-linecap:round;stroke-linejoin:round;}</style></defs><g id="Group_12624"><path id="Rectangle_453" class="cls-1" d="m57.93,2.78h0c3.99,0,7.22,3.23,7.22,7.22v15.56c0,3.99-3.23,7.22-7.22,7.22h0c-3.99,0-7.22-3.23-7.22-7.22v-15.56c0-3.99,3.23-7.22,7.22-7.22Z"/><path id="Rectangle_454" class="cls-1" d="m115.71,2.78h0c3.99,0,7.22,3.23,7.22,7.22v15.56c0,3.99-3.23,7.22-7.22,7.22h0c-3.99,0-7.22-3.23-7.22-7.22v-15.56c0-3.99,3.23-7.22,7.22-7.22Z"/><line id="Line_196" class="cls-1" x1="79.6" y1="2.78" x2="79.6" y2="32.79"/><line id="Line_197" class="cls-1" x1="94.05" y1="2.78" x2="94.05" y2="32.79"/><path id="Rectangle_455" class="cls-1" d="m72.38,75h0c-3.99,0-7.22-3.23-7.22-7.22v-15.56c0-3.99,3.23-7.22,7.22-7.22h0c3.99,0,7.22,3.23,7.22,7.22v15.56c0,3.99-3.23,7.22-7.22,7.22Z"/><path id="Rectangle_456" class="cls-1" d="m101.27,45h0c3.99,0,7.22,3.23,7.22,7.22v15.56c0,3.99-3.23,7.22-7.22,7.22h0c-3.99,0-7.22-3.23-7.22-7.22v-15.56c0-3.99,3.23-7.22,7.22-7.22Z"/><line id="Line_198" class="cls-1" x1="50.71" y1="45" x2="50.71" y2="75"/><line id="Line_199" class="cls-1" x1="122.93" y1="45" x2="122.93" y2="75"/><g id="Group_12546"><g id="Group_12545"><g id="Group_12544"><g id="Group_12543"><path id="Path_22954" class="cls-1" d="m100.15,97.39s15.28-12.03,24.79-19.35c10.01-7.7,17.78-4.44,24.04,1.98l-47.7,46.03h-61.83"/><path id="Path_22955" class="cls-1" d="m16.39,105.05c11.72-15.07,21.01-20.81,32.59-20.81,9.68,0,14.84,1.17,23.1,6.85h17.72c2.85,0,12.25,1.3,12.25,15.49h-37.31"/><path id="Path_22956" class="cls-1" d="m100.15,97.39s15.28-12.03,24.79-19.35c10.01-7.7,17.78-4.44,24.04,1.98l-47.7,46.03h-61.83"/><path id="Path_22957" class="cls-1" d="m89.8,91.1c2.85,0,12.25,1.3,12.25,15.49"/><path id="Path_22958" class="cls-1" d="m16.39,105.05c11.72-15.07,21.01-20.81,32.59-20.81,9.68,0,14.84,1.17,23.1,6.85h17.72c2.85,0,12.25,1.3,12.25,15.49h-37.31"/><path id="Path_22959" class="cls-1" d="m1.02,110.87l9.64-9.99,35.36,36.34-9.64,9.99"/><path id="Path_22960" class="cls-1" d="m1.02,110.87l9.64-9.99,35.36,36.34-9.64,9.99"/></g></g></g></g></g></svg>