<?xml version="1.0" encoding="UTF-8"?><svg id="Layer_1" xmlns="http://www.w3.org/2000/svg" viewBox="0 0 150 150"><defs><style>.cls-1{fill:none;stroke:#ff8200;stroke-linecap:round;stroke-linejoin:round;}</style></defs><polyline class="cls-1" points="50.88 77.06 50.88 47.13 72.47 47.13 72.47 77.8"/><polyline class="cls-1" points="72.47 77.8 72.47 28.56 94.06 28.56 94.06 77.8"/><polyline class="cls-1" points="94.06 77.8 94.06 9.99 115.65 9.99 115.65 77.8"/><path class="cls-1" d="m100.15,90.2s15.27-12.03,24.78-19.34c10-7.69,17.77-4.43,24.03,1.98l-47.68,46.01h-61.81"/><path class="cls-1" d="m16.41,97.86c11.71-15.06,21-20.8,32.57-20.8,9.68,0,14.84,1.17,23.09,6.85h17.72c2.85,0,12.24,1.3,12.24,15.48h-37.29"/><path class="cls-1" d="m100.15,90.2s15.27-12.03,24.78-19.34c10-7.69,17.77-4.43,24.03,1.98l-47.68,46.01h-61.81"/><path class="cls-1" d="m16.41,97.86c11.71-15.06,21-20.8,32.57-20.8,9.68,0,14.84,1.17,23.09,6.85h17.72c2.85,0,12.24,1.3,12.24,15.48h-37.29"/><polyline class="cls-1" points="1.04 103.68 10.68 93.7 46.02 130.03 36.39 140.01"/><polyline class="cls-1" points="1.04 103.68 10.68 93.7 46.02 130.03 36.39 140.01"/></svg>