<?xml version="1.0" encoding="UTF-8"?><svg id="Layer_1" xmlns="http://www.w3.org/2000/svg" viewBox="0 0 150 150"><defs><style>.cls-1{fill:none;stroke:#7700ec;stroke-linecap:round;stroke-linejoin:round;}</style></defs><path class="cls-1" d="m119.25,24.41c-6.54,0-11.85,5.32-11.85,11.85s5.32,11.85,11.85,11.85,11.85-5.32,11.85-11.85-5.32-11.85-11.85-11.85Z"/><path class="cls-1" d="m94.8,53.02c.12.12.23.24.32.38l24.14,34.05,23.94-33.69c.13-.26.3-.49.49-.7,3.41-4.95,5.2-10.75,5.2-16.79,0-16.34-13.29-29.63-29.63-29.63s-29.63,13.29-29.63,29.63c0,6.03,1.79,11.81,5.18,16.76h-.01Z"/><path class="cls-1" d="m90.56,62.81c.47,4.96.71,10.14.71,15.46,0,7.58-.49,14.86-1.42,21.62-3.43,25.32-12.71,43.46-23.64,43.46s-20.22-18.14-23.65-43.45c-.93-6.76-1.42-14.05-1.42-21.63s.5-14.87,1.42-21.63c3.43-25.31,12.72-43.45,23.65-43.45,5.8,0,11.14,5.12,15.39,13.72"/><path class="cls-1" d="m130.69,87.19c-.74,5.37-2.18,10.73-4.35,15.99-13.76,33.21-51.82,48.98-85.03,35.22C8.1,124.64-7.67,86.58,6.08,53.37,19.15,21.85,54.1,6.04,86.02,16.27c-1.98,3.26-3.48,6.85-4.42,10.64"/><path class="cls-1" d="m86.56,57.17c-14.59,2.14-29.45,1.97-44-.53-10.98-1.88-21.8-5.09-32.19-9.61"/><path id="Path_22971" class="cls-1" d="m10.37,109.5c35.58-15.48,75.99-15.5,111.58-.05"/></svg>