<svg xmlns="http://www.w3.org/2000/svg" width="30.717" height="30.717" viewBox="0 0 30.717 30.717">
  <g id="Group_12866" data-name="Group 12866" transform="translate(-1015.991 -2056.844)">
    <circle id="Ellipse_1503" data-name="Ellipse 1503" cx="15.359" cy="15.359" r="15.359" transform="translate(1015.991 2056.844)" fill="#2967b0"/>
    <g id="Group_12865" data-name="Group 12865">
      <g id="Group_12864" data-name="Group 12864">
        <path id="Path_23310" data-name="Path 23310" d="M1032.538,2070.107c.252-.284.46-.571.719-.815a3.949,3.949,0,0,1,2.839-1.121,6.584,6.584,0,0,1,1.784.218,3.488,3.488,0,0,1,2.478,2.6,10.924,10.924,0,0,1,.33,2.985c0,2.122-.007,4.243,0,6.365,0,.2-.055.251-.251.249q-1.64-.014-3.279,0c-.192,0-.234-.058-.233-.239q.009-3.029,0-6.057a5.457,5.457,0,0,0-.176-1.5,1.69,1.69,0,0,0-1.859-1.318,2.032,2.032,0,0,0-2.135,2.029,7.276,7.276,0,0,0-.058.947c0,1.963,0,3.926.005,5.89,0,.2-.048.253-.248.251q-1.651-.014-3.3,0c-.177,0-.228-.047-.227-.225q.006-5.83,0-11.662c0-.192.063-.237.245-.235q1.568.012,3.136,0c.193,0,.243.061.238.243C1032.531,2069.177,1032.538,2069.642,1032.538,2070.107Z" fill="#fdfdfd"/>
        <path id="Path_23311" data-name="Path 23311" d="M1026.549,2074.549c0,1.923,0,3.846.005,5.769,0,.214-.053.279-.274.276-1.092-.012-2.185-.009-3.278,0-.175,0-.228-.043-.227-.224q.008-5.839,0-11.681c0-.161.039-.218.21-.217,1.108.007,2.217.009,3.325,0,.213,0,.242.08.241.263Q1026.544,2071.642,1026.549,2074.549Z" fill="#fdfdfd"/>
        <path id="Path_23312" data-name="Path 23312" d="M1026.85,2064.613a2.182,2.182,0,1,1-2.178-2.172A2.188,2.188,0,0,1,1026.85,2064.613Z" fill="#fdfdfd"/>
      </g>
    </g>
  </g>
</svg>
