<?xml version="1.0" encoding="UTF-8"?><svg id="Layer_1" xmlns="http://www.w3.org/2000/svg" viewBox="0 0 150 150"><defs><style>.cls-1{fill:none;stroke:#ff8200;stroke-linecap:round;stroke-linejoin:round;}</style></defs><g id="Group_12550"><ellipse id="Ellipse_1475" class="cls-1" cx="75.03" cy="75.01" rx="15.63" ry="40.59"/><circle id="Ellipse_1476" class="cls-1" cx="75.03" cy="75.01" r="40.59"/><path id="Path_22970" class="cls-1" d="m40.2,55.53c22.19,9.65,47.39,9.66,69.59.03"/><path id="Path_22971" class="cls-1" d="m40.2,94.49c22.19-9.65,47.39-9.66,69.59-.03"/></g><g id="Group_12552"><g id="Group_12551"><path id="Path_22972" class="cls-1" d="m118.88,3.88h27.24v27.24l-13.62-13.62-10.86,10.86"/><path id="Path_22973" class="cls-1" d="m146.12,118.88v27.24h-27.24l13.62-13.62-10.86-10.86"/><path id="Path_22974" class="cls-1" d="m31.12,146.12H3.88v-27.24l13.62,13.62,10.86-10.86"/><path id="Path_22975" class="cls-1" d="m3.88,31.12V3.88h27.24l-13.62,13.62,10.86,10.86"/></g><path id="Path_22976" class="cls-1" d="m75,139.58c29.55,0,55.34-20.06,62.61-48.71"/><path id="Path_22977" class="cls-1" d="m10.42,75c0,29.65,20.2,55.5,48.97,62.67"/><path id="Path_22978" class="cls-1" d="m75,10.42c-28.17,0-53.08,18.26-61.59,45.11"/><path id="Path_22979" class="cls-1" d="m139.58,75c0-30.47-21.3-56.79-51.09-63.16"/></g><line id="Line_209" class="cls-1" x1="128.96" y1="75" x2="149.04" y2="75"/><line id="Line_210" class="cls-1" x1="75" y1="128.96" x2="75" y2="149.04"/><line id="Line_211" class="cls-1" x1="21.04" y1="75" x2=".96" y2="75"/><line id="Line_212" class="cls-1" x1="75" y1="21.04" x2="75" y2=".96"/></svg>