<?xml version="1.0" encoding="UTF-8"?><svg id="Layer_1" xmlns="http://www.w3.org/2000/svg" viewBox="0 0 150 150"><defs><style>.cls-1{stroke-dasharray:0 0 0 0 0 0 3.84 3.84;}.cls-1,.cls-2,.cls-3,.cls-4{fill:none;stroke:#7700ec;stroke-linecap:round;stroke-linejoin:round;}.cls-3{stroke-dasharray:0 0 0 4;}.cls-4{stroke-dasharray:0 0 0 0 0 0 3.82 3.82;}</style></defs><path class="cls-2" d="m75,23.37c-7.13,0-12.93,5.8-12.93,12.93s5.8,12.93,12.93,12.93,12.93-5.8,12.93-12.93-5.8-12.93-12.93-12.93Z"/><path class="cls-2" d="m48.32,54.59c.13.13.25.26.35.41l26.33,37.15,26.12-36.76c.14-.28.32-.54.53-.76,3.72-5.41,5.68-11.73,5.68-18.32,0-17.83-14.5-32.33-32.33-32.33s-32.33,14.5-32.33,32.33c0,6.58,1.95,12.89,5.65,18.28Z"/><path class="cls-2" d="m27.52,46.94l-23.65,7.86v90.17l34.54-11.51c.69-.23,1.44-.22,2.13.03l34.46,12.53,34.46-12.53c.69-.25,1.44-.26,2.13-.03l34.54,11.51V54.8l-23.65-7.86"/><line class="cls-2" x1="39.44" y1="71.87" x2="39.44" y2="73.87"/><line class="cls-1" x1="39.44" y1="77.71" x2="39.44" y2="129.57"/><line class="cls-2" x1="39.44" y1="131.49" x2="39.44" y2="133.49"/><line class="cls-2" x1="110.56" y1="71.87" x2="110.56" y2="73.87"/><line class="cls-4" x1="110.56" y1="77.69" x2="110.56" y2="129.25"/><line class="cls-2" x1="110.56" y1="131.16" x2="110.56" y2="133.16"/><line class="cls-3" x1="75" y1="146.02" x2="75" y2="110.67"/></svg>