<?xml version="1.0" encoding="UTF-8"?><svg id="Layer_2" xmlns="http://www.w3.org/2000/svg" viewBox="0 0 319.06 56.44"><g id="Artwork"><polygon points="6.26 16.7 6.26 6.26 16.7 6.26 16.7 0 0 0 0 16.7 6.26 16.7"/><path d="m16.75,37.96v-21.21h7.73c6.6,0,11,4.33,11,10.57s-4.39,10.63-11,10.63h-7.73Zm4.54-3.79h3.18c4.06,0,6.33-2.82,6.33-6.85s-2.27-6.79-6.33-6.79h-3.18v13.63Z"/><path d="m37.62,16.76h4.54v21.21h-4.54v-21.21Z"/><path d="m44.31,27.36c0-6.51,4-10.78,10.51-10.78,5.12,0,8.72,3.15,9.27,7.72h-4.54c-.55-2.33-2.24-3.88-4.85-3.88-3.54,0-5.76,2.85-5.76,6.94s2.12,6.94,5.76,6.94c2.42,0,4.88-1.27,5.3-4.24v-.27h-5.27v-3.61h9.48v11.78h-3.18l-.45-2.54c-1.12,1.48-3.18,2.73-6.18,2.73-6.06,0-10.09-4.27-10.09-10.78Z"/><path d="m67.24,16.76h4.54v21.21h-4.54v-21.21Z"/><path d="m74.18,16.76h16.81v3.91h-6.15v17.3h-4.54v-17.3h-6.12v-3.91Z"/><path d="m88.75,37.96l7.76-21.21h5.45l7.7,21.21h-4.88l-1.64-4.63h-8.06l-1.64,4.63h-4.7Zm7.54-8.3h5.6l-2.82-8.06-2.79,8.06Z"/><path d="m111.59,37.96v-21.21h4.54v17.3h8.42v3.91h-12.97Z"/><path d="m133.64,27.36c0-6.51,3.97-10.78,10.39-10.78,5.03,0,8.57,3.15,9.12,7.76h-4.61c-.55-2.36-2.24-3.91-4.76-3.91-3.45,0-5.51,2.85-5.51,6.94s2.03,6.94,5.45,6.94c2.57,0,4.27-1.55,4.82-3.91h4.57c-.52,4.61-4.18,7.76-9.36,7.76-6.3,0-10.12-4.27-10.12-10.78Z"/><path d="m165.51,38.14c-6.24,0-10.51-4.6-10.51-10.78s4.27-10.78,10.51-10.78,10.51,4.6,10.51,10.78-4.27,10.78-10.51,10.78Zm0-3.85c3.54,0,5.85-2.94,5.85-6.94s-2.3-6.94-5.85-6.94-5.88,2.94-5.88,6.94,2.3,6.94,5.88,6.94Z"/><path d="m178.17,37.96v-21.21h4.12l9,13.36v-13.36h4.48v21.21h-4.15l-9-13.36v13.36h-4.45Z"/><path d="m198.16,37.96v-21.21h4.12l9,13.36v-13.36h4.48v21.21h-4.15l-9-13.36v13.36h-4.45Z"/><path d="m218.15,16.76h14.24v3.91h-9.69v4.76h7.88v3.73h-7.88v4.91h10.03v3.91h-14.57v-21.21Z"/><path d="m241.44,27.12l-6.57-10.36h5.39l4.12,6.73,4.27-6.73h5.09l-6.57,10.3,6.91,10.91h-5.42l-4.45-7.27-4.61,7.27h-5.06l6.91-10.85Z"/><path d="m256.2,16.76h4.54v21.21h-4.54v-21.21Z"/><path d="m273.4,38.14c-6.24,0-10.51-4.6-10.51-10.78s4.27-10.78,10.51-10.78,10.51,4.6,10.51,10.78-4.27,10.78-10.51,10.78Zm0-3.85c3.54,0,5.85-2.94,5.85-6.94s-2.3-6.94-5.85-6.94-5.88,2.94-5.88,6.94,2.3,6.94,5.88,6.94Z"/><path d="m286.06,37.96v-21.21h4.12l9,13.36v-13.36h4.48v21.21h-4.15l-9-13.36v13.36h-4.45Z"/><path d="m306.57,36.07v.39h-.65v1.56h-.43v-1.56h-.64v-.39h1.72Zm.82,0l.64,1.42.63-1.42h.59v1.95h-.41v-1.47l-.65,1.47h-.35l-.64-1.47v1.47h-.41v-1.95h.59Z"/><polygon points="312.8 37.25 312.8 47.68 302.37 47.68 302.37 53.94 319.06 53.94 319.06 37.25 312.8 37.25"/><path d="m16.8,53.76l3.47-9.1h1.34l3.46,9.1h-1.21l-.96-2.46h-3.97l-.96,2.46h-1.17Zm2.47-3.48h3.29l-1.65-4.38-1.64,4.38Z"/><path d="m30.7,44.66h3.22c1.94,0,3.02.94,3.02,2.41,0,1.04-.57,1.68-1.43,1.98.96.18,1.81.81,1.81,2.12,0,1.61-1.14,2.6-3.3,2.6h-3.32v-9.1Zm1.13,1.03v2.92h2.15c1.17,0,1.83-.55,1.83-1.47s-.65-1.46-1.83-1.46h-2.15Zm0,3.94v3.11h2.18c1.4,0,2.15-.59,2.15-1.52,0-1.03-.79-1.59-2.15-1.59h-2.18Z"/><path d="m42.54,47.13v1.04h-.53c-1.39,0-1.77,1.16-1.77,2.21v3.38h-1.07v-6.63h.92l.14,1c.31-.51.82-1,2-1h.3Z"/><path d="m43.45,50.44c0-2.02,1.35-3.39,3.29-3.39s3.29,1.38,3.29,3.39-1.35,3.39-3.29,3.39-3.29-1.38-3.29-3.39Zm5.49,0c0-1.42-.88-2.44-2.2-2.44s-2.2,1.03-2.2,2.44.88,2.44,2.2,2.44,2.2-1.03,2.2-2.44Z"/><path d="m51.62,50.44c0-2.02,1.35-3.39,3.29-3.39s3.29,1.38,3.29,3.39-1.35,3.39-3.29,3.39-3.29-1.38-3.29-3.39Zm5.49,0c0-1.42-.88-2.44-2.2-2.44s-2.2,1.03-2.2,2.44.88,2.44,2.2,2.44,2.2-1.03,2.2-2.44Z"/><path d="m60.02,44.66h1.07v5.99l3.33-3.52h1.31l-2.59,2.74,2.77,3.89h-1.29l-2.2-3.12-1.34,1.38v1.74h-1.07v-9.1Z"/><path d="m66.56,47.13h1.2v-.74c0-1.17.49-1.73,1.73-1.73h1.21v.98h-1.14c-.53,0-.73.22-.73.73v.77h1.87v.98h-1.87v5.66h-1.07v-5.66h-1.2v-.98Z"/><path d="m71.49,45.32c0-.4.3-.69.69-.69s.69.29.69.69-.3.69-.69.69-.69-.29-.69-.69Zm.14,1.81h1.07v6.63h-1.07v-6.63Z"/><path d="m74.52,50.44c0-2.02,1.27-3.39,3.15-3.39s3.09,1.18,3.15,3.15c0,.14-.01.3-.03.46h-5.15v.09c.04,1.26.83,2.15,2.09,2.15.94,0,1.66-.49,1.89-1.35h1.08c-.26,1.33-1.35,2.3-2.89,2.3-1.99,0-3.29-1.37-3.29-3.39Zm5.15-.68c-.1-1.14-.88-1.78-1.99-1.78-.98,0-1.87.7-1.98,1.78h3.96Z"/><path d="m82.64,44.66h1.07v9.1h-1.07v-9.1Z"/><path d="m90.98,44.66h1.07v9.1h-.92l-.14-1.07c-.44.61-1.16,1.14-2.27,1.14-1.83,0-3.19-1.24-3.19-3.39,0-2.03,1.35-3.39,3.19-3.39,1.12,0,1.87.45,2.27,1.09v-3.48Zm.01,5.81c0-1.46-.88-2.47-2.18-2.47s-2.2,1-2.2,2.44.88,2.44,2.2,2.44,2.18-1,2.18-2.42Z"/><path d="m95.61,53.72c0,1.1-.69,1.77-1.83,1.79v-.61c.83-.01,1.09-.6,1.09-1.04,0-.06,0-.12-.01-.17-.1.1-.29.16-.44.16-.39,0-.69-.23-.69-.7,0-.43.31-.75.86-.75.64,0,1.03.61,1.03,1.33Z"/><path d="m103.19,44.66h1.13v6.96c0,1.4-.74,2.15-2.15,2.15h-1.18v-1.04h1.04c.82,0,1.16-.38,1.16-1.2v-6.86Z"/><path d="m106.39,45.32c0-.4.3-.69.69-.69s.69.29.69.69-.3.69-.69.69-.69-.29-.69-.69Zm.14,1.81h1.07v6.63h-1.07v-6.63Z"/><path d="m109.42,50.44c0-2.02,1.35-3.39,3.29-3.39s3.29,1.38,3.29,3.39-1.35,3.39-3.29,3.39-3.29-1.38-3.29-3.39Zm5.49,0c0-1.42-.88-2.44-2.2-2.44s-2.2,1.03-2.2,2.44.88,2.44,2.2,2.44,2.2-1.03,2.2-2.44Z"/><path d="m128.02,52.78v.98h-.58c-.88,0-1.18-.38-1.2-1.03-.42.6-1.08,1.1-2.22,1.1-1.46,0-2.44-.73-2.44-1.94,0-1.33.92-2.07,2.67-2.07h1.95v-.46c0-.86-.61-1.38-1.65-1.38-.94,0-1.56.44-1.69,1.12h-1.07c.16-1.3,1.21-2.07,2.81-2.07,1.69,0,2.67.84,2.67,2.39v2.9c0,.35.13.44.43.44h.34Zm-1.83-2.05h-2.05c-.95,0-1.48.35-1.48,1.11,0,.65.56,1.09,1.44,1.09,1.33,0,2.09-.77,2.09-1.87v-.33Z"/><path d="m135.36,50.07v3.69h-1.07v-3.63c0-1.38-.64-2.11-1.79-2.11-1.25,0-2,.92-2,2.42v3.31h-1.07v-6.63h.92l.14.9c.39-.51,1.07-.97,2.18-.97,1.5,0,2.68.82,2.68,3.02Z"/><path d="m142.47,44.66h1.07v9.1h-.92l-.14-1.07c-.44.61-1.16,1.14-2.27,1.14-1.83,0-3.19-1.24-3.19-3.39,0-2.03,1.35-3.39,3.19-3.39,1.12,0,1.87.45,2.27,1.09v-3.48Zm.01,5.81c0-1.46-.88-2.47-2.18-2.47s-2.2,1-2.2,2.44.88,2.44,2.2,2.44,2.18-1,2.18-2.42Z"/><path d="m149.75,53.76v-9.1h2.91c2.85,0,4.58,1.82,4.58,4.55s-1.73,4.55-4.58,4.55h-2.91Zm1.13-1.04h1.78c2.21,0,3.42-1.39,3.42-3.51s-1.21-3.51-3.42-3.51h-1.78v7.02Z"/><path d="m158.97,45.32c0-.4.3-.69.69-.69s.69.29.69.69-.3.69-.69.69-.69-.29-.69-.69Zm.14,1.81h1.07v6.63h-1.07v-6.63Z"/><path d="m167.6,47.13h.92v6.31c0,1.91-1.01,3-3.29,3-1.69,0-2.87-.79-3.04-2.25h1.09c.18.83.92,1.3,2.03,1.3,1.39,0,2.15-.65,2.15-2.09v-.78c-.44.75-1.16,1.22-2.27,1.22-1.83,0-3.19-1.24-3.19-3.39,0-2.03,1.35-3.39,3.19-3.39,1.12,0,1.86.48,2.27,1.22l.14-1.14Zm-.13,3.34c0-1.46-.88-2.47-2.18-2.47s-2.2,1-2.2,2.44.88,2.44,2.2,2.44,2.18-1,2.18-2.42Z"/><path d="m170.44,45.32c0-.4.3-.69.69-.69s.69.29.69.69-.3.69-.69.69-.69-.29-.69-.69Zm.14,1.81h1.07v6.63h-1.07v-6.63Z"/><path d="m174.19,48.1h-1.2v-.98h1.2v-1.86h1.07v1.86h1.72v.98h-1.72v3.91c0,.56.19.77.77.77h1.05v.98h-1.16c-1.27,0-1.73-.56-1.73-1.73v-3.93Z"/><path d="m184.7,52.78v.98h-.58c-.88,0-1.18-.38-1.2-1.03-.42.6-1.08,1.1-2.22,1.1-1.46,0-2.44-.73-2.44-1.94,0-1.33.92-2.07,2.67-2.07h1.95v-.46c0-.86-.61-1.38-1.65-1.38-.94,0-1.56.44-1.69,1.12h-1.07c.16-1.3,1.21-2.07,2.81-2.07,1.69,0,2.67.84,2.67,2.39v2.9c0,.35.13.44.43.44h.34Zm-1.83-2.05h-2.05c-.95,0-1.48.35-1.48,1.11,0,.65.56,1.09,1.44,1.09,1.33,0,2.09-.77,2.09-1.87v-.33Z"/><path d="m186.11,44.66h1.07v9.1h-1.07v-9.1Z"/><path d="m193.39,44.66h3.48c1.82,0,3.03,1.09,3.03,2.8,0,1.27-.77,2.26-1.94,2.59l2.04,3.72h-1.27l-1.92-3.5h-2.29v3.5h-1.13v-9.1Zm1.13,1.04v3.52h2.26c1.2,0,1.96-.7,1.96-1.77s-.77-1.76-1.95-1.76h-2.27Z"/><path d="m201.21,50.44c0-2.02,1.27-3.39,3.15-3.39s3.09,1.18,3.15,3.15c0,.14-.01.3-.03.46h-5.15v.09c.04,1.26.83,2.15,2.09,2.15.94,0,1.66-.49,1.88-1.35h1.08c-.26,1.33-1.35,2.3-2.89,2.3-1.99,0-3.29-1.37-3.29-3.39Zm5.15-.68c-.1-1.14-.88-1.78-1.99-1.78-.98,0-1.87.7-1.98,1.78h3.97Z"/><path d="m215.52,52.78v.98h-.58c-.88,0-1.18-.38-1.2-1.03-.42.6-1.08,1.1-2.22,1.1-1.46,0-2.44-.73-2.44-1.94,0-1.33.92-2.07,2.67-2.07h1.95v-.46c0-.86-.61-1.38-1.65-1.38-.94,0-1.56.44-1.69,1.12h-1.07c.16-1.3,1.21-2.07,2.81-2.07,1.69,0,2.66.84,2.66,2.39v2.9c0,.35.13.44.43.44h.34Zm-1.83-2.05h-2.05c-.95,0-1.48.35-1.48,1.11,0,.65.56,1.09,1.44,1.09,1.33,0,2.09-.77,2.09-1.87v-.33Z"/><path d="m216.94,44.66h1.07v9.1h-1.07v-9.1Z"/><path d="m220.55,48.1h-1.2v-.98h1.2v-1.86h1.07v1.86h1.72v.98h-1.72v3.91c0,.56.2.77.77.77h1.05v.98h-1.16c-1.27,0-1.73-.56-1.73-1.73v-3.93Z"/><path d="m224.29,47.13h1.13l2.04,5.29,1.98-5.29h1.13l-3.06,7.75c-.42,1.07-.66,1.48-1.6,1.48h-1.27v-.98h.95c.61,0,.71-.16.96-.78l.33-.81-2.59-6.67Z"/><path d="m235.79,49.21c0-2.76,1.7-4.63,4.34-4.63,2.01,0,3.48,1.17,3.82,3.06h-1.2c-.35-1.26-1.31-2.02-2.68-2.02-1.91,0-3.13,1.48-3.13,3.59s1.17,3.59,3.08,3.59c1.4,0,2.38-.74,2.72-2.02h1.2c-.34,1.89-1.85,3.06-3.9,3.06-2.61,0-4.25-1.85-4.25-4.63Z"/><path d="m245.51,50.44c0-2.02,1.35-3.39,3.29-3.39s3.29,1.38,3.29,3.39-1.35,3.39-3.29,3.39-3.29-1.38-3.29-3.39Zm5.49,0c0-1.42-.88-2.44-2.2-2.44s-2.2,1.03-2.2,2.44.88,2.44,2.2,2.44,2.2-1.03,2.2-2.44Z"/><path d="m263.81,49.94v3.82h-1.07v-3.76c0-1.3-.57-1.98-1.57-1.98-1.1,0-1.78.83-1.78,2.18v3.55h-1.07v-3.76c0-1.3-.58-1.98-1.6-1.98-1.09,0-1.75.91-1.75,2.24v3.5h-1.07v-6.63h.92l.14.91c.35-.48.91-.99,1.94-.99.92,0,1.72.42,2.09,1.26.4-.71,1.12-1.26,2.3-1.26,1.38,0,2.51.79,2.51,2.89Z"/><path d="m272.3,50.44c0,2.03-1.35,3.39-3.18,3.39-1.12,0-1.87-.46-2.28-1.09v3.61h-1.07v-9.23h.92l.14,1.07c.44-.61,1.16-1.14,2.28-1.14,1.83,0,3.18,1.23,3.18,3.39Zm-1.09,0c0-1.44-.88-2.44-2.2-2.44s-2.18,1-2.18,2.42.88,2.47,2.18,2.47,2.2-1,2.2-2.44Z"/><path d="m280.32,52.78v.98h-.59c-.88,0-1.18-.38-1.2-1.03-.42.6-1.08,1.1-2.22,1.1-1.46,0-2.44-.73-2.44-1.94,0-1.33.92-2.07,2.67-2.07h1.95v-.46c0-.86-.61-1.38-1.65-1.38-.94,0-1.56.44-1.69,1.12h-1.07c.16-1.3,1.21-2.07,2.81-2.07,1.69,0,2.67.84,2.67,2.39v2.9c0,.35.13.44.43.44h.34Zm-1.83-2.05h-2.05c-.95,0-1.48.35-1.48,1.11,0,.65.56,1.09,1.44,1.09,1.33,0,2.09-.77,2.09-1.87v-.33Z"/><path d="m287.67,50.07v3.69h-1.07v-3.63c0-1.38-.64-2.11-1.79-2.11-1.25,0-2,.92-2,2.42v3.31h-1.07v-6.63h.92l.14.9c.39-.51,1.07-.97,2.18-.97,1.5,0,2.68.82,2.68,3.02Z"/><path d="m288.72,47.13h1.13l2.04,5.29,1.98-5.29h1.13l-3.06,7.75c-.42,1.07-.66,1.48-1.6,1.48h-1.27v-.98h.95c.61,0,.71-.16.96-.78l.33-.81-2.59-6.67Z"/></g></svg>