<svg xmlns="http://www.w3.org/2000/svg" width="226.77" height="36.977" viewBox="0 0 226.77 36.977">
  <g id="Group_4161" data-name="Group 4161" transform="translate(-93.767 -31.315)">
    <g id="Group_26" data-name="Group 26" transform="translate(93.767 31.315)">
      <path id="Path_45" data-name="Path 45" d="M126.033,36.543V39.6l2.224.652v3.066l-2.228-.443V40.244l-2.227-.527V35.672l-6.689-2.616v6.159l-2.229-.541V32.185l-2.228-.87V68.292l2.228-.906V62.67l2.229-.677v4.49l13.377-5.43V38.286Zm-6.692,1.1,2.231.654v3.693l-2.231-.446ZM114.884,42.8l2.229.331v3.7l-2.229-.136Zm2.229,15.1-2.229.452V54.3l2.229-.252Zm4.458.612-2.231.538V51.985l-2.228.149V48.7l2.228.04v3.242l2.231-.145Zm0-13.215,2.231.238v3.289l-2.231-.041Zm4.462,13.982-2.231.678V56.544l2.231-.452Zm2.23-3.644-2.23.454V47.115l2.23.151Z" transform="translate(-97.655 -31.315)" fill="#3785c5"/>
      <path id="Path_46" data-name="Path 46" d="M93.767,38.5V60.917l13,6.844V31.767Z" transform="translate(-93.767 -31.408)" fill="#1d489f"/>
    </g>
    <g id="Group_27" data-name="Group 27" transform="translate(136.089 39.176)">
      <path id="Path_47" data-name="Path 47" d="M156.181,50.491c0,2.367-1.647,3.624-4.282,3.624H147.06V41.473h4.427c2.636,0,4.283,1.174,4.283,3.439a2.709,2.709,0,0,1-1.647,2.676A3.06,3.06,0,0,1,156.181,50.491Zm-4.715-3.706c1.462,0,2.244-.556,2.244-1.75s-.782-1.709-2.244-1.709h-2.327v3.459Zm-2.327,5.476h2.718c1.441,0,2.224-.72,2.224-1.852,0-1.154-.782-1.854-2.224-1.854h-2.718Z" transform="translate(-147.06 -41.267)" fill="#ff8200"/>
      <path id="Path_48" data-name="Path 48" d="M166.892,41.473l4.859,12.642h-2.182l-1.3-3.5h-4.839l-1.3,3.5h-2.162l4.859-12.642Zm-2.78,7.289h3.459l-1.73-4.674Z" transform="translate(-149.718 -41.267)" fill="#ff8200"/>
      <path id="Path_49" data-name="Path 49" d="M183.379,51.4l-3.933-6.136v8.854h-2.1V41.473h2l4.1,6.589,4.077-6.589h1.915V54.115h-2.1V45.261L183.462,51.4Z" transform="translate(-153.295 -41.267)" fill="#ff8200"/>
      <path id="Path_50" data-name="Path 50" d="M202.344,41.473h4.262c3.727,0,6.136,2.471,6.136,6.321s-2.409,6.321-6.136,6.321h-4.262Zm4.18,10.727c2.656,0,4.077-1.709,4.077-4.406,0-2.718-1.421-4.427-4.077-4.427h-2.038V52.2Z" transform="translate(-158.44 -41.267)"/>
      <path id="Path_51" data-name="Path 51" d="M220.51,54.115h-2.141V41.473h2.141Z" transform="translate(-161.739 -41.267)"/>
      <path id="Path_52" data-name="Path 52" d="M232.6,51.55V49.12h-2.389V47.329h4.365v5.065a6.069,6.069,0,0,1-4.509,1.873c-3.748,0-6.074-2.676-6.074-6.526a6.187,6.187,0,0,1,6.321-6.527,5.847,5.847,0,0,1,3.583,1.091v2.224a5.146,5.146,0,0,0-3.583-1.4c-2.471,0-4.159,1.894-4.159,4.612,0,2.7,1.462,4.632,3.953,4.632A3.825,3.825,0,0,0,232.6,51.55Z" transform="translate(-162.897 -41.214)"/>
      <path id="Path_53" data-name="Path 53" d="M242.785,54.115h-2.142V41.473h2.142Z" transform="translate(-166.324 -41.267)"/>
      <path id="Path_54" data-name="Path 54" d="M246.141,41.473h10.542v1.895h-4.2V54.115h-2.141V43.368h-4.2Z" transform="translate(-167.456 -41.267)"/>
      <path id="Path_55" data-name="Path 55" d="M266.336,41.473l4.859,12.642h-2.182l-1.3-3.5h-4.839l-1.3,3.5h-2.162l4.859-12.642Zm-2.78,7.289h3.459l-1.73-4.674Z" transform="translate(-170.189 -41.267)"/>
      <path id="Path_56" data-name="Path 56" d="M276.791,41.473h2.141V52.2h6.074v1.915h-8.215Z" transform="translate(-173.765 -41.267)"/>
      <path id="Path_57" data-name="Path 57" d="M298.276,48.988v5.127h-2.141V41.473h4.879c2.615,0,4.3,1.317,4.3,3.788a3.44,3.44,0,0,1-3.232,3.645l3.664,5.209H303.32l-3.52-5.127Zm0-1.791h2.7c1.42,0,2.223-.762,2.223-1.936s-.8-1.935-2.223-1.935h-2.7Z" transform="translate(-177.747 -41.267)"/>
      <path id="Path_58" data-name="Path 58" d="M319.042,41.473v1.895h-6.156V46.7h5.58v1.874h-5.58V52.2h6.156v1.915h-8.256V41.473Z" transform="translate(-180.763 -41.267)"/>
      <path id="Path_59" data-name="Path 59" d="M330.047,41.473l4.859,12.642h-2.183l-1.3-3.5h-4.839l-1.3,3.5h-2.162l4.859-12.642Zm-2.78,7.289h3.459L329,44.088Z" transform="translate(-183.304 -41.267)"/>
      <path id="Path_60" data-name="Path 60" d="M340.5,41.473h2.142V52.2h6.074v1.915H340.5Z" transform="translate(-186.88 -41.267)"/>
      <path id="Path_61" data-name="Path 61" d="M350.408,41.473H360.95v1.895h-4.2V54.115h-2.141V43.368h-4.2Z" transform="translate(-188.919 -41.267)"/>
      <path id="Path_62" data-name="Path 62" d="M374.129,41.473h2.265l-4.591,7.6v5.044h-2.121V49.071l-4.57-7.6h2.326l3.356,5.662Z" transform="translate(-191.946 -41.267)"/>
    </g>
    <g id="Group_28" data-name="Group 28" transform="translate(136.094 56.193)">
      <path id="Path_63" data-name="Path 63" d="M149.781,63.131l2.076,5.31h-.692l-.614-1.6h-2.189l-.605,1.6h-.692l2.075-5.31Zm-1.194,3.113h1.73l-.864-2.266Z" transform="translate(-147.066 -62.742)"/>
      <path id="Path_64" data-name="Path 64" d="M160.345,66.945c0,.969-.674,1.5-1.765,1.5h-1.919v-5.31h1.747c1.1,0,1.755.493,1.755,1.41a1.137,1.137,0,0,1-.778,1.15A1.281,1.281,0,0,1,160.345,66.945Zm-1.937-1.5c.709,0,1.1-.285,1.1-.865s-.389-.848-1.1-.848h-1.082V65.44Zm-1.082,2.4h1.254c.718,0,1.1-.364,1.1-.917s-.38-.916-1.1-.916h-1.254Z" transform="translate(-149.041 -62.742)"/>
      <path id="Path_65" data-name="Path 65" d="M164.492,65.611a.824.824,0,0,0-.433-.1.93.93,0,0,0-.891.717V68.8h-.649v-3.84h.649v.5a1.073,1.073,0,0,1,.951-.58.949.949,0,0,1,.372.06Z" transform="translate(-150.247 -63.103)"/>
      <path id="Path_66" data-name="Path 66" d="M167.356,68.88a2.014,2.014,0,1,1,1.764-2A1.8,1.8,0,0,1,167.356,68.88Zm0-3.425c-.692,0-1.107.588-1.107,1.427s.415,1.427,1.107,1.427,1.107-.588,1.107-1.427S168.047,65.455,167.356,65.455Z" transform="translate(-150.879 -63.103)"/>
      <path id="Path_67" data-name="Path 67" d="M172.648,68.88a2.014,2.014,0,1,1,1.765-2A1.8,1.8,0,0,1,172.648,68.88Zm0-3.425c-.692,0-1.107.588-1.107,1.427s.415,1.427,1.107,1.427,1.108-.588,1.108-1.427S173.34,65.455,172.648,65.455Z" transform="translate(-151.969 -63.103)"/>
      <path id="Path_68" data-name="Path 68" d="M179.73,68.361h-.8l-1.773-1.9v1.9H176.5V62.739h.649v3.4l1.7-1.617h.839l-1.885,1.755Z" transform="translate(-153.126 -62.661)"/>
      <path id="Path_69" data-name="Path 69" d="M183.23,63.315a.749.749,0,0,0-.407-.1.612.612,0,0,0-.631.7V64.5h.865v.554h-.865v3.286h-.64V65.054H180.9V64.5h.649v-.64a1.129,1.129,0,0,1,1.177-1.22,1.243,1.243,0,0,1,.5.087Z" transform="translate(-154.031 -62.641)"/>
      <path id="Path_70" data-name="Path 70" d="M184.924,63.831a.421.421,0,0,1-.415-.415.419.419,0,0,1,.839,0A.423.423,0,0,1,184.924,63.831Zm.329,4.584H184.6v-3.84h.649Z" transform="translate(-154.774 -62.715)"/>
      <path id="Path_71" data-name="Path 71" d="M187.261,66.995a1.227,1.227,0,0,0,1.289,1.314,1.657,1.657,0,0,0,1.09-.363v.6a1.848,1.848,0,0,1-1.167.338,2.012,2.012,0,0,1-.138-4c1.037,0,1.574.753,1.574,1.877v.233Zm.035-.511h1.981c-.026-.562-.312-1.047-.935-1.047C187.832,65.438,187.417,65.775,187.3,66.484Z" transform="translate(-155.208 -63.103)"/>
      <path id="Path_72" data-name="Path 72" d="M192.585,68.361h-.649V62.739h.649Z" transform="translate(-156.303 -62.661)"/>
      <path id="Path_73" data-name="Path 73" d="M196.74,67.91a1.353,1.353,0,0,1-1.082.528,2.019,2.019,0,0,1,0-4,1.353,1.353,0,0,1,1.082.528V62.739h.657v5.622h-.657Zm0-2.248a1.106,1.106,0,0,0-.986-.631c-.735,0-1.167.6-1.167,1.41s.432,1.41,1.167,1.41a1.1,1.1,0,0,0,.986-.631Z" transform="translate(-156.713 -62.661)"/>
      <path id="Path_74" data-name="Path 74" d="M204.5,63.131l2.076,5.31h-.692l-.614-1.6h-2.189l-.605,1.6h-.692l2.075-5.31ZM203.3,66.244h1.73l-.864-2.266Z" transform="translate(-158.329 -62.742)"/>
      <path id="Path_75" data-name="Path 75" d="M208.588,67.808a1.86,1.86,0,0,0,1.263.519c.424,0,.8-.156.8-.536,0-.285-.216-.442-.553-.554l-.527-.182c-.58-.19-.969-.467-.969-1.09,0-.674.6-1.082,1.358-1.082a2,2,0,0,1,1.141.338V65.9a1.716,1.716,0,0,0-1.141-.459c-.4,0-.727.173-.727.5,0,.311.207.415.571.545l.588.2a1.111,1.111,0,0,1,.9,1.081c0,.709-.631,1.116-1.436,1.116a2.128,2.128,0,0,1-1.263-.38Z" transform="translate(-159.73 -63.103)"/>
      <path id="Path_76" data-name="Path 76" d="M212.934,67.808a1.859,1.859,0,0,0,1.263.519c.423,0,.8-.156.8-.536,0-.285-.217-.442-.554-.554l-.528-.182c-.58-.19-.969-.467-.969-1.09,0-.674.6-1.082,1.358-1.082a2,2,0,0,1,1.142.338V65.9a1.716,1.716,0,0,0-1.142-.459c-.4,0-.726.173-.726.5,0,.311.207.415.57.545l.588.2a1.11,1.11,0,0,1,.9,1.081c0,.709-.631,1.116-1.435,1.116a2.126,2.126,0,0,1-1.263-.38Z" transform="translate(-160.625 -63.103)"/>
      <path id="Path_77" data-name="Path 77" d="M217.853,66.995a1.227,1.227,0,0,0,1.289,1.314,1.656,1.656,0,0,0,1.09-.363v.6a1.848,1.848,0,0,1-1.167.338,2.012,2.012,0,0,1-.138-4c1.038,0,1.574.753,1.574,1.877v.233Zm.035-.511h1.981c-.026-.562-.311-1.047-.934-1.047C218.424,65.438,218.01,65.775,217.888,66.484Z" transform="translate(-161.506 -63.103)"/>
      <path id="Path_78" data-name="Path 78" d="M223.447,68.56H222.8V65.274h-.8v-.554h.8V63.708h.649v1.013h.891v.554h-.891Z" transform="translate(-162.49 -62.861)"/>
      <path id="Path_79" data-name="Path 79" d="M231.031,67.257l-1.825-2.9v4.083h-.666v-5.31h.631l1.885,3.053,1.877-3.053h.6v5.31h-.666V64.359l-1.8,2.9Z" transform="translate(-163.838 -62.742)"/>
      <path id="Path_80" data-name="Path 80" d="M238.477,66.251c0-.476-.355-.77-.917-.77a1.931,1.931,0,0,0-1.09.338V65.2a2.228,2.228,0,0,1,1.194-.32,1.274,1.274,0,0,1,1.444,1.315v2.6h-.631v-.286a1.5,1.5,0,0,1-1,.355,1.287,1.287,0,0,1-1.427-1.228,1.307,1.307,0,0,1,1.461-1.2,1.614,1.614,0,0,1,.961.311Zm0,1.2a.93.93,0,0,0-.891-.476c-.467,0-.917.207-.917.666s.45.683.917.683a.93.93,0,0,0,.891-.476Z" transform="translate(-165.385 -63.103)"/>
      <path id="Path_81" data-name="Path 81" d="M241.359,64.963h.649v.484a1.435,1.435,0,0,1,1.132-.562,1.269,1.269,0,0,1,1.349,1.4V68.8h-.658V66.389a.8.8,0,0,0-.847-.908,1.041,1.041,0,0,0-.977.718v2.6h-.649Z" transform="translate(-166.476 -63.103)"/>
      <path id="Path_82" data-name="Path 82" d="M248.812,66.251c0-.476-.354-.77-.917-.77a1.933,1.933,0,0,0-1.09.338V65.2a2.228,2.228,0,0,1,1.194-.32,1.275,1.275,0,0,1,1.445,1.315v2.6h-.631v-.286a1.5,1.5,0,0,1-.994.355,1.287,1.287,0,0,1-1.427-1.228,1.307,1.307,0,0,1,1.461-1.2,1.612,1.612,0,0,1,.96.311Zm0,1.2a.93.93,0,0,0-.891-.476c-.467,0-.916.207-.916.666s.449.683.916.683a.93.93,0,0,0,.891-.476Z" transform="translate(-167.512 -63.103)"/>
      <path id="Path_83" data-name="Path 83" d="M254.131,68.292a1.354,1.354,0,0,1-1.073.519,1.982,1.982,0,0,1,0-3.927,1.351,1.351,0,0,1,1.073.511v-.432h.657V68.5a1.749,1.749,0,0,1-1.877,1.86,2.2,2.2,0,0,1-1.236-.347V69.3a1.711,1.711,0,0,0,1.236.476,1.137,1.137,0,0,0,1.22-1.229Zm0-2.231a1.113,1.113,0,0,0-.978-.6c-.727,0-1.15.58-1.15,1.384s.423,1.375,1.15,1.375a1.114,1.114,0,0,0,.978-.6Z" transform="translate(-168.532 -63.103)"/>
      <path id="Path_84" data-name="Path 84" d="M257.486,66.995a1.227,1.227,0,0,0,1.289,1.314,1.659,1.659,0,0,0,1.09-.363v.6a1.848,1.848,0,0,1-1.167.338,2.012,2.012,0,0,1-.138-4c1.037,0,1.574.753,1.574,1.877v.233Zm.035-.511H259.5c-.026-.562-.312-1.047-.935-1.047C258.057,65.438,257.642,65.775,257.521,66.484Z" transform="translate(-169.664 -63.103)"/>
      <path id="Path_85" data-name="Path 85" d="M266.053,64.884c.778,0,1.21.546,1.21,1.375V68.8h-.657V66.364c0-.537-.233-.891-.727-.891a.9.9,0,0,0-.848.683V68.8h-.648V66.364c0-.537-.233-.891-.727-.891a.9.9,0,0,0-.847.683V68.8h-.649v-3.84h.649v.449a1.2,1.2,0,0,1,1.037-.528,1.124,1.124,0,0,1,1.038.614A1.39,1.39,0,0,1,266.053,64.884Z" transform="translate(-170.758 -63.103)"/>
      <path id="Path_86" data-name="Path 86" d="M270.326,66.995a1.227,1.227,0,0,0,1.289,1.314,1.657,1.657,0,0,0,1.09-.363v.6a1.848,1.848,0,0,1-1.167.338,2.012,2.012,0,0,1-.138-4c1.037,0,1.574.753,1.574,1.877v.233Zm.035-.511h1.981c-.026-.562-.312-1.047-.935-1.047C270.9,65.438,270.482,65.775,270.361,66.484Z" transform="translate(-172.307 -63.103)"/>
      <path id="Path_87" data-name="Path 87" d="M275,64.963h.649v.484a1.435,1.435,0,0,1,1.133-.562,1.269,1.269,0,0,1,1.349,1.4V68.8h-.658V66.389a.8.8,0,0,0-.847-.908,1.041,1.041,0,0,0-.978.718v2.6H275Z" transform="translate(-173.402 -63.103)"/>
      <path id="Path_88" data-name="Path 88" d="M281.366,68.56h-.649V65.274h-.8v-.554h.8V63.708h.649v1.013h.89v.554h-.89Z" transform="translate(-174.413 -62.861)"/>
      <path id="Path_89" data-name="Path 89" d="M288.455,66.251c0-.476-.354-.77-.916-.77a1.934,1.934,0,0,0-1.09.338V65.2a2.228,2.228,0,0,1,1.194-.32,1.275,1.275,0,0,1,1.445,1.315v2.6h-.631v-.286a1.5,1.5,0,0,1-.994.355,1.287,1.287,0,0,1-1.427-1.228,1.307,1.307,0,0,1,1.461-1.2,1.612,1.612,0,0,1,.96.311Zm0,1.2a.929.929,0,0,0-.891-.476c-.467,0-.916.207-.916.666s.449.683.916.683a.929.929,0,0,0,.891-.476Z" transform="translate(-175.673 -63.103)"/>
      <path id="Path_90" data-name="Path 90" d="M291.338,64.963h.649v.484a1.435,1.435,0,0,1,1.132-.562,1.269,1.269,0,0,1,1.349,1.4V68.8h-.658V66.389a.8.8,0,0,0-.847-.908,1.041,1.041,0,0,0-.977.718v2.6h-.649Z" transform="translate(-176.765 -63.103)"/>
      <path id="Path_91" data-name="Path 91" d="M299.191,67.91a1.353,1.353,0,0,1-1.082.528,2.019,2.019,0,0,1,0-4,1.353,1.353,0,0,1,1.082.528V62.739h.657v5.622h-.657Zm0-2.248a1.106,1.106,0,0,0-.986-.631c-.735,0-1.167.6-1.167,1.41s.432,1.41,1.167,1.41a1.1,1.1,0,0,0,.986-.631Z" transform="translate(-177.802 -62.661)"/>
      <path id="Path_92" data-name="Path 92" d="M304.8,63.131h1.7a2.656,2.656,0,0,1,0,5.31h-1.7Zm1.7,4.7a2.05,2.05,0,0,0,0-4.091h-1.013v4.091Z" transform="translate(-179.536 -62.742)"/>
      <path id="Path_93" data-name="Path 93" d="M311.683,63.831a.421.421,0,0,1-.415-.415.42.42,0,0,1,.839,0A.423.423,0,0,1,311.683,63.831Zm.329,4.584h-.649v-3.84h.649Z" transform="translate(-180.867 -62.715)"/>
      <path id="Path_94" data-name="Path 94" d="M316.166,68.292a1.352,1.352,0,0,1-1.072.519,1.982,1.982,0,0,1,0-3.927,1.349,1.349,0,0,1,1.072.511v-.432h.658V68.5a1.75,1.75,0,0,1-1.877,1.86,2.2,2.2,0,0,1-1.237-.347V69.3a1.712,1.712,0,0,0,1.237.476,1.137,1.137,0,0,0,1.219-1.229Zm0-2.231a1.112,1.112,0,0,0-.978-.6c-.726,0-1.15.58-1.15,1.384s.424,1.375,1.15,1.375a1.113,1.113,0,0,0,.978-.6Z" transform="translate(-181.302 -63.103)"/>
      <path id="Path_95" data-name="Path 95" d="M319.525,63.831a.421.421,0,0,1-.415-.415.419.419,0,0,1,.839,0A.423.423,0,0,1,319.525,63.831Zm.33,4.584h-.649v-3.84h.649Z" transform="translate(-182.481 -62.715)"/>
      <path id="Path_96" data-name="Path 96" d="M322.545,68.56H321.9V65.274h-.8v-.554h.8V63.708h.649v1.013h.89v.554h-.89Z" transform="translate(-182.889 -62.861)"/>
      <path id="Path_97" data-name="Path 97" d="M327.053,66.251c0-.476-.355-.77-.917-.77a1.933,1.933,0,0,0-1.09.338V65.2a2.228,2.228,0,0,1,1.194-.32,1.275,1.275,0,0,1,1.445,1.315v2.6h-.631v-.286a1.5,1.5,0,0,1-.994.355,1.287,1.287,0,0,1-1.427-1.228,1.307,1.307,0,0,1,1.461-1.2,1.612,1.612,0,0,1,.96.311Zm0,1.2a.93.93,0,0,0-.891-.476c-.467,0-.916.207-.916.666s.449.683.916.683a.93.93,0,0,0,.891-.476Z" transform="translate(-183.618 -63.103)"/>
      <path id="Path_98" data-name="Path 98" d="M330.584,68.361h-.648V62.739h.648Z" transform="translate(-184.71 -62.661)"/>
      <path id="Path_99" data-name="Path 99" d="M335.5,66.192v2.249h-.683v-5.31h1.946c1.072,0,1.765.536,1.765,1.539a1.415,1.415,0,0,1-1.358,1.5l1.574,2.274h-.778l-1.522-2.249Zm0-.579h1.245c.7,0,1.107-.355,1.107-.943s-.407-.943-1.107-.943H335.5Z" transform="translate(-185.714 -62.742)"/>
      <path id="Path_100" data-name="Path 100" d="M341.064,66.995a1.226,1.226,0,0,0,1.289,1.314,1.659,1.659,0,0,0,1.09-.363v.6a1.848,1.848,0,0,1-1.168.338,2.013,2.013,0,0,1-.138-4c1.038,0,1.574.753,1.574,1.877v.233Zm.034-.511h1.981c-.025-.562-.311-1.047-.934-1.047C341.634,65.438,341.22,65.775,341.1,66.484Z" transform="translate(-186.869 -63.103)"/>
      <path id="Path_101" data-name="Path 101" d="M347.8,66.251c0-.476-.355-.77-.917-.77a1.933,1.933,0,0,0-1.09.338V65.2a2.226,2.226,0,0,1,1.194-.32,1.275,1.275,0,0,1,1.445,1.315v2.6H347.8v-.286a1.5,1.5,0,0,1-1,.355,1.287,1.287,0,0,1-1.427-1.228,1.307,1.307,0,0,1,1.462-1.2,1.612,1.612,0,0,1,.96.311Zm0,1.2a.93.93,0,0,0-.891-.476c-.467,0-.917.207-.917.666s.45.683.917.683a.93.93,0,0,0,.891-.476Z" transform="translate(-187.889 -63.103)"/>
      <path id="Path_102" data-name="Path 102" d="M351.332,68.361h-.649V62.739h.649Z" transform="translate(-188.981 -62.661)"/>
      <path id="Path_103" data-name="Path 103" d="M354,68.56h-.649V65.274h-.8v-.554h.8V63.708H354v1.013h.891v.554H354Z" transform="translate(-189.364 -62.861)"/>
      <path id="Path_104" data-name="Path 104" d="M356.936,70.293l.58-1.445-1.5-3.866h.7l1.132,3.026,1.117-3.026h.674l-2.067,5.31Z" transform="translate(-190.079 -63.123)"/>
      <path id="Path_105" data-name="Path 105" d="M363.632,67.515a1.655,1.655,0,0,0,1.02.381c.631,0,.9-.363.9-1.245v-3.52h.683v3.547c0,1.279-.545,1.842-1.565,1.842a1.97,1.97,0,0,1-1.038-.3Z" transform="translate(-191.646 -62.742)"/>
      <path id="Path_106" data-name="Path 106" d="M369.919,68.441l-2.05-5.31h.718l1.661,4.411,1.669-4.411h.692l-2.05,5.31Z" transform="translate(-192.519 -62.742)"/>
    </g>
  </g>
</svg>
