<?xml version="1.0" encoding="UTF-8"?><svg id="Layer_2" xmlns="http://www.w3.org/2000/svg" viewBox="0 0 320.31 451.44"><defs><style>.cls-1{fill:#00d87d;}.cls-1,.cls-2{stroke-width:0px;}.cls-2{fill:#fff;}</style></defs><g id="Layer_1-2"><path class="cls-2" d="M37.51,0v10.05h-12.18v35.06h-11.86V10.05H1.29V0h36.22Z"/><path class="cls-2" d="M75.54,27.33v17.79h-11.15v-17.34c0-2.45-.44-4.3-1.32-5.54s-2.27-1.87-4.16-1.87-3.43.64-4.48,1.93-1.58,3.12-1.58,5.48v17.34h-11.15V0h11.15v15.28c1.12-1.25,2.42-2.19,3.9-2.84s3.28-.97,5.38-.97c3.87,0,7.07,1.2,9.6,3.61s3.8,6.49,3.8,12.25Z"/><path class="cls-2" d="M114.33,45.12h-5.61c-2.19,0-3.78-.46-4.77-1.39s-1.48-2.18-1.48-3.77v-.26c-1.25,1.93-2.73,3.38-4.45,4.35s-3.78,1.45-6.19,1.45c-3.74,0-6.76-.85-9.06-2.55s-3.45-4.11-3.45-7.25c0-3.65,1.4-6.47,4.19-8.44s6.83-2.96,12.12-2.96h4.9v-1.29c0-1.16-.46-2.09-1.39-2.8s-2.14-1.06-3.64-1.06c-1.38,0-2.5.29-3.38.87s-1.36,1.36-1.45,2.35h-10.7c.3-3.48,1.87-6.17,4.71-8.06s6.62-2.84,11.34-2.84,8.77,1.03,11.47,3.09,4.06,5.09,4.06,9.09v10.31c0,.77.16,1.3.48,1.58s.85.42,1.58.42h.71v9.15ZM95.84,31.2c-1.63,0-2.92.33-3.87,1s-1.42,1.56-1.42,2.67c0,.9.33,1.62,1,2.16s1.56.81,2.67.81c1.89,0,3.41-.59,4.54-1.77s1.73-2.76,1.77-4.74v-.13h-4.71Z"/><path class="cls-2" d="M151.39,27.33v17.79h-11.15v-17.21c0-2.54-.43-4.43-1.29-5.67s-2.26-1.87-4.19-1.87-3.43.64-4.48,1.93-1.58,3.16-1.58,5.61v17.21h-11.15V11.86h9.8l.84,4c1.16-1.42,2.54-2.5,4.12-3.25s3.52-1.13,5.8-1.13c3.82,0,6.99,1.19,9.51,3.58s3.77,6.48,3.77,12.28Z"/><path class="cls-2" d="M167.7,0v24.04l11.09-12.18h12.25l-11.41,12.7,11.86,20.56h-12.7l-7.03-12.25-4.06,4.51v7.73h-11.15V0h11.15Z"/><path class="cls-2" d="M220.48,0l8.38,16.44L237.94,0h13.15l-16.31,28.36v16.76h-11.86v-16.76L206.62,0h13.86Z"/><path class="cls-2" d="M249.06,37.45c-1.48-2.58-2.22-5.56-2.22-8.96s.74-6.38,2.22-8.96,3.59-4.57,6.32-5.96,5.92-2.09,9.57-2.09,6.84.7,9.57,2.09,4.83,3.38,6.32,5.96,2.22,5.56,2.22,8.96-.74,6.38-2.22,8.96-3.59,4.57-6.32,5.96-5.92,2.09-9.57,2.09-6.84-.7-9.57-2.09-4.83-3.38-6.32-5.96ZM271.71,28.49c0-2.45-.6-4.42-1.8-5.9s-2.86-2.22-4.96-2.22-3.76.74-4.96,2.22-1.8,3.45-1.8,5.9.6,4.42,1.8,5.9,2.86,2.22,4.96,2.22,3.76-.74,4.96-2.22,1.8-3.45,1.8-5.9Z"/><path class="cls-2" d="M320.31,45.12h-9.93l-.84-3.8c-1.2,1.38-2.55,2.42-4.03,3.13s-3.3,1.06-5.45,1.06c-3.82,0-6.98-1.19-9.47-3.58s-3.74-6.48-3.74-12.28V11.86h11.15v16.24c0,2.84.41,4.94,1.22,6.32s2.17,2.06,4.06,2.06,3.29-.72,4.32-2.16,1.55-3.51,1.55-6.22V11.86h11.15v33.26Z"/><rect class="cls-1" x="0" y="67.86" width="33.82" height="5.79"/><path class="cls-2" d="M26.29,122.13v6.46h-15.62v8.21h12.82v6.16h-12.82v14.22H3.16v-35.06h23.14Z"/><path class="cls-2" d="M28.72,151.23c-1.12-2-1.68-4.31-1.68-6.91s.56-4.91,1.68-6.91,2.7-3.55,4.76-4.63c2.05-1.08,4.43-1.63,7.14-1.63s5.08.54,7.14,1.63c2.05,1.08,3.64,2.63,4.76,4.63,1.12,2,1.68,4.31,1.68,6.91s-.56,4.95-1.68,6.94c-1.12,1.99-2.71,3.52-4.76,4.61-2.05,1.08-4.43,1.63-7.14,1.63s-5.08-.54-7.14-1.63c-2.05-1.08-3.64-2.63-4.76-4.63ZM47.03,144.32c0-2.2-.58-3.99-1.73-5.36-1.15-1.37-2.71-2.05-4.68-2.05s-3.48.68-4.63,2.05c-1.15,1.37-1.73,3.15-1.73,5.36s.58,3.99,1.73,5.36c1.15,1.37,2.7,2.05,4.63,2.05s3.53-.68,4.68-2.05c1.15-1.37,1.73-3.16,1.73-5.36Z"/><path class="cls-2" d="M73.77,137.86h-2.8c-2,0-3.47.6-4.41,1.8-.93,1.2-1.4,2.84-1.4,4.91v12.62h-7.06v-25.74h6.41l.65,3.86c.77-1.27,1.72-2.23,2.85-2.88,1.14-.65,2.65-.98,4.56-.98h1.2v6.41Z"/><path class="cls-2" d="M100.62,149.93l6.11-18.48h7.56l-11.42,29.4c-.6,1.57-1.17,2.8-1.7,3.68s-1.21,1.55-2.03,2c-.82.45-1.88.68-3.18.68h-6.86v-5.96h3.91c.9,0,1.55-.15,1.95-.45.4-.3.79-.88,1.15-1.75l.65-1.7-9.92-25.89h7.51l6.26,18.48Z"/><path class="cls-2" d="M116.37,151.23c-1.12-2-1.68-4.31-1.68-6.91s.56-4.91,1.68-6.91,2.7-3.55,4.76-4.63c2.05-1.08,4.43-1.63,7.14-1.63s5.08.54,7.14,1.63c2.05,1.08,3.64,2.63,4.76,4.63,1.12,2,1.68,4.31,1.68,6.91s-.56,4.95-1.68,6.94c-1.12,1.99-2.71,3.52-4.76,4.61-2.05,1.08-4.43,1.63-7.14,1.63s-5.08-.54-7.14-1.63c-2.05-1.08-3.64-2.63-4.76-4.63ZM134.67,144.32c0-2.2-.58-3.99-1.73-5.36-1.15-1.37-2.71-2.05-4.68-2.05s-3.48.68-4.63,2.05c-1.15,1.37-1.73,3.15-1.73,5.36s.58,3.99,1.73,5.36c1.15,1.37,2.7,2.05,4.63,2.05s3.53-.68,4.68-2.05c1.15-1.37,1.73-3.16,1.73-5.36Z"/><path class="cls-2" d="M169.98,157.19h-6.26l-.65-3.1c-.9,1.07-1.95,1.9-3.16,2.5-1.2.6-2.67.9-4.41.9-3,0-5.46-.93-7.36-2.78-1.9-1.85-2.85-4.95-2.85-9.29v-13.97h7.06v13.12c0,2.34.41,4.1,1.23,5.28.82,1.19,2.08,1.78,3.78,1.78s3.14-.66,4.11-1.98c.97-1.32,1.45-3.16,1.45-5.53v-12.67h7.06v25.74Z"/><path class="cls-2" d="M190.57,137.86h-2.8c-2,0-3.47.6-4.41,1.8-.93,1.2-1.4,2.84-1.4,4.91v12.62h-7.06v-25.74h6.41l.65,3.86c.77-1.27,1.72-2.23,2.85-2.88,1.14-.65,2.65-.98,4.56-.98h1.2v6.41Z"/><path class="cls-2" d="M10.22,172.06c0,1.14-.38,2.09-1.15,2.86-.77.77-1.74,1.15-2.9,1.15s-2.15-.38-2.93-1.15c-.79-.77-1.18-1.72-1.18-2.86s.39-2.08,1.18-2.83c.78-.75,1.76-1.13,2.93-1.13s2.14.38,2.9,1.13,1.15,1.69,1.15,2.83ZM9.67,178.82v25.74H2.6v-25.74h7.06Z"/><path class="cls-2" d="M39.66,190.59v13.97h-7.06v-13.57c0-4.44-1.74-6.66-5.21-6.66-1.84,0-3.25.62-4.26,1.85s-1.5,2.97-1.5,5.21v13.17h-7.06v-25.74h6.16l.65,3.21c.9-1.1,1.99-1.96,3.25-2.58,1.27-.62,2.84-.93,4.71-.93,3,0,5.48.93,7.41,2.8,1.94,1.87,2.91,4.96,2.91,9.26Z"/><path class="cls-2" d="M41.52,184.78v-5.96h4.26v-7.21h7.06v7.21h5.86v5.96h-5.86v11.27c0,.9.19,1.55.58,1.95.38.4,1.03.6,1.93.6h3.66v5.96h-5.86c-4.91,0-7.36-2.45-7.36-7.36v-12.42h-4.26Z"/><path class="cls-2" d="M66.74,180.15c1.95-1.08,4.22-1.63,6.79-1.63s4.9.51,6.89,1.53,3.54,2.45,4.66,4.31c1.12,1.85,1.69,4.03,1.73,6.54,0,.9-.07,1.7-.2,2.4h-18.68v.2c.17,1.87.77,3.34,1.8,4.41,1.03,1.07,2.45,1.6,4.26,1.6,1.44,0,2.63-.31,3.58-.93.95-.62,1.58-1.53,1.88-2.73h6.96c-.27,1.7-.92,3.24-1.95,4.61-1.03,1.37-2.4,2.45-4.11,3.23-1.7.78-3.66,1.18-5.86,1.18-2.87,0-5.35-.53-7.44-1.6s-3.69-2.6-4.81-4.58c-1.12-1.99-1.68-4.3-1.68-6.94s.54-5,1.63-6.99,2.6-3.52,4.56-4.61ZM77.8,185.06c-1.05-.85-2.38-1.28-3.98-1.28s-2.83.44-3.88,1.33-1.68,2.08-1.88,3.58h11.67c-.23-1.57-.88-2.78-1.93-3.63Z"/><path class="cls-2" d="M106.33,185.23h-2.8c-2,0-3.47.6-4.41,1.8-.93,1.2-1.4,2.84-1.4,4.91v12.62h-7.06v-25.74h6.41l.65,3.86c.77-1.27,1.72-2.23,2.85-2.88,1.14-.65,2.65-.98,4.56-.98h1.2v6.41Z"/><path class="cls-2" d="M113.82,180.15c1.95-1.08,4.22-1.63,6.79-1.63s4.9.51,6.89,1.53,3.54,2.45,4.66,4.31c1.12,1.85,1.69,4.03,1.73,6.54,0,.9-.07,1.7-.2,2.4h-18.68v.2c.17,1.87.77,3.34,1.8,4.41,1.03,1.07,2.45,1.6,4.26,1.6,1.44,0,2.63-.31,3.58-.93.95-.62,1.58-1.53,1.88-2.73h6.96c-.27,1.7-.92,3.24-1.95,4.61s-2.4,2.45-4.11,3.23c-1.7.78-3.66,1.18-5.86,1.18-2.87,0-5.35-.53-7.44-1.6s-3.69-2.6-4.81-4.58c-1.12-1.99-1.68-4.3-1.68-6.94s.54-5,1.63-6.99,2.6-3.52,4.56-4.61ZM124.88,185.06c-1.05-.85-2.38-1.28-3.98-1.28s-2.83.44-3.88,1.33-1.68,2.08-1.88,3.58h11.67c-.23-1.57-.88-2.78-1.93-3.63Z"/><path class="cls-2" d="M144.94,198.75c1,.7,2.29,1.05,3.86,1.05s2.69-.24,3.56-.73c.87-.48,1.3-1.18,1.3-2.08,0-.67-.2-1.17-.6-1.5s-.97-.58-1.7-.73c-.73-.15-1.94-.33-3.61-.53-2.27-.3-4.16-.68-5.66-1.15-1.5-.47-2.7-1.2-3.61-2.2-.9-1-1.35-2.34-1.35-4.01s.46-3.15,1.38-4.43c.92-1.29,2.21-2.28,3.88-2.98s3.59-1.05,5.76-1.05c3.51.03,6.33.79,8.49,2.25,2.15,1.47,3.31,3.51,3.48,6.11h-6.71c-.1-.97-.61-1.76-1.53-2.38-.92-.62-2.09-.93-3.53-.93-1.34,0-2.41.25-3.23.75-.82.5-1.23,1.17-1.23,2,0,.6.22,1.05.65,1.35.43.3,1,.52,1.7.65.7.13,1.87.28,3.5.45,3.47.4,6.13,1.14,7.99,2.23,1.85,1.08,2.78,2.95,2.78,5.58,0,1.67-.49,3.14-1.48,4.41-.98,1.27-2.35,2.25-4.11,2.93-1.75.68-3.78,1.03-6.08,1.03-3.57,0-6.48-.79-8.71-2.38-2.24-1.59-3.42-3.75-3.56-6.49h6.71c.1,1.13.65,2.05,1.65,2.75Z"/><path class="cls-2" d="M161.97,184.78v-5.96h4.26v-7.21h7.06v7.21h5.86v5.96h-5.86v11.27c0,.9.19,1.55.58,1.95.38.4,1.03.6,1.93.6h3.66v5.96h-5.86c-4.91,0-7.36-2.45-7.36-7.36v-12.42h-4.26Z"/><path class="cls-2" d="M202.44,172.06c0,1.14-.38,2.09-1.15,2.86-.77.77-1.74,1.15-2.9,1.15s-2.15-.38-2.93-1.15c-.79-.77-1.18-1.72-1.18-2.86s.39-2.08,1.18-2.83c.78-.75,1.76-1.13,2.93-1.13s2.14.38,2.9,1.13,1.15,1.69,1.15,2.83ZM201.89,178.82v25.74h-7.06v-25.74h7.06Z"/><path class="cls-2" d="M231.89,190.59v13.97h-7.06v-13.57c0-4.44-1.74-6.66-5.21-6.66-1.84,0-3.26.62-4.26,1.85-1,1.24-1.5,2.97-1.5,5.21v13.17h-7.06v-25.74h6.16l.65,3.21c.9-1.1,1.99-1.96,3.25-2.58,1.27-.62,2.84-.93,4.71-.93,3,0,5.47.93,7.41,2.8,1.94,1.87,2.91,4.96,2.91,9.26Z"/><path class="cls-1" d="M15.32,216.88c3.51,0,6.6.74,9.29,2.23s4.76,3.56,6.21,6.21,2.18,5.68,2.18,9.09-.73,6.43-2.18,9.09-3.52,4.72-6.21,6.21-5.78,2.23-9.29,2.23H3.16v-35.06h12.17ZM22.71,242.59c1.75-2.05,2.63-4.78,2.63-8.19s-.88-6.13-2.63-8.19c-1.75-2.05-4.21-3.08-7.39-3.08h-4.66v22.54h4.66c3.17,0,5.63-1.03,7.39-3.08Z"/><path class="cls-1" d="M44.67,219.43c0,1.14-.38,2.09-1.15,2.85-.77.77-1.74,1.15-2.9,1.15s-2.15-.38-2.93-1.15c-.79-.77-1.18-1.72-1.18-2.85s.39-2.08,1.18-2.83c.78-.75,1.76-1.13,2.93-1.13s2.14.38,2.9,1.13,1.15,1.69,1.15,2.83ZM44.12,226.19v25.74h-7.06v-25.74h7.06Z"/><path class="cls-1" d="M74.77,251.18c0,3.37-1.12,6.06-3.36,8.06-2.24,2-5.71,3-10.42,3-3.64,0-6.58-.8-8.81-2.4-2.24-1.6-3.44-3.87-3.61-6.81h7.11c.33,1.24.99,2.19,1.98,2.85.98.67,2.28,1,3.88,1,2,0,3.56-.5,4.66-1.5,1.1-1,1.65-2.49,1.65-4.46v-2.7c-1.87,2.37-4.52,3.56-7.96,3.56-2.27,0-4.31-.53-6.11-1.6-1.8-1.07-3.21-2.58-4.23-4.53-1.02-1.95-1.53-4.23-1.53-6.84s.51-4.84,1.53-6.81c1.02-1.97,2.44-3.49,4.26-4.56s3.86-1.6,6.13-1.6c3.37,0,6.04,1.3,8.01,3.91l.6-3.56h6.21v24.99ZM67.81,238.91c0-2.17-.57-3.94-1.7-5.31-1.14-1.37-2.65-2.05-4.56-2.05s-3.43.68-4.58,2.03c-1.15,1.35-1.73,3.11-1.73,5.28s.58,3.92,1.73,5.26c1.15,1.34,2.68,2,4.58,2s3.42-.67,4.56-2c1.13-1.33,1.7-3.07,1.7-5.21Z"/><path class="cls-1" d="M87.3,219.43c0,1.14-.38,2.09-1.15,2.85-.77.77-1.74,1.15-2.9,1.15s-2.15-.38-2.93-1.15c-.79-.77-1.18-1.72-1.18-2.85s.39-2.08,1.18-2.83c.78-.75,1.76-1.13,2.93-1.13s2.14.38,2.9,1.13,1.15,1.69,1.15,2.83ZM86.74,226.19v25.74h-7.06v-25.74h7.06Z"/><path class="cls-1" d="M89.05,232.15v-5.96h4.26v-7.21h7.06v7.21h5.86v5.96h-5.86v11.27c0,.9.19,1.55.58,1.95.38.4,1.03.6,1.93.6h3.66v5.96h-5.86c-4.91,0-7.36-2.45-7.36-7.36v-12.42h-4.26Z"/><path class="cls-1" d="M134.67,251.93h-3.61c-3.24,0-4.82-1.4-4.76-4.21-.93,1.47-2.09,2.59-3.46,3.36-1.37.77-3.02,1.15-4.96,1.15-2.87,0-5.18-.66-6.94-1.98-1.75-1.32-2.63-3.18-2.63-5.58,0-2.74,1.01-4.85,3.03-6.33,2.02-1.49,4.95-2.23,8.79-2.23h5.11v-1.25c0-1.17-.43-2.09-1.3-2.78s-2.04-1.03-3.51-1.03c-1.3,0-2.37.28-3.21.85-.83.57-1.33,1.34-1.5,2.3h-6.81c.23-2.64,1.4-4.68,3.5-6.13,2.1-1.45,4.89-2.18,8.36-2.18s6.45.8,8.44,2.4,2.98,3.92,2.98,6.96v9.06c0,.63.13,1.07.4,1.3.27.23.68.35,1.25.35h.8v5.96ZM120.1,240.82c-1.47,0-2.61.29-3.43.88-.82.58-1.23,1.41-1.23,2.48,0,.9.34,1.62,1.03,2.15.68.53,1.61.8,2.78.8,1.84,0,3.29-.53,4.36-1.58s1.62-2.46,1.65-4.23v-.5h-5.16Z"/><path class="cls-1" d="M144.49,216.88v35.06h-7.06v-35.06h7.06Z"/><path class="cls-1" d="M9.79,266.16c2.59-1.47,5.63-2.2,9.14-2.2,2.74,0,5.19.53,7.36,1.6s3.92,2.57,5.26,4.51c1.34,1.94,2.14,4.17,2.4,6.71h-7.51c-.43-2-1.34-3.58-2.73-4.73-1.39-1.15-3.11-1.73-5.18-1.73-2.8,0-5.02,1.05-6.66,3.16s-2.45,4.87-2.45,8.31.82,6.17,2.45,8.29,3.86,3.18,6.66,3.18c2.07,0,3.8-.58,5.18-1.73,1.39-1.15,2.29-2.73,2.73-4.73h7.51c-.27,2.54-1.07,4.77-2.4,6.71-1.33,1.94-3.09,3.44-5.26,4.51s-4.62,1.6-7.36,1.6c-3.5,0-6.55-.73-9.14-2.2-2.59-1.47-4.57-3.55-5.96-6.23s-2.08-5.82-2.08-9.39.69-6.7,2.08-9.39,3.37-4.77,5.96-6.23Z"/><path class="cls-1" d="M38.44,293.35c-1.12-2-1.68-4.31-1.68-6.91s.56-4.91,1.68-6.91,2.7-3.55,4.76-4.63c2.05-1.08,4.43-1.63,7.14-1.63s5.08.54,7.14,1.63c2.05,1.08,3.64,2.63,4.76,4.63,1.12,2,1.68,4.31,1.68,6.91s-.56,4.95-1.68,6.94c-1.12,1.99-2.71,3.52-4.76,4.61-2.05,1.08-4.43,1.63-7.14,1.63s-5.08-.54-7.14-1.63c-2.05-1.08-3.64-2.63-4.76-4.63ZM56.74,286.44c0-2.2-.58-3.99-1.73-5.36-1.15-1.37-2.71-2.05-4.68-2.05s-3.48.68-4.63,2.05c-1.15,1.37-1.73,3.15-1.73,5.36s.58,3.99,1.73,5.36c1.15,1.37,2.7,2.05,4.63,2.05s3.53-.68,4.68-2.05c1.15-1.37,1.73-3.16,1.73-5.36Z"/><path class="cls-1" d="M92.9,285.34v13.97h-7.06v-13.57c0-4.44-1.74-6.66-5.21-6.66-1.84,0-3.25.62-4.26,1.85s-1.5,2.97-1.5,5.21v13.17h-7.06v-25.74h6.16l.65,3.21c.9-1.1,1.99-1.96,3.25-2.58,1.27-.62,2.84-.93,4.71-.93,3,0,5.48.93,7.41,2.8,1.94,1.87,2.91,4.96,2.91,9.27Z"/><path class="cls-1" d="M122.45,285.34v13.97h-7.06v-13.57c0-4.44-1.74-6.66-5.21-6.66-1.84,0-3.26.62-4.26,1.85-1,1.24-1.5,2.97-1.5,5.21v13.17h-7.06v-25.74h6.16l.65,3.21c.9-1.1,1.99-1.96,3.25-2.58,1.27-.62,2.84-.93,4.71-.93,3,0,5.47.93,7.41,2.8,1.94,1.87,2.91,4.96,2.91,9.27Z"/><path class="cls-1" d="M132.1,274.89c1.95-1.08,4.22-1.63,6.79-1.63s4.9.51,6.89,1.53,3.54,2.45,4.66,4.31c1.12,1.85,1.69,4.03,1.73,6.54,0,.9-.07,1.7-.2,2.4h-18.68v.2c.17,1.87.77,3.34,1.8,4.41,1.03,1.07,2.45,1.6,4.26,1.6,1.44,0,2.63-.31,3.58-.93.95-.62,1.58-1.53,1.88-2.73h6.96c-.27,1.7-.92,3.24-1.95,4.61-1.03,1.37-2.4,2.45-4.11,3.23-1.7.78-3.66,1.18-5.86,1.18-2.87,0-5.35-.53-7.44-1.6s-3.69-2.6-4.81-4.58c-1.12-1.99-1.68-4.3-1.68-6.94s.54-5,1.63-6.99,2.6-3.52,4.56-4.61ZM143.16,279.8c-1.05-.85-2.38-1.28-3.98-1.28s-2.83.44-3.88,1.33-1.68,2.08-1.88,3.58h11.67c-.23-1.57-.88-2.78-1.93-3.63Z"/><path class="cls-1" d="M153.01,273.57h8.06l5.36,7.61,5.46-7.61h7.56l-9.06,12.62,9.57,13.12h-8.06l-5.91-8.06-5.86,8.06h-7.56l9.57-13.12-9.12-12.62Z"/><path class="cls-1" d="M190.12,266.81c0,1.14-.38,2.09-1.15,2.85-.77.77-1.74,1.15-2.9,1.15s-2.15-.38-2.93-1.15c-.79-.77-1.18-1.72-1.18-2.85s.39-2.08,1.18-2.83c.78-.75,1.76-1.13,2.93-1.13s2.14.38,2.9,1.13,1.15,1.69,1.15,2.83ZM189.57,273.57v25.74h-7.06v-25.74h7.06Z"/><path class="cls-1" d="M195.15,293.35c-1.12-2-1.68-4.31-1.68-6.91s.56-4.91,1.68-6.91,2.7-3.55,4.76-4.63c2.05-1.08,4.43-1.63,7.14-1.63s5.08.54,7.14,1.63c2.05,1.08,3.64,2.63,4.76,4.63,1.12,2,1.68,4.31,1.68,6.91s-.56,4.95-1.68,6.94c-1.12,1.99-2.71,3.52-4.76,4.61-2.05,1.08-4.43,1.63-7.14,1.63s-5.08-.54-7.14-1.63c-2.05-1.08-3.64-2.63-4.76-4.63ZM213.46,286.44c0-2.2-.58-3.99-1.73-5.36-1.15-1.37-2.71-2.05-4.68-2.05s-3.48.68-4.63,2.05c-1.15,1.37-1.73,3.15-1.73,5.36s.58,3.99,1.73,5.36c1.15,1.37,2.7,2.05,4.63,2.05s3.53-.68,4.68-2.05c1.15-1.37,1.73-3.16,1.73-5.36Z"/><path class="cls-1" d="M249.62,285.34v13.97h-7.06v-13.57c0-4.44-1.74-6.66-5.21-6.66-1.84,0-3.25.62-4.26,1.85s-1.5,2.97-1.5,5.21v13.17h-7.06v-25.74h6.16l.65,3.21c.9-1.1,1.99-1.96,3.25-2.58,1.27-.62,2.84-.93,4.71-.93,3,0,5.48.93,7.41,2.8,1.94,1.87,2.91,4.96,2.91,9.27Z"/><path class="cls-1" d="M257.83,291.25c1.2,0,2.21.4,3.03,1.2.82.8,1.23,1.8,1.23,3s-.41,2.2-1.23,2.98c-.82.78-1.83,1.18-3.03,1.18s-2.25-.39-3.05-1.18c-.8-.79-1.2-1.78-1.2-2.98s.4-2.25,1.2-3.03c.8-.79,1.82-1.18,3.05-1.18Z"/><path class="cls-2" d="M8.36,311.57l6.46,25.64,6.86-25.59h6.76l6.66,25.59,6.61-25.59h7.61l-9.71,35.06h-8.66l-6.06-23.29-5.91,23.29h-8.66L.6,311.62l7.76-.05Z"/><path class="cls-2" d="M55.02,322.27c1.95-1.08,4.22-1.63,6.79-1.63s4.9.51,6.89,1.53,3.54,2.45,4.66,4.31c1.12,1.85,1.69,4.03,1.73,6.54,0,.9-.07,1.7-.2,2.4h-18.68v.2c.17,1.87.77,3.34,1.8,4.41,1.03,1.07,2.45,1.6,4.26,1.6,1.44,0,2.63-.31,3.58-.93.95-.62,1.58-1.53,1.88-2.73h6.96c-.27,1.7-.92,3.24-1.95,4.61-1.03,1.37-2.4,2.45-4.11,3.23-1.7.78-3.66,1.18-5.86,1.18-2.87,0-5.35-.53-7.44-1.6s-3.69-2.6-4.81-4.58c-1.12-1.99-1.68-4.3-1.68-6.94s.54-5,1.63-6.99,2.6-3.52,4.56-4.61ZM66.09,327.17c-1.05-.85-2.38-1.28-3.98-1.28s-2.83.44-3.88,1.33-1.68,2.08-1.88,3.58h11.67c-.23-1.57-.88-2.78-1.93-3.63Z"/><path class="cls-2" d="M96.36,320.94l5.16,18.13,4.86-18.13h6.36l4.71,18.18,5.26-18.18h7.21l-8.46,25.74h-7.51l-4.51-15.52-4.61,15.52h-7.51l-8.41-25.74h7.46Z"/><path class="cls-2" d="M139.98,314.18c0,1.14-.38,2.09-1.15,2.86-.77.77-1.74,1.15-2.9,1.15s-2.15-.38-2.93-1.15c-.79-.77-1.18-1.72-1.18-2.86s.39-2.08,1.18-2.83c.78-.75,1.76-1.13,2.93-1.13s2.14.38,2.9,1.13,1.15,1.69,1.15,2.83ZM139.43,320.94v25.74h-7.06v-25.74h7.06Z"/><path class="cls-2" d="M151.4,311.62v35.06h-7.06v-35.06h7.06Z"/><path class="cls-2" d="M163.37,311.62v35.06h-7.06v-35.06h7.06Z"/><path class="cls-2" d="M205.92,326.77c1.02,1.99,1.53,4.31,1.53,6.99s-.51,4.91-1.53,6.91c-1.02,2-2.43,3.56-4.23,4.66-1.8,1.1-3.84,1.65-6.11,1.65-1.8,0-3.37-.34-4.71-1.03-1.34-.68-2.44-1.61-3.31-2.78l-.7,3.51h-6.16v-35.06h7.06v12.57c1.97-2.37,4.56-3.56,7.76-3.56,2.3,0,4.36.53,6.16,1.58s3.21,2.57,4.23,4.56ZM200.28,333.81c0-2.2-.58-3.99-1.75-5.36-1.17-1.37-2.7-2.05-4.61-2.05s-3.42.68-4.56,2.03c-1.13,1.35-1.7,3.13-1.7,5.33s.57,4.04,1.7,5.41c1.14,1.37,2.65,2.05,4.56,2.05s3.44-.68,4.61-2.05c1.17-1.37,1.75-3.16,1.75-5.36Z"/><path class="cls-2" d="M216.54,322.27c1.95-1.08,4.22-1.63,6.79-1.63s4.9.51,6.89,1.53,3.54,2.45,4.66,4.31c1.12,1.85,1.69,4.03,1.73,6.54,0,.9-.07,1.7-.2,2.4h-18.68v.2c.17,1.87.77,3.34,1.8,4.41,1.03,1.07,2.45,1.6,4.26,1.6,1.44,0,2.63-.31,3.58-.93.95-.62,1.58-1.53,1.88-2.73h6.96c-.27,1.7-.92,3.24-1.95,4.61-1.03,1.37-2.4,2.45-4.11,3.23-1.7.78-3.66,1.18-5.86,1.18-2.87,0-5.35-.53-7.44-1.6s-3.69-2.6-4.81-4.58c-1.12-1.99-1.68-4.3-1.68-6.94s.54-5,1.63-6.99,2.6-3.52,4.56-4.61ZM227.61,327.17c-1.05-.85-2.38-1.28-3.98-1.28s-2.83.44-3.88,1.33-1.68,2.08-1.88,3.58h11.67c-.23-1.57-.88-2.78-1.93-3.63Z"/><path class="cls-2" d="M260.49,314.18c0,1.14-.38,2.09-1.15,2.86-.77.77-1.74,1.15-2.9,1.15s-2.15-.38-2.93-1.15c-.79-.77-1.18-1.72-1.18-2.86s.39-2.08,1.18-2.83c.78-.75,1.76-1.13,2.93-1.13s2.14.38,2.9,1.13,1.15,1.69,1.15,2.83ZM259.93,320.94v25.74h-7.06v-25.74h7.06Z"/><path class="cls-2" d="M289.93,332.71v13.97h-7.06v-13.57c0-4.44-1.74-6.66-5.21-6.66-1.84,0-3.25.62-4.26,1.85s-1.5,2.97-1.5,5.21v13.17h-7.06v-25.74h6.16l.65,3.21c.9-1.1,1.99-1.96,3.25-2.58,1.27-.62,2.84-.93,4.71-.93,3,0,5.48.93,7.41,2.8,1.94,1.87,2.91,4.96,2.91,9.26Z"/><path class="cls-2" d="M0,374.27v-5.96h4.26v-7.21h7.06v7.21h5.86v5.96h-5.86v11.27c0,.9.19,1.55.58,1.95.38.4,1.03.6,1.93.6h3.66v5.96h-5.86c-4.91,0-7.36-2.45-7.36-7.36v-12.42H0Z"/><path class="cls-2" d="M20.71,388.09c-1.12-2-1.68-4.31-1.68-6.91s.56-4.91,1.68-6.91,2.7-3.55,4.76-4.63c2.05-1.08,4.43-1.63,7.14-1.63s5.08.54,7.14,1.63c2.05,1.08,3.64,2.63,4.76,4.63,1.12,2,1.68,4.31,1.68,6.91s-.56,4.95-1.68,6.94c-1.12,1.99-2.71,3.52-4.76,4.61-2.05,1.08-4.43,1.63-7.14,1.63s-5.08-.54-7.14-1.63c-2.05-1.08-3.64-2.63-4.76-4.63ZM39.01,381.18c0-2.2-.58-3.99-1.73-5.36-1.15-1.37-2.71-2.05-4.68-2.05s-3.48.68-4.63,2.05c-1.15,1.37-1.73,3.15-1.73,5.36s.58,3.99,1.73,5.36c1.15,1.37,2.7,2.05,4.63,2.05s3.53-.68,4.68-2.05c1.15-1.37,1.73-3.16,1.73-5.36Z"/><path class="cls-2" d="M74.32,394.05h-6.26l-.65-3.1c-.9,1.07-1.95,1.9-3.16,2.5-1.2.6-2.67.9-4.41.9-3,0-5.46-.93-7.36-2.78-1.9-1.85-2.85-4.95-2.85-9.29v-13.97h7.06v13.12c0,2.34.41,4.1,1.23,5.28.82,1.19,2.08,1.78,3.78,1.78s3.14-.66,4.11-1.98c.97-1.32,1.45-3.16,1.45-5.53v-12.67h7.06v25.74Z"/><path class="cls-2" d="M91.5,394.35c-2.67,0-5.01-.54-7.01-1.63-2-1.08-3.55-2.63-4.63-4.63-1.08-2-1.63-4.31-1.63-6.91s.54-4.95,1.63-6.94,2.64-3.52,4.66-4.61,4.37-1.63,7.04-1.63c3.44,0,6.24.88,8.41,2.63s3.51,4.18,4.01,7.29h-7.31c-.3-1.27-.9-2.28-1.8-3.03-.9-.75-2.02-1.13-3.36-1.13-1.84,0-3.31.68-4.41,2.05-1.1,1.37-1.65,3.15-1.65,5.36s.55,3.99,1.65,5.36,2.57,2.05,4.41,2.05c1.37,0,2.51-.38,3.43-1.15.92-.77,1.51-1.82,1.78-3.16h7.26c-.47,3.14-1.79,5.6-3.98,7.39s-5.02,2.68-8.49,2.68Z"/><path class="cls-2" d="M132.87,380.08v13.97h-7.06v-13.67c0-2.14-.43-3.76-1.3-4.88-.87-1.12-2.17-1.68-3.91-1.68s-3.21.62-4.23,1.85c-1.02,1.24-1.53,2.95-1.53,5.16v13.22h-7.06v-35.06h7.06v12.47c1.9-2.3,4.44-3.46,7.61-3.46s5.53.93,7.49,2.8c1.95,1.87,2.93,4.96,2.93,9.26Z"/><path class="cls-2" d="M154.76,368.31l5.16,18.13,4.86-18.13h6.36l4.71,18.18,5.26-18.18h7.21l-8.46,25.74h-7.51l-4.51-15.52-4.61,15.52h-7.51l-8.41-25.74h7.46Z"/><path class="cls-2" d="M198.38,361.55c0,1.14-.38,2.09-1.15,2.86-.77.77-1.74,1.15-2.9,1.15s-2.15-.38-2.93-1.15c-.79-.77-1.18-1.72-1.18-2.86s.39-2.08,1.18-2.83c.78-.75,1.76-1.13,2.93-1.13s2.14.38,2.9,1.13,1.15,1.69,1.15,2.83ZM197.83,368.31v25.74h-7.06v-25.74h7.06Z"/><path class="cls-2" d="M200.13,374.27v-5.96h4.26v-7.21h7.06v7.21h5.86v5.96h-5.86v11.27c0,.9.19,1.55.58,1.95.38.4,1.03.6,1.93.6h3.66v5.96h-5.86c-4.91,0-7.36-2.45-7.36-7.36v-12.42h-4.26Z"/><path class="cls-2" d="M245.66,380.08v13.97h-7.06v-13.67c0-2.14-.43-3.76-1.3-4.88-.87-1.12-2.17-1.68-3.91-1.68s-3.21.62-4.23,1.85c-1.02,1.24-1.53,2.95-1.53,5.16v13.22h-7.06v-35.06h7.06v12.47c1.9-2.3,4.44-3.46,7.61-3.46s5.53.93,7.49,2.8c1.95,1.87,2.93,4.96,2.93,9.26Z"/><path class="cls-2" d="M13.87,434.16l6.11-18.48h7.56l-11.42,29.4c-.6,1.57-1.17,2.8-1.7,3.68s-1.21,1.55-2.03,2c-.82.45-1.88.68-3.18.68H2.35v-5.96h3.91c.9,0,1.55-.15,1.95-.45.4-.3.79-.88,1.15-1.75l.65-1.7L.1,415.68h7.51l6.26,18.48Z"/><path class="cls-2" d="M29.62,435.47c-1.12-2-1.68-4.31-1.68-6.91s.56-4.91,1.68-6.91,2.7-3.55,4.76-4.63c2.05-1.08,4.43-1.63,7.14-1.63s5.08.54,7.14,1.63c2.05,1.08,3.64,2.63,4.76,4.63,1.12,2,1.68,4.31,1.68,6.91s-.56,4.95-1.68,6.94c-1.12,1.99-2.71,3.52-4.76,4.61-2.05,1.08-4.43,1.63-7.14,1.63s-5.08-.54-7.14-1.63c-2.05-1.08-3.64-2.63-4.76-4.63ZM47.93,428.55c0-2.2-.58-3.99-1.73-5.36-1.15-1.37-2.71-2.05-4.68-2.05s-3.48.68-4.63,2.05c-1.15,1.37-1.73,3.15-1.73,5.36s.58,3.99,1.73,5.36c1.15,1.37,2.7,2.05,4.63,2.05s3.53-.68,4.68-2.05c1.15-1.37,1.73-3.16,1.73-5.36Z"/><path class="cls-2" d="M83.24,441.42h-6.26l-.65-3.1c-.9,1.07-1.95,1.9-3.16,2.5-1.2.6-2.67.9-4.41.9-3,0-5.46-.93-7.36-2.78-1.9-1.85-2.85-4.95-2.85-9.29v-13.97h7.06v13.12c0,2.34.41,4.1,1.23,5.28.82,1.19,2.08,1.78,3.78,1.78s3.14-.66,4.11-1.98c.97-1.32,1.45-3.16,1.45-5.53v-12.67h7.06v25.74Z"/><path class="cls-2" d="M107.98,435.62c1,.7,2.29,1.05,3.86,1.05s2.69-.24,3.56-.73c.87-.48,1.3-1.18,1.3-2.08,0-.67-.2-1.17-.6-1.5s-.97-.58-1.7-.73c-.73-.15-1.94-.33-3.61-.53-2.27-.3-4.16-.68-5.66-1.15-1.5-.47-2.7-1.2-3.61-2.2-.9-1-1.35-2.34-1.35-4.01s.46-3.15,1.38-4.43c.92-1.29,2.21-2.28,3.88-2.98s3.59-1.05,5.76-1.05c3.51.03,6.33.79,8.49,2.25,2.15,1.47,3.31,3.51,3.48,6.11h-6.71c-.1-.97-.61-1.76-1.53-2.38-.92-.62-2.09-.93-3.53-.93-1.34,0-2.41.25-3.23.75-.82.5-1.23,1.17-1.23,2,0,.6.22,1.05.65,1.35.43.3,1,.52,1.7.65.7.13,1.87.28,3.5.45,3.47.4,6.13,1.14,7.99,2.23,1.85,1.08,2.78,2.95,2.78,5.58,0,1.67-.49,3.14-1.48,4.41-.98,1.27-2.35,2.25-4.11,2.93-1.75.68-3.78,1.03-6.08,1.03-3.57,0-6.48-.79-8.71-2.38-2.24-1.59-3.42-3.75-3.56-6.49h6.71c.1,1.13.65,2.05,1.65,2.75Z"/><path class="cls-2" d="M152.7,427.45v13.97h-7.06v-13.67c0-2.14-.43-3.76-1.3-4.88-.87-1.12-2.17-1.68-3.91-1.68s-3.21.62-4.23,1.85c-1.02,1.24-1.53,2.95-1.53,5.16v13.22h-7.06v-35.06h7.06v12.47c1.9-2.3,4.44-3.46,7.61-3.46s5.53.93,7.49,2.8c1.95,1.87,2.93,4.96,2.93,9.27Z"/><path class="cls-2" d="M157.84,435.47c-1.12-2-1.68-4.31-1.68-6.91s.56-4.91,1.68-6.91,2.7-3.55,4.76-4.63c2.05-1.08,4.43-1.63,7.14-1.63s5.08.54,7.14,1.63c2.05,1.08,3.64,2.63,4.76,4.63,1.12,2,1.68,4.31,1.68,6.91s-.56,4.95-1.68,6.94c-1.12,1.99-2.71,3.52-4.76,4.61-2.05,1.08-4.43,1.63-7.14,1.63s-5.08-.54-7.14-1.63c-2.05-1.08-3.64-2.63-4.76-4.63ZM176.14,428.55c0-2.2-.58-3.99-1.73-5.36-1.15-1.37-2.71-2.05-4.68-2.05s-3.48.68-4.63,2.05c-1.15,1.37-1.73,3.15-1.73,5.36s.58,3.99,1.73,5.36c1.15,1.37,2.7,2.05,4.63,2.05s3.53-.68,4.68-2.05c1.15-1.37,1.73-3.16,1.73-5.36Z"/><path class="cls-2" d="M202.89,422.09h-2.8c-2,0-3.47.6-4.41,1.8-.93,1.2-1.4,2.84-1.4,4.91v12.62h-7.06v-25.74h6.41l.65,3.86c.77-1.27,1.72-2.23,2.85-2.88,1.14-.65,2.65-.98,4.56-.98h1.2v6.41Z"/><path class="cls-2" d="M213.11,408.47v7.21h5.86v5.96h-5.86v11.27c0,.9.19,1.55.58,1.95s1.03.6,1.93.6h3.66v5.96h-5.86c-4.91,0-7.36-2.45-7.36-7.36v-25.59h7.06Z"/><path class="cls-2" d="M229.28,406.37v35.06h-7.06v-35.06h7.06Z"/><path class="cls-2" d="M245.46,434.16l6.11-18.48h7.56l-11.42,29.4c-.6,1.57-1.17,2.8-1.7,3.68s-1.21,1.55-2.03,2c-.82.45-1.88.68-3.18.68h-6.86v-5.96h3.91c.9,0,1.55-.15,1.95-.45.4-.3.79-.88,1.15-1.75l.65-1.7-9.92-25.89h7.51l6.26,18.48Z"/><path class="cls-2" d="M262.99,433.36c1.2,0,2.21.4,3.03,1.2.82.8,1.23,1.8,1.23,3s-.41,2.2-1.23,2.98c-.82.78-1.83,1.18-3.03,1.18s-2.25-.39-3.05-1.18c-.8-.79-1.2-1.78-1.2-2.98s.4-2.25,1.2-3.03c.8-.79,1.82-1.18,3.05-1.18Z"/></g></svg>